M48
; DRILL file {KiCad (5.1.6)-1} date 10/15/20 22:29:53
; FORMAT={-:-/ absolute / inch / decimal}
; #@! TF.CreationDate,2020-10-15T22:29:53-04:00
; #@! TF.GenerationSoftware,Kicad,Pcbnew,(5.1.6)-1
; #@! TF.FileFunction,Plated,1,4,PTH
FMAT,2
INCH
T1C0.0157
T2C0.0394
%
G90
G05
T1
X2.6166Y-2.9364
X2.6577Y-3.259
X2.8045Y-2.9501
X2.806Y-3.14
X3.0477Y-3.7635
X3.1631Y-3.4776
X3.1717Y-3.2766
X3.1798Y-3.7396
X3.2066Y-3.2038
X3.2683Y-3.1501
X3.3474Y-4.0
X3.4031Y-4.1692
X3.4112Y-3.8992
X3.4268Y-3.3696
X3.4303Y-3.4963
X3.4873Y-3.6348
X3.5077Y-3.4614
X3.5096Y-3.3037
X3.5275Y-2.8891
X3.6284Y-4.2923
X3.6375Y-4.1929
X3.643Y-3.4948
X3.6651Y-3.9418
X3.7076Y-4.5217
X3.7168Y-3.4948
X3.7301Y-4.0294
X3.7918Y-4.4628
X3.8103Y-4.25
X3.8455Y-3.9398
X3.9188Y-3.1027
X3.9395Y-3.0071
X4.0567Y-3.4541
X4.2073Y-3.6398
X4.2715Y-4.6069
X4.2751Y-4.3327
X4.2835Y-3.0996
X4.3027Y-3.275
X4.304Y-3.2025
X4.423Y-3.1282
X4.432Y-3.5609
X4.4796Y-3.811
X4.4796Y-3.8848
X4.4801Y-3.0563
X4.4895Y-4.3019
X4.5027Y-3.423
X4.5061Y-3.4872
X4.5269Y-3.0692
X4.5423Y-4.0216
X4.5849Y-3.1376
X4.5887Y-3.6176
X4.5968Y-2.9811
X4.5981Y-3.4569
X4.5982Y-3.2606
X4.6445Y-4.2581
X4.6614Y-2.9953
X4.6625Y-4.6654
X4.7199Y-3.8186
X4.7267Y-3.2783
X4.7282Y-3.5723
X4.729Y-3.2264
X4.7354Y-3.4391
X4.7575Y-3.1076
X4.772Y-2.812
X4.7912Y-3.4828
X4.7978Y-4.5981
X4.7985Y-4.3413
X4.8002Y-3.5407
X4.8046Y-3.1584
X4.8066Y-3.917
X4.8112Y-4.3951
X4.8254Y-4.633
X4.8295Y-2.9526
X4.8385Y-3.4675
X4.8719Y-3.2662
X4.8781Y-3.803
X4.8879Y-3.1961
X4.8894Y-4.1688
X4.893Y-3.6243
X4.906Y-2.808
X4.9287Y-3.8132
X4.9395Y-3.9633
X4.9645Y-3.3865
X4.9649Y-4.5052
X4.971Y-3.8146
X4.98Y-3.9711
X5.0184Y-3.9799
X5.0214Y-3.6105
X5.0256Y-4.1566
X5.0536Y-3.9623
X5.0646Y-3.6536
X5.0666Y-3.7393
X5.0736Y-3.415
X5.1266Y-4.2677
X5.1512Y-3.8987
X5.1552Y-3.5594
X5.1584Y-3.5129
X5.1758Y-3.4724
X5.189Y-4.2896
X5.1921Y-3.8496
X5.2282Y-3.9994
X5.2738Y-4.1821
X5.282Y-3.9121
X5.3266Y-4.1642
X5.3936Y-4.1636
X5.3959Y-4.4233
X5.5161Y-4.6367
X5.6174Y-4.4157
T2
X2.6124Y-2.6639
X2.6124Y-2.7639
X5.2822Y-2.7332
X5.2822Y-2.8332
X5.2822Y-2.9332
X3.8578Y-3.5691
X3.8578Y-3.6691
X5.4225Y-3.3056
X5.4225Y-3.4056
X5.4225Y-3.5056
X5.4225Y-3.6056
X5.4225Y-3.7056
X5.4225Y-3.8056
X5.4225Y-3.9056
X5.4225Y-4.0056
X5.1177Y-2.7337
X5.1177Y-2.8337
X5.1177Y-2.9337
X5.6529Y-4.6147
X5.6529Y-4.7147
X2.6329Y-3.4249
X2.6329Y-3.5249
X2.7982Y-4.1253
X2.8982Y-4.1253
X2.9982Y-4.1253
X2.6124Y-4.6147
X2.6124Y-4.7147
X5.6529Y-2.6639
X5.6529Y-2.7639
X4.0352Y-3.5716
X4.0352Y-3.6716
X4.0347Y-3.1122
X4.0347Y-3.2122
X4.0347Y-3.3122
X4.1347Y-3.1122
X4.1347Y-3.2122
X4.1347Y-3.3122
X3.9004Y-4.0502
X3.9004Y-4.1502
X3.9004Y-4.2502
X3.9004Y-4.3502
X4.0004Y-4.0502
X4.0004Y-4.1502
X4.0004Y-4.2502
X4.0004Y-4.3502
T0
M30
