G04 #@! TF.GenerationSoftware,KiCad,Pcbnew,(5.1.6)-1*
G04 #@! TF.CreationDate,2020-10-15T22:30:15-04:00*
G04 #@! TF.ProjectId,electronique_drone,656c6563-7472-46f6-9e69-7175655f6472,3*
G04 #@! TF.SameCoordinates,Original*
G04 #@! TF.FileFunction,Copper,L3,Inr*
G04 #@! TF.FilePolarity,Positive*
%FSLAX46Y46*%
G04 Gerber Fmt 4.6, Leading zero omitted, Abs format (unit mm)*
G04 Created by KiCad (PCBNEW (5.1.6)-1) date 2020-10-15 22:30:15*
%MOMM*%
%LPD*%
G01*
G04 APERTURE LIST*
G04 #@! TA.AperFunction,ViaPad*
%ADD10R,1.700000X1.700000*%
G04 #@! TD*
G04 #@! TA.AperFunction,ViaPad*
%ADD11O,1.700000X1.700000*%
G04 #@! TD*
G04 #@! TA.AperFunction,ViaPad*
%ADD12C,0.800000*%
G04 #@! TD*
G04 #@! TA.AperFunction,Conductor*
%ADD13C,0.250000*%
G04 #@! TD*
G04 APERTURE END LIST*
D10*
X66875660Y-86992460D03*
D11*
X66875660Y-89532460D03*
D10*
X102481380Y-79049880D03*
D11*
X105021380Y-79049880D03*
X102481380Y-81589880D03*
X105021380Y-81589880D03*
X102481380Y-84129880D03*
X105021380Y-84129880D03*
D10*
X71074280Y-104782620D03*
D11*
X73614280Y-104782620D03*
X76154280Y-104782620D03*
D10*
X129989580Y-69435980D03*
D11*
X129989580Y-71975980D03*
X129989580Y-74515980D03*
X134167880Y-74503280D03*
X134167880Y-71963280D03*
D10*
X134167880Y-69423280D03*
D11*
X102494080Y-93258640D03*
D10*
X102494080Y-90718640D03*
X97988120Y-90655140D03*
D11*
X97988120Y-93195140D03*
X66354960Y-70203060D03*
D10*
X66354960Y-67663060D03*
X143583660Y-67663060D03*
D11*
X143583660Y-70203060D03*
X66354960Y-119753380D03*
D10*
X66354960Y-117213380D03*
X143583660Y-117213380D03*
D11*
X143583660Y-119753380D03*
D10*
X137731500Y-101742240D03*
D11*
X137731500Y-99202240D03*
X137731500Y-96662240D03*
X137731500Y-94122240D03*
X137731500Y-91582240D03*
X137731500Y-89042240D03*
X137731500Y-86502240D03*
X137731500Y-83962240D03*
D10*
X101610160Y-102875080D03*
D11*
X99070160Y-102875080D03*
X101610160Y-105415080D03*
X99070160Y-105415080D03*
X101610160Y-107955080D03*
X99070160Y-107955080D03*
X101610160Y-110495080D03*
X99070160Y-110495080D03*
D12*
X67505580Y-82778600D03*
X71272400Y-79756000D03*
X92531960Y-88767920D03*
X89094506Y-87918486D03*
X85024200Y-101600000D03*
X83014820Y-80012540D03*
X80342740Y-88331040D03*
X113781840Y-96799160D03*
X128691640Y-94978220D03*
X114032820Y-109268260D03*
X126108460Y-114432080D03*
X118399560Y-76080620D03*
X116456460Y-79695040D03*
X120115500Y-81950560D03*
X123746260Y-82961480D03*
X87040960Y-85587840D03*
X87129620Y-88805780D03*
X89143840Y-83913980D03*
X80561180Y-83225640D03*
X71234300Y-74932540D03*
X77411580Y-95592900D03*
X89598500Y-73383140D03*
X120840500Y-78933040D03*
X128640840Y-92801440D03*
X123904167Y-96595773D03*
X117970300Y-108155740D03*
X131800600Y-108955840D03*
X133954520Y-106225340D03*
X113781840Y-98674160D03*
X93093540Y-100121720D03*
X94744540Y-102346760D03*
X96781620Y-107950000D03*
X114368580Y-86944200D03*
X120279160Y-87353140D03*
X116552980Y-91887040D03*
X108800900Y-78729840D03*
X126493044Y-100866045D03*
X103040180Y-87734140D03*
X109321600Y-81343240D03*
X116758720Y-75719940D03*
X108496100Y-117015260D03*
X121881900Y-110269020D03*
X122565160Y-117678200D03*
X140108940Y-117772180D03*
X97675700Y-100070920D03*
X92392500Y-106499660D03*
X92161360Y-109024420D03*
X114983260Y-77957680D03*
X116792692Y-87805260D03*
X113794540Y-77630020D03*
X121696480Y-88463120D03*
X120096280Y-90737274D03*
X128869440Y-86741000D03*
X114454940Y-88574880D03*
X130942080Y-90408760D03*
X124282200Y-92057220D03*
X112572800Y-90446860D03*
X125188980Y-96855280D03*
X125463299Y-100667820D03*
X106865420Y-92450920D03*
X108587540Y-110050580D03*
X66461160Y-74584560D03*
X121864120Y-116791740D03*
X122204480Y-111635540D03*
X142681960Y-112158780D03*
X88577420Y-92323920D03*
X94406960Y-88767920D03*
X122036840Y-80223360D03*
X112344539Y-79456280D03*
X124152660Y-81180940D03*
X109289680Y-83185000D03*
X127467613Y-101090187D03*
X128362362Y-100643591D03*
X132796280Y-101584760D03*
X122087640Y-99491800D03*
X96311720Y-113355120D03*
X94173040Y-114851180D03*
X115374420Y-102148640D03*
X119884801Y-96991726D03*
X118427552Y-118501108D03*
X121925080Y-89933780D03*
X124190760Y-105887520D03*
X122897900Y-88074500D03*
X126098300Y-86015990D03*
X131465320Y-88198960D03*
X137055860Y-112351820D03*
X127543560Y-91706700D03*
X131023360Y-89227660D03*
X81447640Y-81376520D03*
X80766920Y-94985840D03*
X86438740Y-105897680D03*
X86644480Y-99039680D03*
X130215640Y-108399580D03*
X134162800Y-99367340D03*
X136997440Y-105755440D03*
X131878082Y-97778883D03*
X135295640Y-105770680D03*
X130840480Y-99026980D03*
X100063300Y-76380340D03*
X99537520Y-78808580D03*
X124612640Y-71323200D03*
X122668820Y-74996040D03*
X127650240Y-105577640D03*
X126263400Y-96890840D03*
X116794280Y-82818811D03*
X121208800Y-71424800D03*
X120058180Y-83268820D03*
D13*
X83014820Y-85658960D02*
X83014820Y-80012540D01*
X80342740Y-88331040D02*
X83014820Y-85658960D01*
X101728138Y-98674160D02*
X113781840Y-98674160D01*
X96813119Y-93759141D02*
X101728138Y-98674160D01*
X96813119Y-89545139D02*
X96813119Y-93759141D01*
X96878119Y-89480139D02*
X96813119Y-89545139D01*
X99098121Y-89480139D02*
X96878119Y-89480139D01*
X103846379Y-84731881D02*
X99098121Y-89480139D01*
X103846379Y-80224881D02*
X103846379Y-84731881D01*
X105021380Y-79049880D02*
X103846379Y-80224881D01*
X99099621Y-92083639D02*
X97988120Y-93195140D01*
X111953911Y-83543811D02*
X103414083Y-92083639D01*
X117395589Y-83543811D02*
X111953911Y-83543811D01*
X103414083Y-92083639D02*
X99099621Y-92083639D01*
X126423420Y-74515980D02*
X117395589Y-83543811D01*
X129989580Y-74515980D02*
X126423420Y-74515980D01*
X98005002Y-100070920D02*
X97675700Y-100070920D01*
X100245161Y-102311079D02*
X98005002Y-100070920D01*
X101610160Y-110495080D02*
X100245161Y-109130081D01*
X100245161Y-109130081D02*
X100245161Y-102311079D01*
X120096280Y-90737274D02*
X120096280Y-88990318D01*
X122345598Y-86741000D02*
X128869440Y-86741000D01*
X120096280Y-88990318D02*
X122345598Y-86741000D01*
X128474651Y-85290989D02*
X129762081Y-86578419D01*
X114454940Y-88574880D02*
X117738831Y-85290989D01*
X129762081Y-86578419D02*
X129762081Y-89228761D01*
X129762081Y-89228761D02*
X130942080Y-90408760D01*
X117738831Y-85290989D02*
X128474651Y-85290989D01*
X124677339Y-83993821D02*
X134167880Y-74503280D01*
X115322519Y-83993821D02*
X124677339Y-83993821D01*
X106865420Y-92450920D02*
X115322519Y-83993821D01*
X118827551Y-93031309D02*
X121925080Y-89933780D01*
X118427552Y-118501108D02*
X118827551Y-118101109D01*
X118827551Y-118101109D02*
X118827551Y-93031309D01*
X124190760Y-105887520D02*
X122897900Y-104594660D01*
X122897900Y-104594660D02*
X122897900Y-88074500D01*
X136195658Y-99054376D02*
X128847982Y-91706700D01*
X128847982Y-91706700D02*
X127543560Y-91706700D01*
X136195658Y-103880656D02*
X136195658Y-99054376D01*
X137055860Y-112351820D02*
X137722441Y-111685239D01*
X137722441Y-105407439D02*
X136195658Y-103880656D01*
X137722441Y-111685239D02*
X137722441Y-105407439D01*
X130215640Y-108399580D02*
X134162800Y-104452420D01*
X134162800Y-104452420D02*
X134162800Y-99367340D01*
X134283755Y-97778883D02*
X131878082Y-97778883D01*
X135745649Y-99240777D02*
X134283755Y-97778883D01*
X136997440Y-105755440D02*
X135745649Y-104503649D01*
X135745649Y-104503649D02*
X135745649Y-99240777D01*
X131225121Y-98642339D02*
X130840480Y-99026980D01*
X134510801Y-98642339D02*
X131225121Y-98642339D01*
X135295640Y-105770680D02*
X135295640Y-99427178D01*
X135295640Y-99427178D02*
X134510801Y-98642339D01*
X127650240Y-105577640D02*
X124738298Y-102665698D01*
X124738298Y-98415942D02*
X126263400Y-96890840D01*
X124738298Y-102665698D02*
X124738298Y-98415942D01*
M02*
