G04 #@! TF.GenerationSoftware,KiCad,Pcbnew,(5.1.6)-1*
G04 #@! TF.CreationDate,2020-10-15T22:30:15-04:00*
G04 #@! TF.ProjectId,electronique_drone,656c6563-7472-46f6-9e69-7175655f6472,3*
G04 #@! TF.SameCoordinates,Original*
G04 #@! TF.FileFunction,Legend,Bot*
G04 #@! TF.FilePolarity,Positive*
%FSLAX46Y46*%
G04 Gerber Fmt 4.6, Leading zero omitted, Abs format (unit mm)*
G04 Created by KiCad (PCBNEW (5.1.6)-1) date 2020-10-15 22:30:15*
%MOMM*%
%LPD*%
G01*
G04 APERTURE LIST*
%ADD10C,0.010000*%
%ADD11C,0.120000*%
%ADD12C,0.150000*%
G04 APERTURE END LIST*
D10*
G36*
X87731350Y-81873688D02*
G01*
X88085396Y-81809874D01*
X88437951Y-81695313D01*
X88789064Y-81529991D01*
X89074895Y-81357237D01*
X89193048Y-81270643D01*
X89333554Y-81154957D01*
X89485998Y-81019906D01*
X89639963Y-80875217D01*
X89785036Y-80730617D01*
X89910802Y-80595834D01*
X89989051Y-80503453D01*
X90060438Y-80411020D01*
X90136385Y-80308262D01*
X90210749Y-80204056D01*
X90277388Y-80107276D01*
X90330157Y-80026798D01*
X90362914Y-79971498D01*
X90370660Y-79952138D01*
X90345789Y-79949411D01*
X90273297Y-79946789D01*
X90156361Y-79944293D01*
X89998158Y-79941947D01*
X89801868Y-79939773D01*
X89570667Y-79937794D01*
X89307735Y-79936032D01*
X89016248Y-79934512D01*
X88699385Y-79933255D01*
X88360323Y-79932285D01*
X88002241Y-79931624D01*
X87628317Y-79931294D01*
X87462360Y-79931260D01*
X87028953Y-79931461D01*
X86623080Y-79932050D01*
X86246910Y-79933012D01*
X85902613Y-79934327D01*
X85592358Y-79935980D01*
X85318315Y-79937952D01*
X85082654Y-79940227D01*
X84887544Y-79942787D01*
X84735155Y-79945614D01*
X84627656Y-79948692D01*
X84567218Y-79952002D01*
X84554060Y-79954533D01*
X84569159Y-79992294D01*
X84610816Y-80061805D01*
X84673572Y-80155379D01*
X84751965Y-80265327D01*
X84840535Y-80383961D01*
X84933821Y-80503592D01*
X85012518Y-80600049D01*
X85295938Y-80906993D01*
X85600862Y-81177138D01*
X85922970Y-81407792D01*
X86257938Y-81596266D01*
X86601445Y-81739867D01*
X86949168Y-81835905D01*
X87018578Y-81849123D01*
X87375761Y-81886767D01*
X87731350Y-81873688D01*
G37*
X87731350Y-81873688D02*
X88085396Y-81809874D01*
X88437951Y-81695313D01*
X88789064Y-81529991D01*
X89074895Y-81357237D01*
X89193048Y-81270643D01*
X89333554Y-81154957D01*
X89485998Y-81019906D01*
X89639963Y-80875217D01*
X89785036Y-80730617D01*
X89910802Y-80595834D01*
X89989051Y-80503453D01*
X90060438Y-80411020D01*
X90136385Y-80308262D01*
X90210749Y-80204056D01*
X90277388Y-80107276D01*
X90330157Y-80026798D01*
X90362914Y-79971498D01*
X90370660Y-79952138D01*
X90345789Y-79949411D01*
X90273297Y-79946789D01*
X90156361Y-79944293D01*
X89998158Y-79941947D01*
X89801868Y-79939773D01*
X89570667Y-79937794D01*
X89307735Y-79936032D01*
X89016248Y-79934512D01*
X88699385Y-79933255D01*
X88360323Y-79932285D01*
X88002241Y-79931624D01*
X87628317Y-79931294D01*
X87462360Y-79931260D01*
X87028953Y-79931461D01*
X86623080Y-79932050D01*
X86246910Y-79933012D01*
X85902613Y-79934327D01*
X85592358Y-79935980D01*
X85318315Y-79937952D01*
X85082654Y-79940227D01*
X84887544Y-79942787D01*
X84735155Y-79945614D01*
X84627656Y-79948692D01*
X84567218Y-79952002D01*
X84554060Y-79954533D01*
X84569159Y-79992294D01*
X84610816Y-80061805D01*
X84673572Y-80155379D01*
X84751965Y-80265327D01*
X84840535Y-80383961D01*
X84933821Y-80503592D01*
X85012518Y-80600049D01*
X85295938Y-80906993D01*
X85600862Y-81177138D01*
X85922970Y-81407792D01*
X86257938Y-81596266D01*
X86601445Y-81739867D01*
X86949168Y-81835905D01*
X87018578Y-81849123D01*
X87375761Y-81886767D01*
X87731350Y-81873688D01*
G36*
X79766578Y-82846966D02*
G01*
X79775003Y-82846641D01*
X80071934Y-82814950D01*
X80343398Y-82742765D01*
X80595300Y-82627452D01*
X80833546Y-82466375D01*
X81038338Y-82282939D01*
X81235398Y-82059400D01*
X81388548Y-81824140D01*
X81504673Y-81566272D01*
X81521446Y-81518760D01*
X81570035Y-81327464D01*
X81599064Y-81107313D01*
X81607658Y-80876688D01*
X81594945Y-80653971D01*
X81569868Y-80498430D01*
X81491328Y-80239381D01*
X81373790Y-79984135D01*
X81225118Y-79746833D01*
X81053172Y-79541618D01*
X81019436Y-79508297D01*
X80785113Y-79318108D01*
X80523812Y-79166742D01*
X80242674Y-79056244D01*
X79948843Y-78988663D01*
X79649462Y-78966043D01*
X79351676Y-78990434D01*
X79267666Y-79006370D01*
X78972404Y-79094930D01*
X78698396Y-79226935D01*
X78449810Y-79398195D01*
X78230811Y-79604519D01*
X78045567Y-79841717D01*
X77898246Y-80105597D01*
X77793013Y-80391971D01*
X77761791Y-80520740D01*
X77723082Y-80828680D01*
X77732811Y-81131066D01*
X77788630Y-81423540D01*
X77888190Y-81701748D01*
X78029145Y-81961332D01*
X78209145Y-82197938D01*
X78425844Y-82407209D01*
X78676892Y-82584790D01*
X78948014Y-82721400D01*
X79133224Y-82786996D01*
X79321603Y-82828308D01*
X79527829Y-82847557D01*
X79766578Y-82846966D01*
G37*
X79766578Y-82846966D02*
X79775003Y-82846641D01*
X80071934Y-82814950D01*
X80343398Y-82742765D01*
X80595300Y-82627452D01*
X80833546Y-82466375D01*
X81038338Y-82282939D01*
X81235398Y-82059400D01*
X81388548Y-81824140D01*
X81504673Y-81566272D01*
X81521446Y-81518760D01*
X81570035Y-81327464D01*
X81599064Y-81107313D01*
X81607658Y-80876688D01*
X81594945Y-80653971D01*
X81569868Y-80498430D01*
X81491328Y-80239381D01*
X81373790Y-79984135D01*
X81225118Y-79746833D01*
X81053172Y-79541618D01*
X81019436Y-79508297D01*
X80785113Y-79318108D01*
X80523812Y-79166742D01*
X80242674Y-79056244D01*
X79948843Y-78988663D01*
X79649462Y-78966043D01*
X79351676Y-78990434D01*
X79267666Y-79006370D01*
X78972404Y-79094930D01*
X78698396Y-79226935D01*
X78449810Y-79398195D01*
X78230811Y-79604519D01*
X78045567Y-79841717D01*
X77898246Y-80105597D01*
X77793013Y-80391971D01*
X77761791Y-80520740D01*
X77723082Y-80828680D01*
X77732811Y-81131066D01*
X77788630Y-81423540D01*
X77888190Y-81701748D01*
X78029145Y-81961332D01*
X78209145Y-82197938D01*
X78425844Y-82407209D01*
X78676892Y-82584790D01*
X78948014Y-82721400D01*
X79133224Y-82786996D01*
X79321603Y-82828308D01*
X79527829Y-82847557D01*
X79766578Y-82846966D01*
G36*
X89390691Y-77027540D02*
G01*
X89592602Y-76953042D01*
X89779548Y-76883504D01*
X89946144Y-76820971D01*
X90087003Y-76767491D01*
X90196738Y-76725109D01*
X90269964Y-76695872D01*
X90301294Y-76681825D01*
X90301840Y-76681408D01*
X90301255Y-76649360D01*
X90276597Y-76580581D01*
X90231233Y-76481095D01*
X90168525Y-76356925D01*
X90091838Y-76214096D01*
X90004538Y-76058630D01*
X89909988Y-75896550D01*
X89811552Y-75733881D01*
X89712597Y-75576645D01*
X89616485Y-75430867D01*
X89549138Y-75333860D01*
X89160038Y-74827588D01*
X88744849Y-74362527D01*
X88304949Y-73939504D01*
X87841715Y-73559346D01*
X87356525Y-73222879D01*
X86850757Y-72930929D01*
X86325788Y-72684323D01*
X85782997Y-72483888D01*
X85223761Y-72330450D01*
X84649458Y-72224835D01*
X84300060Y-72184929D01*
X84196073Y-72178021D01*
X84059145Y-72172291D01*
X83898968Y-72167809D01*
X83725235Y-72164648D01*
X83547637Y-72162879D01*
X83375867Y-72162575D01*
X83219617Y-72163806D01*
X83088579Y-72166646D01*
X82992445Y-72171165D01*
X82953860Y-72174951D01*
X82900343Y-72182091D01*
X82812153Y-72193253D01*
X82705056Y-72206454D01*
X82661760Y-72211704D01*
X82174130Y-72293814D01*
X81680027Y-72421837D01*
X81186669Y-72592763D01*
X80701271Y-72803586D01*
X80231050Y-73051295D01*
X79783221Y-73332884D01*
X79524860Y-73519445D01*
X79414862Y-73605575D01*
X79302814Y-73697503D01*
X79195247Y-73789363D01*
X79098693Y-73875291D01*
X79019683Y-73949420D01*
X78964749Y-74005887D01*
X78940422Y-74038825D01*
X78940660Y-74044043D01*
X78962011Y-74062740D01*
X79017324Y-74111146D01*
X79102325Y-74185524D01*
X79212743Y-74282136D01*
X79344303Y-74397243D01*
X79492734Y-74527106D01*
X79653762Y-74667987D01*
X79672197Y-74684115D01*
X80391034Y-75313004D01*
X80510622Y-75201143D01*
X80812533Y-74951148D01*
X81152835Y-74727958D01*
X81525130Y-74534408D01*
X81923020Y-74373331D01*
X82340106Y-74247563D01*
X82769991Y-74159939D01*
X82903060Y-74141189D01*
X83035596Y-74129179D01*
X83205898Y-74120730D01*
X83401058Y-74115854D01*
X83608167Y-74114567D01*
X83814313Y-74116884D01*
X84006589Y-74122817D01*
X84172085Y-74132382D01*
X84251605Y-74139697D01*
X84745043Y-74217695D01*
X85227283Y-74340250D01*
X85691605Y-74505120D01*
X86131291Y-74710062D01*
X86377202Y-74849334D01*
X86754738Y-75106006D01*
X87116302Y-75405597D01*
X87455678Y-75741172D01*
X87766649Y-76105794D01*
X88042999Y-76492530D01*
X88278511Y-76894442D01*
X88363319Y-77065180D01*
X88499623Y-77355023D01*
X89390691Y-77027540D01*
G37*
X89390691Y-77027540D02*
X89592602Y-76953042D01*
X89779548Y-76883504D01*
X89946144Y-76820971D01*
X90087003Y-76767491D01*
X90196738Y-76725109D01*
X90269964Y-76695872D01*
X90301294Y-76681825D01*
X90301840Y-76681408D01*
X90301255Y-76649360D01*
X90276597Y-76580581D01*
X90231233Y-76481095D01*
X90168525Y-76356925D01*
X90091838Y-76214096D01*
X90004538Y-76058630D01*
X89909988Y-75896550D01*
X89811552Y-75733881D01*
X89712597Y-75576645D01*
X89616485Y-75430867D01*
X89549138Y-75333860D01*
X89160038Y-74827588D01*
X88744849Y-74362527D01*
X88304949Y-73939504D01*
X87841715Y-73559346D01*
X87356525Y-73222879D01*
X86850757Y-72930929D01*
X86325788Y-72684323D01*
X85782997Y-72483888D01*
X85223761Y-72330450D01*
X84649458Y-72224835D01*
X84300060Y-72184929D01*
X84196073Y-72178021D01*
X84059145Y-72172291D01*
X83898968Y-72167809D01*
X83725235Y-72164648D01*
X83547637Y-72162879D01*
X83375867Y-72162575D01*
X83219617Y-72163806D01*
X83088579Y-72166646D01*
X82992445Y-72171165D01*
X82953860Y-72174951D01*
X82900343Y-72182091D01*
X82812153Y-72193253D01*
X82705056Y-72206454D01*
X82661760Y-72211704D01*
X82174130Y-72293814D01*
X81680027Y-72421837D01*
X81186669Y-72592763D01*
X80701271Y-72803586D01*
X80231050Y-73051295D01*
X79783221Y-73332884D01*
X79524860Y-73519445D01*
X79414862Y-73605575D01*
X79302814Y-73697503D01*
X79195247Y-73789363D01*
X79098693Y-73875291D01*
X79019683Y-73949420D01*
X78964749Y-74005887D01*
X78940422Y-74038825D01*
X78940660Y-74044043D01*
X78962011Y-74062740D01*
X79017324Y-74111146D01*
X79102325Y-74185524D01*
X79212743Y-74282136D01*
X79344303Y-74397243D01*
X79492734Y-74527106D01*
X79653762Y-74667987D01*
X79672197Y-74684115D01*
X80391034Y-75313004D01*
X80510622Y-75201143D01*
X80812533Y-74951148D01*
X81152835Y-74727958D01*
X81525130Y-74534408D01*
X81923020Y-74373331D01*
X82340106Y-74247563D01*
X82769991Y-74159939D01*
X82903060Y-74141189D01*
X83035596Y-74129179D01*
X83205898Y-74120730D01*
X83401058Y-74115854D01*
X83608167Y-74114567D01*
X83814313Y-74116884D01*
X84006589Y-74122817D01*
X84172085Y-74132382D01*
X84251605Y-74139697D01*
X84745043Y-74217695D01*
X85227283Y-74340250D01*
X85691605Y-74505120D01*
X86131291Y-74710062D01*
X86377202Y-74849334D01*
X86754738Y-75106006D01*
X87116302Y-75405597D01*
X87455678Y-75741172D01*
X87766649Y-76105794D01*
X88042999Y-76492530D01*
X88278511Y-76894442D01*
X88363319Y-77065180D01*
X88499623Y-77355023D01*
X89390691Y-77027540D01*
G36*
X84284061Y-90630674D02*
G01*
X85032883Y-90560487D01*
X85778899Y-90441611D01*
X86519782Y-90273664D01*
X87253202Y-90056267D01*
X87268376Y-90051213D01*
X87981164Y-89786734D01*
X88673861Y-89476613D01*
X89344127Y-89122628D01*
X89989625Y-88726558D01*
X90608016Y-88290182D01*
X91196963Y-87815278D01*
X91754127Y-87303625D01*
X92277170Y-86757001D01*
X92763754Y-86177186D01*
X93211541Y-85565957D01*
X93261406Y-85492299D01*
X93491600Y-85132357D01*
X93720272Y-84742636D01*
X93940182Y-84336905D01*
X94144088Y-83928936D01*
X94324749Y-83532500D01*
X94442608Y-83245960D01*
X94697993Y-82521438D01*
X94904723Y-81786551D01*
X95062902Y-81043703D01*
X95172638Y-80295296D01*
X95234036Y-79543736D01*
X95247202Y-78791425D01*
X95212242Y-78040768D01*
X95129262Y-77294167D01*
X94998369Y-76554026D01*
X94819667Y-75822750D01*
X94593263Y-75102741D01*
X94319263Y-74396403D01*
X94024410Y-73759060D01*
X93748050Y-73233184D01*
X93462922Y-72746022D01*
X93162035Y-72287899D01*
X92838395Y-71849141D01*
X92485011Y-71420074D01*
X92094890Y-70991023D01*
X91820126Y-70709394D01*
X91385945Y-70291830D01*
X90957995Y-69915518D01*
X90526602Y-69573468D01*
X90082093Y-69258686D01*
X89614792Y-68964179D01*
X89115025Y-68682956D01*
X88770460Y-68505110D01*
X88076036Y-68185502D01*
X87367144Y-67914212D01*
X86642807Y-67690972D01*
X85902053Y-67515516D01*
X85143904Y-67387575D01*
X84414360Y-67310385D01*
X84257477Y-67301432D01*
X84061886Y-67294981D01*
X83839620Y-67291041D01*
X83602709Y-67289620D01*
X83363186Y-67290727D01*
X83133080Y-67294370D01*
X82924425Y-67300557D01*
X82750660Y-67309207D01*
X82013866Y-67381943D01*
X81279810Y-67504051D01*
X80552300Y-67674112D01*
X79835145Y-67890711D01*
X79132151Y-68152429D01*
X78447129Y-68457850D01*
X77783886Y-68805555D01*
X77146231Y-69194129D01*
X76540360Y-69620350D01*
X76119620Y-69955603D01*
X75696997Y-70326047D01*
X75286519Y-70718633D01*
X74902216Y-71120309D01*
X74773732Y-71263765D01*
X74289956Y-71851982D01*
X73848955Y-72466022D01*
X73451183Y-73103601D01*
X73097098Y-73762437D01*
X72787157Y-74440247D01*
X72521814Y-75134748D01*
X72301528Y-75843659D01*
X72126754Y-76564695D01*
X71997948Y-77295575D01*
X71915567Y-78034016D01*
X71880068Y-78777736D01*
X71886355Y-79174329D01*
X73835104Y-79174329D01*
X73844760Y-78479077D01*
X73903058Y-77780469D01*
X73950881Y-77429440D01*
X74081321Y-76747082D01*
X74259285Y-76079989D01*
X74483275Y-75430400D01*
X74751795Y-74800550D01*
X75063347Y-74192676D01*
X75416432Y-73609017D01*
X75809552Y-73051807D01*
X76241211Y-72523285D01*
X76709910Y-72025687D01*
X77214152Y-71561250D01*
X77752438Y-71132210D01*
X78323272Y-70740805D01*
X78504524Y-70628716D01*
X79075709Y-70311790D01*
X79675619Y-70031423D01*
X80297305Y-69789862D01*
X80933814Y-69589357D01*
X81578196Y-69432156D01*
X82223500Y-69320508D01*
X82712560Y-69267321D01*
X82935145Y-69253941D01*
X83193349Y-69245732D01*
X83472260Y-69242625D01*
X83756967Y-69244548D01*
X84032560Y-69251432D01*
X84284128Y-69263204D01*
X84452460Y-69275589D01*
X85124017Y-69357697D01*
X85778493Y-69483225D01*
X86424346Y-69654164D01*
X87070037Y-69872506D01*
X87202647Y-69923106D01*
X87364506Y-69990337D01*
X87558355Y-70077754D01*
X87772541Y-70179545D01*
X87995411Y-70289900D01*
X88215310Y-70403008D01*
X88420585Y-70513058D01*
X88599582Y-70614239D01*
X88656160Y-70647868D01*
X89191561Y-70999326D01*
X89710309Y-71394957D01*
X90207048Y-71829407D01*
X90676423Y-72297322D01*
X91113080Y-72793347D01*
X91511663Y-73312128D01*
X91866817Y-73848311D01*
X91882055Y-73873360D01*
X91982743Y-74047704D01*
X92095092Y-74256075D01*
X92213447Y-74486813D01*
X92332153Y-74728259D01*
X92445554Y-74968751D01*
X92547994Y-75196631D01*
X92633819Y-75400237D01*
X92678658Y-75515775D01*
X92897669Y-76179193D01*
X93068419Y-76852879D01*
X93191168Y-77534002D01*
X93266174Y-78219732D01*
X93293696Y-78907240D01*
X93273992Y-79593696D01*
X93207321Y-80276269D01*
X93093942Y-80952130D01*
X92934113Y-81618448D01*
X92728094Y-82272394D01*
X92476142Y-82911138D01*
X92178517Y-83531850D01*
X91900804Y-84024996D01*
X91521447Y-84605396D01*
X91103749Y-85153737D01*
X90649954Y-85668519D01*
X90162302Y-86148241D01*
X89643036Y-86591401D01*
X89094397Y-86996499D01*
X88518629Y-87362032D01*
X87917973Y-87686500D01*
X87294670Y-87968401D01*
X86650964Y-88206234D01*
X85989096Y-88398499D01*
X85311307Y-88543693D01*
X85100080Y-88578639D01*
X84393624Y-88662573D01*
X83690634Y-88696857D01*
X82993248Y-88682171D01*
X82303603Y-88619196D01*
X81623839Y-88508611D01*
X80956092Y-88351097D01*
X80302500Y-88147333D01*
X79665203Y-87898001D01*
X79046337Y-87603780D01*
X78448040Y-87265350D01*
X77872452Y-86883392D01*
X77321709Y-86458585D01*
X76797949Y-85991611D01*
X76714591Y-85910868D01*
X76241037Y-85411699D01*
X75807482Y-84882647D01*
X75414712Y-84326123D01*
X75063512Y-83744539D01*
X74754670Y-83140306D01*
X74488969Y-82515836D01*
X74267197Y-81873540D01*
X74090138Y-81215830D01*
X73958579Y-80545117D01*
X73873306Y-79863813D01*
X73835104Y-79174329D01*
X71886355Y-79174329D01*
X71891907Y-79524451D01*
X71951539Y-80271879D01*
X72059422Y-81017738D01*
X72216012Y-81759744D01*
X72421766Y-82495616D01*
X72487541Y-82698135D01*
X72752119Y-83408933D01*
X73062735Y-84099987D01*
X73417705Y-84768962D01*
X73815342Y-85413520D01*
X74253961Y-86031325D01*
X74731875Y-86620041D01*
X75247400Y-87177331D01*
X75798849Y-87700859D01*
X76384536Y-88188287D01*
X76527660Y-88297870D01*
X77153693Y-88738192D01*
X77802529Y-89134004D01*
X78471841Y-89484927D01*
X79159299Y-89790580D01*
X79862576Y-90050583D01*
X80579344Y-90264556D01*
X81307274Y-90432119D01*
X82044039Y-90552893D01*
X82787311Y-90626497D01*
X83534761Y-90652549D01*
X84284061Y-90630674D01*
G37*
X84284061Y-90630674D02*
X85032883Y-90560487D01*
X85778899Y-90441611D01*
X86519782Y-90273664D01*
X87253202Y-90056267D01*
X87268376Y-90051213D01*
X87981164Y-89786734D01*
X88673861Y-89476613D01*
X89344127Y-89122628D01*
X89989625Y-88726558D01*
X90608016Y-88290182D01*
X91196963Y-87815278D01*
X91754127Y-87303625D01*
X92277170Y-86757001D01*
X92763754Y-86177186D01*
X93211541Y-85565957D01*
X93261406Y-85492299D01*
X93491600Y-85132357D01*
X93720272Y-84742636D01*
X93940182Y-84336905D01*
X94144088Y-83928936D01*
X94324749Y-83532500D01*
X94442608Y-83245960D01*
X94697993Y-82521438D01*
X94904723Y-81786551D01*
X95062902Y-81043703D01*
X95172638Y-80295296D01*
X95234036Y-79543736D01*
X95247202Y-78791425D01*
X95212242Y-78040768D01*
X95129262Y-77294167D01*
X94998369Y-76554026D01*
X94819667Y-75822750D01*
X94593263Y-75102741D01*
X94319263Y-74396403D01*
X94024410Y-73759060D01*
X93748050Y-73233184D01*
X93462922Y-72746022D01*
X93162035Y-72287899D01*
X92838395Y-71849141D01*
X92485011Y-71420074D01*
X92094890Y-70991023D01*
X91820126Y-70709394D01*
X91385945Y-70291830D01*
X90957995Y-69915518D01*
X90526602Y-69573468D01*
X90082093Y-69258686D01*
X89614792Y-68964179D01*
X89115025Y-68682956D01*
X88770460Y-68505110D01*
X88076036Y-68185502D01*
X87367144Y-67914212D01*
X86642807Y-67690972D01*
X85902053Y-67515516D01*
X85143904Y-67387575D01*
X84414360Y-67310385D01*
X84257477Y-67301432D01*
X84061886Y-67294981D01*
X83839620Y-67291041D01*
X83602709Y-67289620D01*
X83363186Y-67290727D01*
X83133080Y-67294370D01*
X82924425Y-67300557D01*
X82750660Y-67309207D01*
X82013866Y-67381943D01*
X81279810Y-67504051D01*
X80552300Y-67674112D01*
X79835145Y-67890711D01*
X79132151Y-68152429D01*
X78447129Y-68457850D01*
X77783886Y-68805555D01*
X77146231Y-69194129D01*
X76540360Y-69620350D01*
X76119620Y-69955603D01*
X75696997Y-70326047D01*
X75286519Y-70718633D01*
X74902216Y-71120309D01*
X74773732Y-71263765D01*
X74289956Y-71851982D01*
X73848955Y-72466022D01*
X73451183Y-73103601D01*
X73097098Y-73762437D01*
X72787157Y-74440247D01*
X72521814Y-75134748D01*
X72301528Y-75843659D01*
X72126754Y-76564695D01*
X71997948Y-77295575D01*
X71915567Y-78034016D01*
X71880068Y-78777736D01*
X71886355Y-79174329D01*
X73835104Y-79174329D01*
X73844760Y-78479077D01*
X73903058Y-77780469D01*
X73950881Y-77429440D01*
X74081321Y-76747082D01*
X74259285Y-76079989D01*
X74483275Y-75430400D01*
X74751795Y-74800550D01*
X75063347Y-74192676D01*
X75416432Y-73609017D01*
X75809552Y-73051807D01*
X76241211Y-72523285D01*
X76709910Y-72025687D01*
X77214152Y-71561250D01*
X77752438Y-71132210D01*
X78323272Y-70740805D01*
X78504524Y-70628716D01*
X79075709Y-70311790D01*
X79675619Y-70031423D01*
X80297305Y-69789862D01*
X80933814Y-69589357D01*
X81578196Y-69432156D01*
X82223500Y-69320508D01*
X82712560Y-69267321D01*
X82935145Y-69253941D01*
X83193349Y-69245732D01*
X83472260Y-69242625D01*
X83756967Y-69244548D01*
X84032560Y-69251432D01*
X84284128Y-69263204D01*
X84452460Y-69275589D01*
X85124017Y-69357697D01*
X85778493Y-69483225D01*
X86424346Y-69654164D01*
X87070037Y-69872506D01*
X87202647Y-69923106D01*
X87364506Y-69990337D01*
X87558355Y-70077754D01*
X87772541Y-70179545D01*
X87995411Y-70289900D01*
X88215310Y-70403008D01*
X88420585Y-70513058D01*
X88599582Y-70614239D01*
X88656160Y-70647868D01*
X89191561Y-70999326D01*
X89710309Y-71394957D01*
X90207048Y-71829407D01*
X90676423Y-72297322D01*
X91113080Y-72793347D01*
X91511663Y-73312128D01*
X91866817Y-73848311D01*
X91882055Y-73873360D01*
X91982743Y-74047704D01*
X92095092Y-74256075D01*
X92213447Y-74486813D01*
X92332153Y-74728259D01*
X92445554Y-74968751D01*
X92547994Y-75196631D01*
X92633819Y-75400237D01*
X92678658Y-75515775D01*
X92897669Y-76179193D01*
X93068419Y-76852879D01*
X93191168Y-77534002D01*
X93266174Y-78219732D01*
X93293696Y-78907240D01*
X93273992Y-79593696D01*
X93207321Y-80276269D01*
X93093942Y-80952130D01*
X92934113Y-81618448D01*
X92728094Y-82272394D01*
X92476142Y-82911138D01*
X92178517Y-83531850D01*
X91900804Y-84024996D01*
X91521447Y-84605396D01*
X91103749Y-85153737D01*
X90649954Y-85668519D01*
X90162302Y-86148241D01*
X89643036Y-86591401D01*
X89094397Y-86996499D01*
X88518629Y-87362032D01*
X87917973Y-87686500D01*
X87294670Y-87968401D01*
X86650964Y-88206234D01*
X85989096Y-88398499D01*
X85311307Y-88543693D01*
X85100080Y-88578639D01*
X84393624Y-88662573D01*
X83690634Y-88696857D01*
X82993248Y-88682171D01*
X82303603Y-88619196D01*
X81623839Y-88508611D01*
X80956092Y-88351097D01*
X80302500Y-88147333D01*
X79665203Y-87898001D01*
X79046337Y-87603780D01*
X78448040Y-87265350D01*
X77872452Y-86883392D01*
X77321709Y-86458585D01*
X76797949Y-85991611D01*
X76714591Y-85910868D01*
X76241037Y-85411699D01*
X75807482Y-84882647D01*
X75414712Y-84326123D01*
X75063512Y-83744539D01*
X74754670Y-83140306D01*
X74488969Y-82515836D01*
X74267197Y-81873540D01*
X74090138Y-81215830D01*
X73958579Y-80545117D01*
X73873306Y-79863813D01*
X73835104Y-79174329D01*
X71886355Y-79174329D01*
X71891907Y-79524451D01*
X71951539Y-80271879D01*
X72059422Y-81017738D01*
X72216012Y-81759744D01*
X72421766Y-82495616D01*
X72487541Y-82698135D01*
X72752119Y-83408933D01*
X73062735Y-84099987D01*
X73417705Y-84768962D01*
X73815342Y-85413520D01*
X74253961Y-86031325D01*
X74731875Y-86620041D01*
X75247400Y-87177331D01*
X75798849Y-87700859D01*
X76384536Y-88188287D01*
X76527660Y-88297870D01*
X77153693Y-88738192D01*
X77802529Y-89134004D01*
X78471841Y-89484927D01*
X79159299Y-89790580D01*
X79862576Y-90050583D01*
X80579344Y-90264556D01*
X81307274Y-90432119D01*
X82044039Y-90552893D01*
X82787311Y-90626497D01*
X83534761Y-90652549D01*
X84284061Y-90630674D01*
D11*
X70691242Y-82429420D02*
X71208398Y-82429420D01*
X70691242Y-81009420D02*
X71208398Y-81009420D01*
X86362038Y-86297840D02*
X85844882Y-86297840D01*
X86362038Y-84877840D02*
X85844882Y-84877840D01*
X83828122Y-102310000D02*
X84345278Y-102310000D01*
X83828122Y-100890000D02*
X84345278Y-100890000D01*
X117972338Y-98997840D02*
X117455182Y-98997840D01*
X117972338Y-97577840D02*
X117455182Y-97577840D01*
X107885758Y-86864260D02*
X107368602Y-86864260D01*
X107885758Y-85444260D02*
X107368602Y-85444260D01*
X114711742Y-109978260D02*
X115228898Y-109978260D01*
X114711742Y-108558260D02*
X115228898Y-108558260D01*
X129395962Y-115619600D02*
X129913118Y-115619600D01*
X129395962Y-114199600D02*
X129913118Y-114199600D01*
X118680998Y-78322240D02*
X118163842Y-78322240D01*
X118680998Y-76902240D02*
X118163842Y-76902240D01*
X97655882Y-97354320D02*
X98173038Y-97354320D01*
X97655882Y-98774320D02*
X98173038Y-98774320D01*
X77447642Y-101708020D02*
X77964798Y-101708020D01*
X77447642Y-100288020D02*
X77964798Y-100288020D01*
X93210882Y-88057920D02*
X93728038Y-88057920D01*
X93210882Y-89477920D02*
X93728038Y-89477920D01*
X87839620Y-90001858D02*
X87839620Y-89484702D01*
X86419620Y-90001858D02*
X86419620Y-89484702D01*
X86512484Y-93128420D02*
X85308356Y-93128420D01*
X86512484Y-94948420D02*
X85308356Y-94948420D01*
X72703162Y-100275320D02*
X73220318Y-100275320D01*
X72703162Y-101695320D02*
X73220318Y-101695320D01*
X123933718Y-70613200D02*
X123416562Y-70613200D01*
X123933718Y-72033200D02*
X123416562Y-72033200D01*
X123347742Y-74286040D02*
X123864898Y-74286040D01*
X123347742Y-75706040D02*
X123864898Y-75706040D01*
D12*
X122940660Y-98173960D02*
X122940660Y-97948960D01*
X130190660Y-98173960D02*
X130190660Y-97848960D01*
X130190660Y-90923960D02*
X130190660Y-91248960D01*
X122940660Y-90923960D02*
X122940660Y-91248960D01*
X122940660Y-98173960D02*
X123265660Y-98173960D01*
X122940660Y-90923960D02*
X123265660Y-90923960D01*
X130190660Y-90923960D02*
X129865660Y-90923960D01*
X130190660Y-98173960D02*
X129865660Y-98173960D01*
X122940660Y-97948960D02*
X121515660Y-97948960D01*
D11*
X119501060Y-89288640D02*
X119501060Y-95188640D01*
X119501060Y-95188640D02*
X115901060Y-95188640D01*
X115901060Y-95188640D02*
X115901060Y-89288640D01*
D12*
X72068867Y-83726562D02*
X72116486Y-83774181D01*
X72259343Y-83821800D01*
X72354581Y-83821800D01*
X72497439Y-83774181D01*
X72592677Y-83678943D01*
X72640296Y-83583705D01*
X72687915Y-83393229D01*
X72687915Y-83250372D01*
X72640296Y-83059896D01*
X72592677Y-82964658D01*
X72497439Y-82869420D01*
X72354581Y-82821800D01*
X72259343Y-82821800D01*
X72116486Y-82869420D01*
X72068867Y-82917039D01*
X71687915Y-82917039D02*
X71640296Y-82869420D01*
X71545058Y-82821800D01*
X71306962Y-82821800D01*
X71211724Y-82869420D01*
X71164105Y-82917039D01*
X71116486Y-83012277D01*
X71116486Y-83107515D01*
X71164105Y-83250372D01*
X71735534Y-83821800D01*
X71116486Y-83821800D01*
X70497439Y-82821800D02*
X70402200Y-82821800D01*
X70306962Y-82869420D01*
X70259343Y-82917039D01*
X70211724Y-83012277D01*
X70164105Y-83202753D01*
X70164105Y-83440848D01*
X70211724Y-83631324D01*
X70259343Y-83726562D01*
X70306962Y-83774181D01*
X70402200Y-83821800D01*
X70497439Y-83821800D01*
X70592677Y-83774181D01*
X70640296Y-83726562D01*
X70687915Y-83631324D01*
X70735534Y-83440848D01*
X70735534Y-83202753D01*
X70687915Y-83012277D01*
X70640296Y-82917039D01*
X70592677Y-82869420D01*
X70497439Y-82821800D01*
X69783153Y-82917039D02*
X69735534Y-82869420D01*
X69640296Y-82821800D01*
X69402200Y-82821800D01*
X69306962Y-82869420D01*
X69259343Y-82917039D01*
X69211724Y-83012277D01*
X69211724Y-83107515D01*
X69259343Y-83250372D01*
X69830772Y-83821800D01*
X69211724Y-83821800D01*
X87222507Y-84294982D02*
X87270126Y-84342601D01*
X87412983Y-84390220D01*
X87508221Y-84390220D01*
X87651079Y-84342601D01*
X87746317Y-84247363D01*
X87793936Y-84152125D01*
X87841555Y-83961649D01*
X87841555Y-83818792D01*
X87793936Y-83628316D01*
X87746317Y-83533078D01*
X87651079Y-83437840D01*
X87508221Y-83390220D01*
X87412983Y-83390220D01*
X87270126Y-83437840D01*
X87222507Y-83485459D01*
X86841555Y-83485459D02*
X86793936Y-83437840D01*
X86698698Y-83390220D01*
X86460602Y-83390220D01*
X86365364Y-83437840D01*
X86317745Y-83485459D01*
X86270126Y-83580697D01*
X86270126Y-83675935D01*
X86317745Y-83818792D01*
X86889174Y-84390220D01*
X86270126Y-84390220D01*
X85651079Y-83390220D02*
X85555840Y-83390220D01*
X85460602Y-83437840D01*
X85412983Y-83485459D01*
X85365364Y-83580697D01*
X85317745Y-83771173D01*
X85317745Y-84009268D01*
X85365364Y-84199744D01*
X85412983Y-84294982D01*
X85460602Y-84342601D01*
X85555840Y-84390220D01*
X85651079Y-84390220D01*
X85746317Y-84342601D01*
X85793936Y-84294982D01*
X85841555Y-84199744D01*
X85889174Y-84009268D01*
X85889174Y-83771173D01*
X85841555Y-83580697D01*
X85793936Y-83485459D01*
X85746317Y-83437840D01*
X85651079Y-83390220D01*
X84984412Y-83390220D02*
X84365364Y-83390220D01*
X84698698Y-83771173D01*
X84555840Y-83771173D01*
X84460602Y-83818792D01*
X84412983Y-83866411D01*
X84365364Y-83961649D01*
X84365364Y-84199744D01*
X84412983Y-84294982D01*
X84460602Y-84342601D01*
X84555840Y-84390220D01*
X84841555Y-84390220D01*
X84936793Y-84342601D01*
X84984412Y-84294982D01*
X85205747Y-103607142D02*
X85253366Y-103654761D01*
X85396223Y-103702380D01*
X85491461Y-103702380D01*
X85634319Y-103654761D01*
X85729557Y-103559523D01*
X85777176Y-103464285D01*
X85824795Y-103273809D01*
X85824795Y-103130952D01*
X85777176Y-102940476D01*
X85729557Y-102845238D01*
X85634319Y-102750000D01*
X85491461Y-102702380D01*
X85396223Y-102702380D01*
X85253366Y-102750000D01*
X85205747Y-102797619D01*
X84824795Y-102797619D02*
X84777176Y-102750000D01*
X84681938Y-102702380D01*
X84443842Y-102702380D01*
X84348604Y-102750000D01*
X84300985Y-102797619D01*
X84253366Y-102892857D01*
X84253366Y-102988095D01*
X84300985Y-103130952D01*
X84872414Y-103702380D01*
X84253366Y-103702380D01*
X83634319Y-102702380D02*
X83539080Y-102702380D01*
X83443842Y-102750000D01*
X83396223Y-102797619D01*
X83348604Y-102892857D01*
X83300985Y-103083333D01*
X83300985Y-103321428D01*
X83348604Y-103511904D01*
X83396223Y-103607142D01*
X83443842Y-103654761D01*
X83539080Y-103702380D01*
X83634319Y-103702380D01*
X83729557Y-103654761D01*
X83777176Y-103607142D01*
X83824795Y-103511904D01*
X83872414Y-103321428D01*
X83872414Y-103083333D01*
X83824795Y-102892857D01*
X83777176Y-102797619D01*
X83729557Y-102750000D01*
X83634319Y-102702380D01*
X82967652Y-102702380D02*
X82300985Y-102702380D01*
X82729557Y-103702380D01*
X118832807Y-96994982D02*
X118880426Y-97042601D01*
X119023283Y-97090220D01*
X119118521Y-97090220D01*
X119261379Y-97042601D01*
X119356617Y-96947363D01*
X119404236Y-96852125D01*
X119451855Y-96661649D01*
X119451855Y-96518792D01*
X119404236Y-96328316D01*
X119356617Y-96233078D01*
X119261379Y-96137840D01*
X119118521Y-96090220D01*
X119023283Y-96090220D01*
X118880426Y-96137840D01*
X118832807Y-96185459D01*
X118499474Y-96090220D02*
X117880426Y-96090220D01*
X118213760Y-96471173D01*
X118070902Y-96471173D01*
X117975664Y-96518792D01*
X117928045Y-96566411D01*
X117880426Y-96661649D01*
X117880426Y-96899744D01*
X117928045Y-96994982D01*
X117975664Y-97042601D01*
X118070902Y-97090220D01*
X118356617Y-97090220D01*
X118451855Y-97042601D01*
X118499474Y-96994982D01*
X117261379Y-96090220D02*
X117166140Y-96090220D01*
X117070902Y-96137840D01*
X117023283Y-96185459D01*
X116975664Y-96280697D01*
X116928045Y-96471173D01*
X116928045Y-96709268D01*
X116975664Y-96899744D01*
X117023283Y-96994982D01*
X117070902Y-97042601D01*
X117166140Y-97090220D01*
X117261379Y-97090220D01*
X117356617Y-97042601D01*
X117404236Y-96994982D01*
X117451855Y-96899744D01*
X117499474Y-96709268D01*
X117499474Y-96471173D01*
X117451855Y-96280697D01*
X117404236Y-96185459D01*
X117356617Y-96137840D01*
X117261379Y-96090220D01*
X116070902Y-96423554D02*
X116070902Y-97090220D01*
X116308998Y-96042601D02*
X116547093Y-96756887D01*
X115928045Y-96756887D01*
X108761467Y-88185262D02*
X108809086Y-88232881D01*
X108951943Y-88280500D01*
X109047181Y-88280500D01*
X109190039Y-88232881D01*
X109285277Y-88137643D01*
X109332896Y-88042405D01*
X109380515Y-87851929D01*
X109380515Y-87709072D01*
X109332896Y-87518596D01*
X109285277Y-87423358D01*
X109190039Y-87328120D01*
X109047181Y-87280500D01*
X108951943Y-87280500D01*
X108809086Y-87328120D01*
X108761467Y-87375739D01*
X108428134Y-87280500D02*
X107809086Y-87280500D01*
X108142420Y-87661453D01*
X107999562Y-87661453D01*
X107904324Y-87709072D01*
X107856705Y-87756691D01*
X107809086Y-87851929D01*
X107809086Y-88090024D01*
X107856705Y-88185262D01*
X107904324Y-88232881D01*
X107999562Y-88280500D01*
X108285277Y-88280500D01*
X108380515Y-88232881D01*
X108428134Y-88185262D01*
X107190039Y-87280500D02*
X107094800Y-87280500D01*
X106999562Y-87328120D01*
X106951943Y-87375739D01*
X106904324Y-87470977D01*
X106856705Y-87661453D01*
X106856705Y-87899548D01*
X106904324Y-88090024D01*
X106951943Y-88185262D01*
X106999562Y-88232881D01*
X107094800Y-88280500D01*
X107190039Y-88280500D01*
X107285277Y-88232881D01*
X107332896Y-88185262D01*
X107380515Y-88090024D01*
X107428134Y-87899548D01*
X107428134Y-87661453D01*
X107380515Y-87470977D01*
X107332896Y-87375739D01*
X107285277Y-87328120D01*
X107190039Y-87280500D01*
X105999562Y-87280500D02*
X106190039Y-87280500D01*
X106285277Y-87328120D01*
X106332896Y-87375739D01*
X106428134Y-87518596D01*
X106475753Y-87709072D01*
X106475753Y-88090024D01*
X106428134Y-88185262D01*
X106380515Y-88232881D01*
X106285277Y-88280500D01*
X106094800Y-88280500D01*
X105999562Y-88232881D01*
X105951943Y-88185262D01*
X105904324Y-88090024D01*
X105904324Y-87851929D01*
X105951943Y-87756691D01*
X105999562Y-87709072D01*
X106094800Y-87661453D01*
X106285277Y-87661453D01*
X106380515Y-87709072D01*
X106428134Y-87756691D01*
X106475753Y-87851929D01*
X116089367Y-111275402D02*
X116136986Y-111323021D01*
X116279843Y-111370640D01*
X116375081Y-111370640D01*
X116517939Y-111323021D01*
X116613177Y-111227783D01*
X116660796Y-111132545D01*
X116708415Y-110942069D01*
X116708415Y-110799212D01*
X116660796Y-110608736D01*
X116613177Y-110513498D01*
X116517939Y-110418260D01*
X116375081Y-110370640D01*
X116279843Y-110370640D01*
X116136986Y-110418260D01*
X116089367Y-110465879D01*
X115232224Y-110703974D02*
X115232224Y-111370640D01*
X115470320Y-110323021D02*
X115708415Y-111037307D01*
X115089367Y-111037307D01*
X114517939Y-110370640D02*
X114422700Y-110370640D01*
X114327462Y-110418260D01*
X114279843Y-110465879D01*
X114232224Y-110561117D01*
X114184605Y-110751593D01*
X114184605Y-110989688D01*
X114232224Y-111180164D01*
X114279843Y-111275402D01*
X114327462Y-111323021D01*
X114422700Y-111370640D01*
X114517939Y-111370640D01*
X114613177Y-111323021D01*
X114660796Y-111275402D01*
X114708415Y-111180164D01*
X114756034Y-110989688D01*
X114756034Y-110751593D01*
X114708415Y-110561117D01*
X114660796Y-110465879D01*
X114613177Y-110418260D01*
X114517939Y-110370640D01*
X113851272Y-110370640D02*
X113232224Y-110370640D01*
X113565558Y-110751593D01*
X113422700Y-110751593D01*
X113327462Y-110799212D01*
X113279843Y-110846831D01*
X113232224Y-110942069D01*
X113232224Y-111180164D01*
X113279843Y-111275402D01*
X113327462Y-111323021D01*
X113422700Y-111370640D01*
X113708415Y-111370640D01*
X113803653Y-111323021D01*
X113851272Y-111275402D01*
X130773587Y-116916742D02*
X130821206Y-116964361D01*
X130964063Y-117011980D01*
X131059301Y-117011980D01*
X131202159Y-116964361D01*
X131297397Y-116869123D01*
X131345016Y-116773885D01*
X131392635Y-116583409D01*
X131392635Y-116440552D01*
X131345016Y-116250076D01*
X131297397Y-116154838D01*
X131202159Y-116059600D01*
X131059301Y-116011980D01*
X130964063Y-116011980D01*
X130821206Y-116059600D01*
X130773587Y-116107219D01*
X129916444Y-116345314D02*
X129916444Y-117011980D01*
X130154540Y-115964361D02*
X130392635Y-116678647D01*
X129773587Y-116678647D01*
X129202159Y-116011980D02*
X129106920Y-116011980D01*
X129011682Y-116059600D01*
X128964063Y-116107219D01*
X128916444Y-116202457D01*
X128868825Y-116392933D01*
X128868825Y-116631028D01*
X128916444Y-116821504D01*
X128964063Y-116916742D01*
X129011682Y-116964361D01*
X129106920Y-117011980D01*
X129202159Y-117011980D01*
X129297397Y-116964361D01*
X129345016Y-116916742D01*
X129392635Y-116821504D01*
X129440254Y-116631028D01*
X129440254Y-116392933D01*
X129392635Y-116202457D01*
X129345016Y-116107219D01*
X129297397Y-116059600D01*
X129202159Y-116011980D01*
X128535492Y-116011980D02*
X127868825Y-116011980D01*
X128297397Y-117011980D01*
X120112896Y-76414620D02*
X120112896Y-75414620D01*
X119874800Y-75414620D01*
X119731943Y-75462240D01*
X119636705Y-75557478D01*
X119589086Y-75652716D01*
X119541467Y-75843192D01*
X119541467Y-75986049D01*
X119589086Y-76176525D01*
X119636705Y-76271763D01*
X119731943Y-76367001D01*
X119874800Y-76414620D01*
X120112896Y-76414620D01*
X119208134Y-75414620D02*
X118589086Y-75414620D01*
X118922420Y-75795573D01*
X118779562Y-75795573D01*
X118684324Y-75843192D01*
X118636705Y-75890811D01*
X118589086Y-75986049D01*
X118589086Y-76224144D01*
X118636705Y-76319382D01*
X118684324Y-76367001D01*
X118779562Y-76414620D01*
X119065277Y-76414620D01*
X119160515Y-76367001D01*
X119208134Y-76319382D01*
X117970039Y-75414620D02*
X117874800Y-75414620D01*
X117779562Y-75462240D01*
X117731943Y-75509859D01*
X117684324Y-75605097D01*
X117636705Y-75795573D01*
X117636705Y-76033668D01*
X117684324Y-76224144D01*
X117731943Y-76319382D01*
X117779562Y-76367001D01*
X117874800Y-76414620D01*
X117970039Y-76414620D01*
X118065277Y-76367001D01*
X118112896Y-76319382D01*
X118160515Y-76224144D01*
X118208134Y-76033668D01*
X118208134Y-75795573D01*
X118160515Y-75605097D01*
X118112896Y-75509859D01*
X118065277Y-75462240D01*
X117970039Y-75414620D01*
X116684324Y-76414620D02*
X117255753Y-76414620D01*
X116970039Y-76414620D02*
X116970039Y-75414620D01*
X117065277Y-75557478D01*
X117160515Y-75652716D01*
X117255753Y-75700335D01*
X99604936Y-100166700D02*
X99604936Y-99166700D01*
X99366840Y-99166700D01*
X99223983Y-99214320D01*
X99128745Y-99309558D01*
X99081126Y-99404796D01*
X99033507Y-99595272D01*
X99033507Y-99738129D01*
X99081126Y-99928605D01*
X99128745Y-100023843D01*
X99223983Y-100119081D01*
X99366840Y-100166700D01*
X99604936Y-100166700D01*
X98128745Y-99166700D02*
X98604936Y-99166700D01*
X98652555Y-99642891D01*
X98604936Y-99595272D01*
X98509698Y-99547653D01*
X98271602Y-99547653D01*
X98176364Y-99595272D01*
X98128745Y-99642891D01*
X98081126Y-99738129D01*
X98081126Y-99976224D01*
X98128745Y-100071462D01*
X98176364Y-100119081D01*
X98271602Y-100166700D01*
X98509698Y-100166700D01*
X98604936Y-100119081D01*
X98652555Y-100071462D01*
X97462079Y-99166700D02*
X97366840Y-99166700D01*
X97271602Y-99214320D01*
X97223983Y-99261939D01*
X97176364Y-99357177D01*
X97128745Y-99547653D01*
X97128745Y-99785748D01*
X97176364Y-99976224D01*
X97223983Y-100071462D01*
X97271602Y-100119081D01*
X97366840Y-100166700D01*
X97462079Y-100166700D01*
X97557317Y-100119081D01*
X97604936Y-100071462D01*
X97652555Y-99976224D01*
X97700174Y-99785748D01*
X97700174Y-99547653D01*
X97652555Y-99357177D01*
X97604936Y-99261939D01*
X97557317Y-99214320D01*
X97462079Y-99166700D01*
X96176364Y-100166700D02*
X96747793Y-100166700D01*
X96462079Y-100166700D02*
X96462079Y-99166700D01*
X96557317Y-99309558D01*
X96652555Y-99404796D01*
X96747793Y-99452415D01*
X78825267Y-103100400D02*
X79158600Y-102624210D01*
X79396696Y-103100400D02*
X79396696Y-102100400D01*
X79015743Y-102100400D01*
X78920505Y-102148020D01*
X78872886Y-102195639D01*
X78825267Y-102290877D01*
X78825267Y-102433734D01*
X78872886Y-102528972D01*
X78920505Y-102576591D01*
X79015743Y-102624210D01*
X79396696Y-102624210D01*
X78444315Y-102195639D02*
X78396696Y-102148020D01*
X78301458Y-102100400D01*
X78063362Y-102100400D01*
X77968124Y-102148020D01*
X77920505Y-102195639D01*
X77872886Y-102290877D01*
X77872886Y-102386115D01*
X77920505Y-102528972D01*
X78491934Y-103100400D01*
X77872886Y-103100400D01*
X77253839Y-102100400D02*
X77158600Y-102100400D01*
X77063362Y-102148020D01*
X77015743Y-102195639D01*
X76968124Y-102290877D01*
X76920505Y-102481353D01*
X76920505Y-102719448D01*
X76968124Y-102909924D01*
X77015743Y-103005162D01*
X77063362Y-103052781D01*
X77158600Y-103100400D01*
X77253839Y-103100400D01*
X77349077Y-103052781D01*
X77396696Y-103005162D01*
X77444315Y-102909924D01*
X77491934Y-102719448D01*
X77491934Y-102481353D01*
X77444315Y-102290877D01*
X77396696Y-102195639D01*
X77349077Y-102148020D01*
X77253839Y-102100400D01*
X76587172Y-102100400D02*
X75968124Y-102100400D01*
X76301458Y-102481353D01*
X76158600Y-102481353D01*
X76063362Y-102528972D01*
X76015743Y-102576591D01*
X75968124Y-102671829D01*
X75968124Y-102909924D01*
X76015743Y-103005162D01*
X76063362Y-103052781D01*
X76158600Y-103100400D01*
X76444315Y-103100400D01*
X76539553Y-103052781D01*
X76587172Y-103005162D01*
X94588507Y-90870300D02*
X94921840Y-90394110D01*
X95159936Y-90870300D02*
X95159936Y-89870300D01*
X94778983Y-89870300D01*
X94683745Y-89917920D01*
X94636126Y-89965539D01*
X94588507Y-90060777D01*
X94588507Y-90203634D01*
X94636126Y-90298872D01*
X94683745Y-90346491D01*
X94778983Y-90394110D01*
X95159936Y-90394110D01*
X94207555Y-89965539D02*
X94159936Y-89917920D01*
X94064698Y-89870300D01*
X93826602Y-89870300D01*
X93731364Y-89917920D01*
X93683745Y-89965539D01*
X93636126Y-90060777D01*
X93636126Y-90156015D01*
X93683745Y-90298872D01*
X94255174Y-90870300D01*
X93636126Y-90870300D01*
X93017079Y-89870300D02*
X92921840Y-89870300D01*
X92826602Y-89917920D01*
X92778983Y-89965539D01*
X92731364Y-90060777D01*
X92683745Y-90251253D01*
X92683745Y-90489348D01*
X92731364Y-90679824D01*
X92778983Y-90775062D01*
X92826602Y-90822681D01*
X92921840Y-90870300D01*
X93017079Y-90870300D01*
X93112317Y-90822681D01*
X93159936Y-90775062D01*
X93207555Y-90679824D01*
X93255174Y-90489348D01*
X93255174Y-90251253D01*
X93207555Y-90060777D01*
X93159936Y-89965539D01*
X93112317Y-89917920D01*
X93017079Y-89870300D01*
X91826602Y-90203634D02*
X91826602Y-90870300D01*
X92064698Y-89822681D02*
X92302793Y-90536967D01*
X91683745Y-90536967D01*
X89232000Y-88624232D02*
X88755810Y-88290899D01*
X89232000Y-88052803D02*
X88232000Y-88052803D01*
X88232000Y-88433756D01*
X88279620Y-88528994D01*
X88327239Y-88576613D01*
X88422477Y-88624232D01*
X88565334Y-88624232D01*
X88660572Y-88576613D01*
X88708191Y-88528994D01*
X88755810Y-88433756D01*
X88755810Y-88052803D01*
X88327239Y-89005184D02*
X88279620Y-89052803D01*
X88232000Y-89148041D01*
X88232000Y-89386137D01*
X88279620Y-89481375D01*
X88327239Y-89528994D01*
X88422477Y-89576613D01*
X88517715Y-89576613D01*
X88660572Y-89528994D01*
X89232000Y-88957565D01*
X89232000Y-89576613D01*
X88232000Y-90195660D02*
X88232000Y-90290899D01*
X88279620Y-90386137D01*
X88327239Y-90433756D01*
X88422477Y-90481375D01*
X88612953Y-90528994D01*
X88851048Y-90528994D01*
X89041524Y-90481375D01*
X89136762Y-90433756D01*
X89184381Y-90386137D01*
X89232000Y-90290899D01*
X89232000Y-90195660D01*
X89184381Y-90100422D01*
X89136762Y-90052803D01*
X89041524Y-90005184D01*
X88851048Y-89957565D01*
X88612953Y-89957565D01*
X88422477Y-90005184D01*
X88327239Y-90052803D01*
X88279620Y-90100422D01*
X88232000Y-90195660D01*
X88232000Y-91433756D02*
X88232000Y-90957565D01*
X88708191Y-90909946D01*
X88660572Y-90957565D01*
X88612953Y-91052803D01*
X88612953Y-91290899D01*
X88660572Y-91386137D01*
X88708191Y-91433756D01*
X88803429Y-91481375D01*
X89041524Y-91481375D01*
X89136762Y-91433756D01*
X89184381Y-91386137D01*
X89232000Y-91290899D01*
X89232000Y-91052803D01*
X89184381Y-90957565D01*
X89136762Y-90909946D01*
X87029467Y-92670800D02*
X87362800Y-92194610D01*
X87600896Y-92670800D02*
X87600896Y-91670800D01*
X87219943Y-91670800D01*
X87124705Y-91718420D01*
X87077086Y-91766039D01*
X87029467Y-91861277D01*
X87029467Y-92004134D01*
X87077086Y-92099372D01*
X87124705Y-92146991D01*
X87219943Y-92194610D01*
X87600896Y-92194610D01*
X86648515Y-91766039D02*
X86600896Y-91718420D01*
X86505658Y-91670800D01*
X86267562Y-91670800D01*
X86172324Y-91718420D01*
X86124705Y-91766039D01*
X86077086Y-91861277D01*
X86077086Y-91956515D01*
X86124705Y-92099372D01*
X86696134Y-92670800D01*
X86077086Y-92670800D01*
X85458039Y-91670800D02*
X85362800Y-91670800D01*
X85267562Y-91718420D01*
X85219943Y-91766039D01*
X85172324Y-91861277D01*
X85124705Y-92051753D01*
X85124705Y-92289848D01*
X85172324Y-92480324D01*
X85219943Y-92575562D01*
X85267562Y-92623181D01*
X85362800Y-92670800D01*
X85458039Y-92670800D01*
X85553277Y-92623181D01*
X85600896Y-92575562D01*
X85648515Y-92480324D01*
X85696134Y-92289848D01*
X85696134Y-92051753D01*
X85648515Y-91861277D01*
X85600896Y-91766039D01*
X85553277Y-91718420D01*
X85458039Y-91670800D01*
X84267562Y-91670800D02*
X84458039Y-91670800D01*
X84553277Y-91718420D01*
X84600896Y-91766039D01*
X84696134Y-91908896D01*
X84743753Y-92099372D01*
X84743753Y-92480324D01*
X84696134Y-92575562D01*
X84648515Y-92623181D01*
X84553277Y-92670800D01*
X84362800Y-92670800D01*
X84267562Y-92623181D01*
X84219943Y-92575562D01*
X84172324Y-92480324D01*
X84172324Y-92242229D01*
X84219943Y-92146991D01*
X84267562Y-92099372D01*
X84362800Y-92051753D01*
X84553277Y-92051753D01*
X84648515Y-92099372D01*
X84696134Y-92146991D01*
X84743753Y-92242229D01*
X74080787Y-103087700D02*
X74414120Y-102611510D01*
X74652216Y-103087700D02*
X74652216Y-102087700D01*
X74271263Y-102087700D01*
X74176025Y-102135320D01*
X74128406Y-102182939D01*
X74080787Y-102278177D01*
X74080787Y-102421034D01*
X74128406Y-102516272D01*
X74176025Y-102563891D01*
X74271263Y-102611510D01*
X74652216Y-102611510D01*
X73699835Y-102182939D02*
X73652216Y-102135320D01*
X73556978Y-102087700D01*
X73318882Y-102087700D01*
X73223644Y-102135320D01*
X73176025Y-102182939D01*
X73128406Y-102278177D01*
X73128406Y-102373415D01*
X73176025Y-102516272D01*
X73747454Y-103087700D01*
X73128406Y-103087700D01*
X72509359Y-102087700D02*
X72414120Y-102087700D01*
X72318882Y-102135320D01*
X72271263Y-102182939D01*
X72223644Y-102278177D01*
X72176025Y-102468653D01*
X72176025Y-102706748D01*
X72223644Y-102897224D01*
X72271263Y-102992462D01*
X72318882Y-103040081D01*
X72414120Y-103087700D01*
X72509359Y-103087700D01*
X72604597Y-103040081D01*
X72652216Y-102992462D01*
X72699835Y-102897224D01*
X72747454Y-102706748D01*
X72747454Y-102468653D01*
X72699835Y-102278177D01*
X72652216Y-102182939D01*
X72604597Y-102135320D01*
X72509359Y-102087700D01*
X71842692Y-102087700D02*
X71176025Y-102087700D01*
X71604597Y-103087700D01*
X124794187Y-70125580D02*
X125127520Y-69649390D01*
X125365616Y-70125580D02*
X125365616Y-69125580D01*
X124984663Y-69125580D01*
X124889425Y-69173200D01*
X124841806Y-69220819D01*
X124794187Y-69316057D01*
X124794187Y-69458914D01*
X124841806Y-69554152D01*
X124889425Y-69601771D01*
X124984663Y-69649390D01*
X125365616Y-69649390D01*
X124460854Y-69125580D02*
X123841806Y-69125580D01*
X124175140Y-69506533D01*
X124032282Y-69506533D01*
X123937044Y-69554152D01*
X123889425Y-69601771D01*
X123841806Y-69697009D01*
X123841806Y-69935104D01*
X123889425Y-70030342D01*
X123937044Y-70077961D01*
X124032282Y-70125580D01*
X124317997Y-70125580D01*
X124413235Y-70077961D01*
X124460854Y-70030342D01*
X123222759Y-69125580D02*
X123127520Y-69125580D01*
X123032282Y-69173200D01*
X122984663Y-69220819D01*
X122937044Y-69316057D01*
X122889425Y-69506533D01*
X122889425Y-69744628D01*
X122937044Y-69935104D01*
X122984663Y-70030342D01*
X123032282Y-70077961D01*
X123127520Y-70125580D01*
X123222759Y-70125580D01*
X123317997Y-70077961D01*
X123365616Y-70030342D01*
X123413235Y-69935104D01*
X123460854Y-69744628D01*
X123460854Y-69506533D01*
X123413235Y-69316057D01*
X123365616Y-69220819D01*
X123317997Y-69173200D01*
X123222759Y-69125580D01*
X122556092Y-69125580D02*
X121889425Y-69125580D01*
X122317997Y-70125580D01*
X124725367Y-77098420D02*
X125058700Y-76622230D01*
X125296796Y-77098420D02*
X125296796Y-76098420D01*
X124915843Y-76098420D01*
X124820605Y-76146040D01*
X124772986Y-76193659D01*
X124725367Y-76288897D01*
X124725367Y-76431754D01*
X124772986Y-76526992D01*
X124820605Y-76574611D01*
X124915843Y-76622230D01*
X125296796Y-76622230D01*
X124392034Y-76098420D02*
X123772986Y-76098420D01*
X124106320Y-76479373D01*
X123963462Y-76479373D01*
X123868224Y-76526992D01*
X123820605Y-76574611D01*
X123772986Y-76669849D01*
X123772986Y-76907944D01*
X123820605Y-77003182D01*
X123868224Y-77050801D01*
X123963462Y-77098420D01*
X124249177Y-77098420D01*
X124344415Y-77050801D01*
X124392034Y-77003182D01*
X123153939Y-76098420D02*
X123058700Y-76098420D01*
X122963462Y-76146040D01*
X122915843Y-76193659D01*
X122868224Y-76288897D01*
X122820605Y-76479373D01*
X122820605Y-76717468D01*
X122868224Y-76907944D01*
X122915843Y-77003182D01*
X122963462Y-77050801D01*
X123058700Y-77098420D01*
X123153939Y-77098420D01*
X123249177Y-77050801D01*
X123296796Y-77003182D01*
X123344415Y-76907944D01*
X123392034Y-76717468D01*
X123392034Y-76479373D01*
X123344415Y-76288897D01*
X123296796Y-76193659D01*
X123249177Y-76146040D01*
X123153939Y-76098420D01*
X122249177Y-76526992D02*
X122344415Y-76479373D01*
X122392034Y-76431754D01*
X122439653Y-76336516D01*
X122439653Y-76288897D01*
X122392034Y-76193659D01*
X122344415Y-76146040D01*
X122249177Y-76098420D01*
X122058700Y-76098420D01*
X121963462Y-76146040D01*
X121915843Y-76193659D01*
X121868224Y-76288897D01*
X121868224Y-76336516D01*
X121915843Y-76431754D01*
X121963462Y-76479373D01*
X122058700Y-76526992D01*
X122249177Y-76526992D01*
X122344415Y-76574611D01*
X122392034Y-76622230D01*
X122439653Y-76717468D01*
X122439653Y-76907944D01*
X122392034Y-77003182D01*
X122344415Y-77050801D01*
X122249177Y-77098420D01*
X122058700Y-77098420D01*
X121963462Y-77050801D01*
X121915843Y-77003182D01*
X121868224Y-76907944D01*
X121868224Y-76717468D01*
X121915843Y-76622230D01*
X121963462Y-76574611D01*
X122058700Y-76526992D01*
X128279945Y-100051340D02*
X128279945Y-100860864D01*
X128232326Y-100956102D01*
X128184707Y-101003721D01*
X128089469Y-101051340D01*
X127898993Y-101051340D01*
X127803755Y-101003721D01*
X127756136Y-100956102D01*
X127708517Y-100860864D01*
X127708517Y-100051340D01*
X127327564Y-100051340D02*
X126708517Y-100051340D01*
X127041850Y-100432293D01*
X126898993Y-100432293D01*
X126803755Y-100479912D01*
X126756136Y-100527531D01*
X126708517Y-100622769D01*
X126708517Y-100860864D01*
X126756136Y-100956102D01*
X126803755Y-101003721D01*
X126898993Y-101051340D01*
X127184707Y-101051340D01*
X127279945Y-101003721D01*
X127327564Y-100956102D01*
X126089469Y-100051340D02*
X125994231Y-100051340D01*
X125898993Y-100098960D01*
X125851374Y-100146579D01*
X125803755Y-100241817D01*
X125756136Y-100432293D01*
X125756136Y-100670388D01*
X125803755Y-100860864D01*
X125851374Y-100956102D01*
X125898993Y-101003721D01*
X125994231Y-101051340D01*
X126089469Y-101051340D01*
X126184707Y-101003721D01*
X126232326Y-100956102D01*
X126279945Y-100860864D01*
X126327564Y-100670388D01*
X126327564Y-100432293D01*
X126279945Y-100241817D01*
X126232326Y-100146579D01*
X126184707Y-100098960D01*
X126089469Y-100051340D01*
X125375183Y-100146579D02*
X125327564Y-100098960D01*
X125232326Y-100051340D01*
X124994231Y-100051340D01*
X124898993Y-100098960D01*
X124851374Y-100146579D01*
X124803755Y-100241817D01*
X124803755Y-100337055D01*
X124851374Y-100479912D01*
X125422802Y-101051340D01*
X124803755Y-101051340D01*
X120477250Y-90560068D02*
X120953440Y-90560068D01*
X119953440Y-90226735D02*
X120477250Y-90560068D01*
X119953440Y-90893401D01*
X119953440Y-91131497D02*
X119953440Y-91750544D01*
X120334393Y-91417211D01*
X120334393Y-91560068D01*
X120382012Y-91655306D01*
X120429631Y-91702925D01*
X120524869Y-91750544D01*
X120762964Y-91750544D01*
X120858202Y-91702925D01*
X120905821Y-91655306D01*
X120953440Y-91560068D01*
X120953440Y-91274354D01*
X120905821Y-91179116D01*
X120858202Y-91131497D01*
X119953440Y-92369592D02*
X119953440Y-92464830D01*
X120001060Y-92560068D01*
X120048679Y-92607687D01*
X120143917Y-92655306D01*
X120334393Y-92702925D01*
X120572488Y-92702925D01*
X120762964Y-92655306D01*
X120858202Y-92607687D01*
X120905821Y-92560068D01*
X120953440Y-92464830D01*
X120953440Y-92369592D01*
X120905821Y-92274354D01*
X120858202Y-92226735D01*
X120762964Y-92179116D01*
X120572488Y-92131497D01*
X120334393Y-92131497D01*
X120143917Y-92179116D01*
X120048679Y-92226735D01*
X120001060Y-92274354D01*
X119953440Y-92369592D01*
X120953440Y-93655306D02*
X120953440Y-93083878D01*
X120953440Y-93369592D02*
X119953440Y-93369592D01*
X120096298Y-93274354D01*
X120191536Y-93179116D01*
X120239155Y-93083878D01*
M02*
