G04 #@! TF.GenerationSoftware,KiCad,Pcbnew,(5.1.6)-1*
G04 #@! TF.CreationDate,2020-10-15T22:30:15-04:00*
G04 #@! TF.ProjectId,electronique_drone,656c6563-7472-46f6-9e69-7175655f6472,3*
G04 #@! TF.SameCoordinates,Original*
G04 #@! TF.FileFunction,Legend,Top*
G04 #@! TF.FilePolarity,Positive*
%FSLAX46Y46*%
G04 Gerber Fmt 4.6, Leading zero omitted, Abs format (unit mm)*
G04 Created by KiCad (PCBNEW (5.1.6)-1) date 2020-10-15 22:30:15*
%MOMM*%
%LPD*%
G01*
G04 APERTURE LIST*
%ADD10C,0.150000*%
%ADD11C,0.120000*%
%ADD12C,0.152400*%
G04 APERTURE END LIST*
D10*
X79490680Y-120102261D02*
X79633537Y-120149880D01*
X79871632Y-120149880D01*
X79966870Y-120102261D01*
X80014489Y-120054642D01*
X80062108Y-119959404D01*
X80062108Y-119864166D01*
X80014489Y-119768928D01*
X79966870Y-119721309D01*
X79871632Y-119673690D01*
X79681156Y-119626071D01*
X79585918Y-119578452D01*
X79538299Y-119530833D01*
X79490680Y-119435595D01*
X79490680Y-119340357D01*
X79538299Y-119245119D01*
X79585918Y-119197500D01*
X79681156Y-119149880D01*
X79919251Y-119149880D01*
X80062108Y-119197500D01*
X80871632Y-120102261D02*
X80776394Y-120149880D01*
X80585918Y-120149880D01*
X80490680Y-120102261D01*
X80443060Y-120007023D01*
X80443060Y-119626071D01*
X80490680Y-119530833D01*
X80585918Y-119483214D01*
X80776394Y-119483214D01*
X80871632Y-119530833D01*
X80919251Y-119626071D01*
X80919251Y-119721309D01*
X80443060Y-119816547D01*
X81300203Y-120102261D02*
X81395441Y-120149880D01*
X81585918Y-120149880D01*
X81681156Y-120102261D01*
X81728775Y-120007023D01*
X81728775Y-119959404D01*
X81681156Y-119864166D01*
X81585918Y-119816547D01*
X81443060Y-119816547D01*
X81347822Y-119768928D01*
X81300203Y-119673690D01*
X81300203Y-119626071D01*
X81347822Y-119530833D01*
X81443060Y-119483214D01*
X81585918Y-119483214D01*
X81681156Y-119530833D01*
X82109727Y-120102261D02*
X82204965Y-120149880D01*
X82395441Y-120149880D01*
X82490680Y-120102261D01*
X82538299Y-120007023D01*
X82538299Y-119959404D01*
X82490680Y-119864166D01*
X82395441Y-119816547D01*
X82252584Y-119816547D01*
X82157346Y-119768928D01*
X82109727Y-119673690D01*
X82109727Y-119626071D01*
X82157346Y-119530833D01*
X82252584Y-119483214D01*
X82395441Y-119483214D01*
X82490680Y-119530833D01*
X82966870Y-120149880D02*
X82966870Y-119483214D01*
X82966870Y-119149880D02*
X82919251Y-119197500D01*
X82966870Y-119245119D01*
X83014489Y-119197500D01*
X82966870Y-119149880D01*
X82966870Y-119245119D01*
X83585918Y-120149880D02*
X83490680Y-120102261D01*
X83443060Y-120054642D01*
X83395441Y-119959404D01*
X83395441Y-119673690D01*
X83443060Y-119578452D01*
X83490680Y-119530833D01*
X83585918Y-119483214D01*
X83728775Y-119483214D01*
X83824013Y-119530833D01*
X83871632Y-119578452D01*
X83919251Y-119673690D01*
X83919251Y-119959404D01*
X83871632Y-120054642D01*
X83824013Y-120102261D01*
X83728775Y-120149880D01*
X83585918Y-120149880D01*
X84347822Y-119483214D02*
X84347822Y-120149880D01*
X84347822Y-119578452D02*
X84395441Y-119530833D01*
X84490680Y-119483214D01*
X84633537Y-119483214D01*
X84728775Y-119530833D01*
X84776394Y-119626071D01*
X84776394Y-120149880D01*
X85966870Y-119864166D02*
X86443060Y-119864166D01*
X85871632Y-120149880D02*
X86204965Y-119149880D01*
X86538299Y-120149880D01*
X87300203Y-119483214D02*
X87300203Y-120149880D01*
X86871632Y-119483214D02*
X86871632Y-120007023D01*
X86919251Y-120102261D01*
X87014489Y-120149880D01*
X87157346Y-120149880D01*
X87252584Y-120102261D01*
X87300203Y-120054642D01*
X87633537Y-119483214D02*
X88014489Y-119483214D01*
X87776394Y-119149880D02*
X87776394Y-120007023D01*
X87824013Y-120102261D01*
X87919251Y-120149880D01*
X88014489Y-120149880D01*
X88490680Y-120149880D02*
X88395441Y-120102261D01*
X88347822Y-120054642D01*
X88300203Y-119959404D01*
X88300203Y-119673690D01*
X88347822Y-119578452D01*
X88395441Y-119530833D01*
X88490680Y-119483214D01*
X88633537Y-119483214D01*
X88728775Y-119530833D01*
X88776394Y-119578452D01*
X88824013Y-119673690D01*
X88824013Y-119959404D01*
X88776394Y-120054642D01*
X88728775Y-120102261D01*
X88633537Y-120149880D01*
X88490680Y-120149880D01*
X89252584Y-120149880D02*
X89252584Y-119483214D01*
X89252584Y-119578452D02*
X89300203Y-119530833D01*
X89395441Y-119483214D01*
X89538299Y-119483214D01*
X89633537Y-119530833D01*
X89681156Y-119626071D01*
X89681156Y-120149880D01*
X89681156Y-119626071D02*
X89728775Y-119530833D01*
X89824013Y-119483214D01*
X89966870Y-119483214D01*
X90062108Y-119530833D01*
X90109727Y-119626071D01*
X90109727Y-120149880D01*
X90585918Y-119483214D02*
X90585918Y-120149880D01*
X90585918Y-119578452D02*
X90633537Y-119530833D01*
X90728775Y-119483214D01*
X90871632Y-119483214D01*
X90966870Y-119530833D01*
X91014489Y-119626071D01*
X91014489Y-120149880D01*
X91871632Y-120102261D02*
X91776394Y-120149880D01*
X91585918Y-120149880D01*
X91490680Y-120102261D01*
X91443060Y-120007023D01*
X91443060Y-119626071D01*
X91490680Y-119530833D01*
X91585918Y-119483214D01*
X91776394Y-119483214D01*
X91871632Y-119530833D01*
X91919251Y-119626071D01*
X91919251Y-119721309D01*
X91443060Y-119816547D01*
X93062108Y-119245119D02*
X93109727Y-119197500D01*
X93204965Y-119149880D01*
X93443060Y-119149880D01*
X93538299Y-119197500D01*
X93585918Y-119245119D01*
X93633537Y-119340357D01*
X93633537Y-119435595D01*
X93585918Y-119578452D01*
X93014489Y-120149880D01*
X93633537Y-120149880D01*
X94252584Y-119149880D02*
X94347822Y-119149880D01*
X94443060Y-119197500D01*
X94490680Y-119245119D01*
X94538299Y-119340357D01*
X94585918Y-119530833D01*
X94585918Y-119768928D01*
X94538299Y-119959404D01*
X94490680Y-120054642D01*
X94443060Y-120102261D01*
X94347822Y-120149880D01*
X94252584Y-120149880D01*
X94157346Y-120102261D01*
X94109727Y-120054642D01*
X94062108Y-119959404D01*
X94014489Y-119768928D01*
X94014489Y-119530833D01*
X94062108Y-119340357D01*
X94109727Y-119245119D01*
X94157346Y-119197500D01*
X94252584Y-119149880D01*
X94966870Y-119245119D02*
X95014489Y-119197500D01*
X95109727Y-119149880D01*
X95347822Y-119149880D01*
X95443060Y-119197500D01*
X95490680Y-119245119D01*
X95538299Y-119340357D01*
X95538299Y-119435595D01*
X95490680Y-119578452D01*
X94919251Y-120149880D01*
X95538299Y-120149880D01*
X96157346Y-119149880D02*
X96252584Y-119149880D01*
X96347822Y-119197500D01*
X96395441Y-119245119D01*
X96443060Y-119340357D01*
X96490680Y-119530833D01*
X96490680Y-119768928D01*
X96443060Y-119959404D01*
X96395441Y-120054642D01*
X96347822Y-120102261D01*
X96252584Y-120149880D01*
X96157346Y-120149880D01*
X96062108Y-120102261D01*
X96014489Y-120054642D01*
X95966870Y-119959404D01*
X95919251Y-119768928D01*
X95919251Y-119530833D01*
X95966870Y-119340357D01*
X96014489Y-119245119D01*
X96062108Y-119197500D01*
X96157346Y-119149880D01*
X74201972Y-65546931D02*
X73868639Y-65546931D01*
X73868639Y-66070740D02*
X73868639Y-65070740D01*
X74344829Y-65070740D01*
X74725781Y-66070740D02*
X74725781Y-65404074D01*
X74725781Y-65594550D02*
X74773400Y-65499312D01*
X74821020Y-65451693D01*
X74916258Y-65404074D01*
X75011496Y-65404074D01*
X75773400Y-66070740D02*
X75773400Y-65546931D01*
X75725781Y-65451693D01*
X75630543Y-65404074D01*
X75440067Y-65404074D01*
X75344829Y-65451693D01*
X75773400Y-66023121D02*
X75678162Y-66070740D01*
X75440067Y-66070740D01*
X75344829Y-66023121D01*
X75297210Y-65927883D01*
X75297210Y-65832645D01*
X75344829Y-65737407D01*
X75440067Y-65689788D01*
X75678162Y-65689788D01*
X75773400Y-65642169D01*
X76249591Y-65404074D02*
X76249591Y-66070740D01*
X76249591Y-65499312D02*
X76297210Y-65451693D01*
X76392448Y-65404074D01*
X76535305Y-65404074D01*
X76630543Y-65451693D01*
X76678162Y-65546931D01*
X76678162Y-66070740D01*
X77582924Y-66023121D02*
X77487686Y-66070740D01*
X77297210Y-66070740D01*
X77201972Y-66023121D01*
X77154353Y-65975502D01*
X77106734Y-65880264D01*
X77106734Y-65594550D01*
X77154353Y-65499312D01*
X77201972Y-65451693D01*
X77297210Y-65404074D01*
X77487686Y-65404074D01*
X77582924Y-65451693D01*
X77392448Y-66118360D02*
X77487686Y-66165979D01*
X77535305Y-66261217D01*
X77487686Y-66356455D01*
X77392448Y-66404074D01*
X77249591Y-66404074D01*
X78154353Y-66070740D02*
X78059115Y-66023121D01*
X78011496Y-65975502D01*
X77963877Y-65880264D01*
X77963877Y-65594550D01*
X78011496Y-65499312D01*
X78059115Y-65451693D01*
X78154353Y-65404074D01*
X78297210Y-65404074D01*
X78392448Y-65451693D01*
X78440067Y-65499312D01*
X78487686Y-65594550D01*
X78487686Y-65880264D01*
X78440067Y-65975502D01*
X78392448Y-66023121D01*
X78297210Y-66070740D01*
X78154353Y-66070740D01*
X78916258Y-66070740D02*
X78916258Y-65404074D01*
X78916258Y-65070740D02*
X78868639Y-65118360D01*
X78916258Y-65165979D01*
X78963877Y-65118360D01*
X78916258Y-65070740D01*
X78916258Y-65165979D01*
X79344829Y-66023121D02*
X79440067Y-66070740D01*
X79630543Y-66070740D01*
X79725781Y-66023121D01*
X79773400Y-65927883D01*
X79773400Y-65880264D01*
X79725781Y-65785026D01*
X79630543Y-65737407D01*
X79487686Y-65737407D01*
X79392448Y-65689788D01*
X79344829Y-65594550D01*
X79344829Y-65546931D01*
X79392448Y-65451693D01*
X79487686Y-65404074D01*
X79630543Y-65404074D01*
X79725781Y-65451693D01*
X80916258Y-65785026D02*
X81392448Y-65785026D01*
X80821020Y-66070740D02*
X81154353Y-65070740D01*
X81487686Y-66070740D01*
X81821020Y-66070740D02*
X81821020Y-65404074D01*
X81821020Y-65594550D02*
X81868639Y-65499312D01*
X81916258Y-65451693D01*
X82011496Y-65404074D01*
X82106734Y-65404074D01*
X82868639Y-66023121D02*
X82773400Y-66070740D01*
X82582924Y-66070740D01*
X82487686Y-66023121D01*
X82440067Y-65975502D01*
X82392448Y-65880264D01*
X82392448Y-65594550D01*
X82440067Y-65499312D01*
X82487686Y-65451693D01*
X82582924Y-65404074D01*
X82773400Y-65404074D01*
X82868639Y-65451693D01*
X83297210Y-66070740D02*
X83297210Y-65070740D01*
X83725781Y-66070740D02*
X83725781Y-65546931D01*
X83678162Y-65451693D01*
X83582924Y-65404074D01*
X83440067Y-65404074D01*
X83344829Y-65451693D01*
X83297210Y-65499312D01*
X84630543Y-66070740D02*
X84630543Y-65546931D01*
X84582924Y-65451693D01*
X84487686Y-65404074D01*
X84297210Y-65404074D01*
X84201972Y-65451693D01*
X84630543Y-66023121D02*
X84535305Y-66070740D01*
X84297210Y-66070740D01*
X84201972Y-66023121D01*
X84154353Y-65927883D01*
X84154353Y-65832645D01*
X84201972Y-65737407D01*
X84297210Y-65689788D01*
X84535305Y-65689788D01*
X84630543Y-65642169D01*
X85106734Y-66070740D02*
X85106734Y-65404074D01*
X85106734Y-65499312D02*
X85154353Y-65451693D01*
X85249591Y-65404074D01*
X85392448Y-65404074D01*
X85487686Y-65451693D01*
X85535305Y-65546931D01*
X85535305Y-66070740D01*
X85535305Y-65546931D02*
X85582924Y-65451693D01*
X85678162Y-65404074D01*
X85821020Y-65404074D01*
X85916258Y-65451693D01*
X85963877Y-65546931D01*
X85963877Y-66070740D01*
X86440067Y-66070740D02*
X86440067Y-65070740D01*
X86440067Y-65451693D02*
X86535305Y-65404074D01*
X86725781Y-65404074D01*
X86821020Y-65451693D01*
X86868639Y-65499312D01*
X86916258Y-65594550D01*
X86916258Y-65880264D01*
X86868639Y-65975502D01*
X86821020Y-66023121D01*
X86725781Y-66070740D01*
X86535305Y-66070740D01*
X86440067Y-66023121D01*
X87773400Y-66070740D02*
X87773400Y-65546931D01*
X87725781Y-65451693D01*
X87630543Y-65404074D01*
X87440067Y-65404074D01*
X87344829Y-65451693D01*
X87773400Y-66023121D02*
X87678162Y-66070740D01*
X87440067Y-66070740D01*
X87344829Y-66023121D01*
X87297210Y-65927883D01*
X87297210Y-65832645D01*
X87344829Y-65737407D01*
X87440067Y-65689788D01*
X87678162Y-65689788D01*
X87773400Y-65642169D01*
X88678162Y-65404074D02*
X88678162Y-66070740D01*
X88249591Y-65404074D02*
X88249591Y-65927883D01*
X88297210Y-66023121D01*
X88392448Y-66070740D01*
X88535305Y-66070740D01*
X88630543Y-66023121D01*
X88678162Y-65975502D01*
X89297210Y-66070740D02*
X89201972Y-66023121D01*
X89154353Y-65927883D01*
X89154353Y-65070740D01*
X89535305Y-65404074D02*
X89916258Y-65404074D01*
X89678162Y-65070740D02*
X89678162Y-65927883D01*
X89725781Y-66023121D01*
X89821020Y-66070740D01*
X89916258Y-66070740D01*
X74312544Y-68303400D02*
X74312544Y-67303400D01*
X74693497Y-67303400D01*
X74788735Y-67351020D01*
X74836354Y-67398639D01*
X74883973Y-67493877D01*
X74883973Y-67636734D01*
X74836354Y-67731972D01*
X74788735Y-67779591D01*
X74693497Y-67827210D01*
X74312544Y-67827210D01*
X75312544Y-68303400D02*
X75312544Y-67636734D01*
X75312544Y-67827210D02*
X75360163Y-67731972D01*
X75407782Y-67684353D01*
X75503020Y-67636734D01*
X75598259Y-67636734D01*
X76074449Y-68303400D02*
X75979211Y-68255781D01*
X75931592Y-68208162D01*
X75883973Y-68112924D01*
X75883973Y-67827210D01*
X75931592Y-67731972D01*
X75979211Y-67684353D01*
X76074449Y-67636734D01*
X76217306Y-67636734D01*
X76312544Y-67684353D01*
X76360163Y-67731972D01*
X76407782Y-67827210D01*
X76407782Y-68112924D01*
X76360163Y-68208162D01*
X76312544Y-68255781D01*
X76217306Y-68303400D01*
X76074449Y-68303400D01*
X76836354Y-67636734D02*
X76836354Y-68493877D01*
X76788735Y-68589115D01*
X76693497Y-68636734D01*
X76645878Y-68636734D01*
X76836354Y-67303400D02*
X76788735Y-67351020D01*
X76836354Y-67398639D01*
X76883973Y-67351020D01*
X76836354Y-67303400D01*
X76836354Y-67398639D01*
X77693497Y-68255781D02*
X77598259Y-68303400D01*
X77407782Y-68303400D01*
X77312544Y-68255781D01*
X77264925Y-68160543D01*
X77264925Y-67779591D01*
X77312544Y-67684353D01*
X77407782Y-67636734D01*
X77598259Y-67636734D01*
X77693497Y-67684353D01*
X77741116Y-67779591D01*
X77741116Y-67874829D01*
X77264925Y-67970067D01*
X78026830Y-67636734D02*
X78407782Y-67636734D01*
X78169687Y-67303400D02*
X78169687Y-68160543D01*
X78217306Y-68255781D01*
X78312544Y-68303400D01*
X78407782Y-68303400D01*
X78503020Y-68398639D02*
X79264925Y-68398639D01*
X79503020Y-68303400D02*
X79503020Y-67303400D01*
X79741116Y-67303400D01*
X79883973Y-67351020D01*
X79979211Y-67446258D01*
X80026830Y-67541496D01*
X80074449Y-67731972D01*
X80074449Y-67874829D01*
X80026830Y-68065305D01*
X79979211Y-68160543D01*
X79883973Y-68255781D01*
X79741116Y-68303400D01*
X79503020Y-68303400D01*
X80503020Y-68303400D02*
X80503020Y-67636734D01*
X80503020Y-67827210D02*
X80550640Y-67731972D01*
X80598259Y-67684353D01*
X80693497Y-67636734D01*
X80788735Y-67636734D01*
X81264925Y-68303400D02*
X81169687Y-68255781D01*
X81122068Y-68208162D01*
X81074449Y-68112924D01*
X81074449Y-67827210D01*
X81122068Y-67731972D01*
X81169687Y-67684353D01*
X81264925Y-67636734D01*
X81407782Y-67636734D01*
X81503020Y-67684353D01*
X81550640Y-67731972D01*
X81598259Y-67827210D01*
X81598259Y-68112924D01*
X81550640Y-68208162D01*
X81503020Y-68255781D01*
X81407782Y-68303400D01*
X81264925Y-68303400D01*
X82026830Y-67636734D02*
X82026830Y-68303400D01*
X82026830Y-67731972D02*
X82074449Y-67684353D01*
X82169687Y-67636734D01*
X82312544Y-67636734D01*
X82407782Y-67684353D01*
X82455401Y-67779591D01*
X82455401Y-68303400D01*
X83312544Y-68255781D02*
X83217306Y-68303400D01*
X83026830Y-68303400D01*
X82931592Y-68255781D01*
X82883973Y-68160543D01*
X82883973Y-67779591D01*
X82931592Y-67684353D01*
X83026830Y-67636734D01*
X83217306Y-67636734D01*
X83312544Y-67684353D01*
X83360163Y-67779591D01*
X83360163Y-67874829D01*
X82883973Y-67970067D01*
X84455401Y-67636734D02*
X84693497Y-68303400D01*
X84931592Y-67636734D01*
X85217306Y-67303400D02*
X85836354Y-67303400D01*
X85503020Y-67684353D01*
X85645878Y-67684353D01*
X85741116Y-67731972D01*
X85788735Y-67779591D01*
X85836354Y-67874829D01*
X85836354Y-68112924D01*
X85788735Y-68208162D01*
X85741116Y-68255781D01*
X85645878Y-68303400D01*
X85360163Y-68303400D01*
X85264925Y-68255781D01*
X85217306Y-68208162D01*
X104094375Y-102390820D02*
X103999137Y-102343200D01*
X103856280Y-102343200D01*
X103713422Y-102390820D01*
X103618184Y-102486058D01*
X103570565Y-102581296D01*
X103522946Y-102771772D01*
X103522946Y-102914629D01*
X103570565Y-103105105D01*
X103618184Y-103200343D01*
X103713422Y-103295581D01*
X103856280Y-103343200D01*
X103951518Y-103343200D01*
X104094375Y-103295581D01*
X104141994Y-103247962D01*
X104141994Y-102914629D01*
X103951518Y-102914629D01*
X104570565Y-103343200D02*
X104570565Y-102343200D01*
X105141994Y-103343200D01*
X105141994Y-102343200D01*
X105618184Y-103343200D02*
X105618184Y-102343200D01*
X105856280Y-102343200D01*
X105999137Y-102390820D01*
X106094375Y-102486058D01*
X106141994Y-102581296D01*
X106189613Y-102771772D01*
X106189613Y-102914629D01*
X106141994Y-103105105D01*
X106094375Y-103200343D01*
X105999137Y-103295581D01*
X105856280Y-103343200D01*
X105618184Y-103343200D01*
X70515551Y-107881680D02*
X70706027Y-107881680D01*
X70801265Y-107834061D01*
X70848884Y-107786442D01*
X70944122Y-107643585D01*
X70991741Y-107453109D01*
X70991741Y-107072157D01*
X70944122Y-106976919D01*
X70896503Y-106929300D01*
X70801265Y-106881680D01*
X70610789Y-106881680D01*
X70515551Y-106929300D01*
X70467932Y-106976919D01*
X70420313Y-107072157D01*
X70420313Y-107310252D01*
X70467932Y-107405490D01*
X70515551Y-107453109D01*
X70610789Y-107500728D01*
X70801265Y-107500728D01*
X70896503Y-107453109D01*
X70944122Y-107405490D01*
X70991741Y-107310252D01*
X71325075Y-107215014D02*
X71563170Y-107881680D01*
X71801265Y-107215014D01*
X107162695Y-83736560D02*
X107067457Y-83688940D01*
X106924600Y-83688940D01*
X106781742Y-83736560D01*
X106686504Y-83831798D01*
X106638885Y-83927036D01*
X106591266Y-84117512D01*
X106591266Y-84260369D01*
X106638885Y-84450845D01*
X106686504Y-84546083D01*
X106781742Y-84641321D01*
X106924600Y-84688940D01*
X107019838Y-84688940D01*
X107162695Y-84641321D01*
X107210314Y-84593702D01*
X107210314Y-84260369D01*
X107019838Y-84260369D01*
X107638885Y-84688940D02*
X107638885Y-83688940D01*
X108210314Y-84688940D01*
X108210314Y-83688940D01*
X108686504Y-84688940D02*
X108686504Y-83688940D01*
X108924600Y-83688940D01*
X109067457Y-83736560D01*
X109162695Y-83831798D01*
X109210314Y-83927036D01*
X109257933Y-84117512D01*
X109257933Y-84260369D01*
X109210314Y-84450845D01*
X109162695Y-84546083D01*
X109067457Y-84641321D01*
X108924600Y-84688940D01*
X108686504Y-84688940D01*
X107532822Y-78332080D02*
X107056632Y-78332080D01*
X107009013Y-78808271D01*
X107056632Y-78760652D01*
X107151870Y-78713033D01*
X107389965Y-78713033D01*
X107485203Y-78760652D01*
X107532822Y-78808271D01*
X107580441Y-78903509D01*
X107580441Y-79141604D01*
X107532822Y-79236842D01*
X107485203Y-79284461D01*
X107389965Y-79332080D01*
X107151870Y-79332080D01*
X107056632Y-79284461D01*
X107009013Y-79236842D01*
X107913775Y-78665414D02*
X108151870Y-79332080D01*
X108389965Y-78665414D01*
X102379329Y-77155300D02*
X102379329Y-76155300D01*
X103426948Y-77060062D02*
X103379329Y-77107681D01*
X103236472Y-77155300D01*
X103141234Y-77155300D01*
X102998377Y-77107681D01*
X102903139Y-77012443D01*
X102855520Y-76917205D01*
X102807900Y-76726729D01*
X102807900Y-76583872D01*
X102855520Y-76393396D01*
X102903139Y-76298158D01*
X102998377Y-76202920D01*
X103141234Y-76155300D01*
X103236472Y-76155300D01*
X103379329Y-76202920D01*
X103426948Y-76250539D01*
X103807900Y-77107681D02*
X103950758Y-77155300D01*
X104188853Y-77155300D01*
X104284091Y-77107681D01*
X104331710Y-77060062D01*
X104379329Y-76964824D01*
X104379329Y-76869586D01*
X104331710Y-76774348D01*
X104284091Y-76726729D01*
X104188853Y-76679110D01*
X103998377Y-76631491D01*
X103903139Y-76583872D01*
X103855520Y-76536253D01*
X103807900Y-76441015D01*
X103807900Y-76345777D01*
X103855520Y-76250539D01*
X103903139Y-76202920D01*
X103998377Y-76155300D01*
X104236472Y-76155300D01*
X104379329Y-76202920D01*
X104807900Y-77155300D02*
X104807900Y-76155300D01*
X105188853Y-76155300D01*
X105284091Y-76202920D01*
X105331710Y-76250539D01*
X105379329Y-76345777D01*
X105379329Y-76488634D01*
X105331710Y-76583872D01*
X105284091Y-76631491D01*
X105188853Y-76679110D01*
X104807900Y-76679110D01*
X73941988Y-116263111D02*
X74275321Y-116263111D01*
X74418179Y-116786920D02*
X73941988Y-116786920D01*
X73941988Y-115786920D01*
X74418179Y-115786920D01*
X74799131Y-116739301D02*
X74941988Y-116786920D01*
X75180083Y-116786920D01*
X75275321Y-116739301D01*
X75322940Y-116691682D01*
X75370560Y-116596444D01*
X75370560Y-116501206D01*
X75322940Y-116405968D01*
X75275321Y-116358349D01*
X75180083Y-116310730D01*
X74989607Y-116263111D01*
X74894369Y-116215492D01*
X74846750Y-116167873D01*
X74799131Y-116072635D01*
X74799131Y-115977397D01*
X74846750Y-115882159D01*
X74894369Y-115834540D01*
X74989607Y-115786920D01*
X75227702Y-115786920D01*
X75370560Y-115834540D01*
X75799131Y-116786920D02*
X75799131Y-115786920D01*
X76180083Y-115786920D01*
X76275321Y-115834540D01*
X76322940Y-115882159D01*
X76370560Y-115977397D01*
X76370560Y-116120254D01*
X76322940Y-116215492D01*
X76275321Y-116263111D01*
X76180083Y-116310730D01*
X75799131Y-116310730D01*
X76561036Y-116882159D02*
X77322940Y-116882159D01*
X78132464Y-116786920D02*
X77799131Y-116310730D01*
X77561036Y-116786920D02*
X77561036Y-115786920D01*
X77941988Y-115786920D01*
X78037226Y-115834540D01*
X78084845Y-115882159D01*
X78132464Y-115977397D01*
X78132464Y-116120254D01*
X78084845Y-116215492D01*
X78037226Y-116263111D01*
X77941988Y-116310730D01*
X77561036Y-116310730D01*
X78513417Y-116739301D02*
X78656274Y-116786920D01*
X78894369Y-116786920D01*
X78989607Y-116739301D01*
X79037226Y-116691682D01*
X79084845Y-116596444D01*
X79084845Y-116501206D01*
X79037226Y-116405968D01*
X78989607Y-116358349D01*
X78894369Y-116310730D01*
X78703893Y-116263111D01*
X78608655Y-116215492D01*
X78561036Y-116167873D01*
X78513417Y-116072635D01*
X78513417Y-115977397D01*
X78561036Y-115882159D01*
X78608655Y-115834540D01*
X78703893Y-115786920D01*
X78941988Y-115786920D01*
X79084845Y-115834540D01*
X79370560Y-115786920D02*
X79941988Y-115786920D01*
X79656274Y-116786920D02*
X79656274Y-115786920D01*
X74928054Y-113223300D02*
X74594720Y-112747110D01*
X74356625Y-113223300D02*
X74356625Y-112223300D01*
X74737578Y-112223300D01*
X74832816Y-112270920D01*
X74880435Y-112318539D01*
X74928054Y-112413777D01*
X74928054Y-112556634D01*
X74880435Y-112651872D01*
X74832816Y-112699491D01*
X74737578Y-112747110D01*
X74356625Y-112747110D01*
X75261387Y-112223300D02*
X75928054Y-113223300D01*
X75928054Y-112223300D02*
X75261387Y-113223300D01*
X76070911Y-113318539D02*
X76832816Y-113318539D01*
X77070911Y-112556634D02*
X77070911Y-113556634D01*
X77070911Y-112604253D02*
X77166149Y-112556634D01*
X77356625Y-112556634D01*
X77451863Y-112604253D01*
X77499482Y-112651872D01*
X77547101Y-112747110D01*
X77547101Y-113032824D01*
X77499482Y-113128062D01*
X77451863Y-113175681D01*
X77356625Y-113223300D01*
X77166149Y-113223300D01*
X77070911Y-113175681D01*
X77975673Y-113223300D02*
X77975673Y-112556634D01*
X77975673Y-112747110D02*
X78023292Y-112651872D01*
X78070911Y-112604253D01*
X78166149Y-112556634D01*
X78261387Y-112556634D01*
X78737578Y-113223300D02*
X78642340Y-113175681D01*
X78594720Y-113128062D01*
X78547101Y-113032824D01*
X78547101Y-112747110D01*
X78594720Y-112651872D01*
X78642340Y-112604253D01*
X78737578Y-112556634D01*
X78880435Y-112556634D01*
X78975673Y-112604253D01*
X79023292Y-112651872D01*
X79070911Y-112747110D01*
X79070911Y-113032824D01*
X79023292Y-113128062D01*
X78975673Y-113175681D01*
X78880435Y-113223300D01*
X78737578Y-113223300D01*
X79928054Y-112556634D02*
X79928054Y-113366158D01*
X79880435Y-113461396D01*
X79832816Y-113509015D01*
X79737578Y-113556634D01*
X79594720Y-113556634D01*
X79499482Y-113509015D01*
X79928054Y-113175681D02*
X79832816Y-113223300D01*
X79642340Y-113223300D01*
X79547101Y-113175681D01*
X79499482Y-113128062D01*
X79451863Y-113032824D01*
X79451863Y-112747110D01*
X79499482Y-112651872D01*
X79547101Y-112604253D01*
X79642340Y-112556634D01*
X79832816Y-112556634D01*
X79928054Y-112604253D01*
X139790822Y-101311460D02*
X139314632Y-101311460D01*
X139267013Y-101787651D01*
X139314632Y-101740032D01*
X139409870Y-101692413D01*
X139647965Y-101692413D01*
X139743203Y-101740032D01*
X139790822Y-101787651D01*
X139838441Y-101882889D01*
X139838441Y-102120984D01*
X139790822Y-102216222D01*
X139743203Y-102263841D01*
X139647965Y-102311460D01*
X139409870Y-102311460D01*
X139314632Y-102263841D01*
X139267013Y-102216222D01*
X140171775Y-101644794D02*
X140409870Y-102311460D01*
X140647965Y-101644794D01*
X136693993Y-74852161D02*
X136598755Y-74899780D01*
X136408279Y-74899780D01*
X136313040Y-74852161D01*
X136265421Y-74756923D01*
X136265421Y-74375971D01*
X136313040Y-74280733D01*
X136408279Y-74233114D01*
X136598755Y-74233114D01*
X136693993Y-74280733D01*
X136741612Y-74375971D01*
X136741612Y-74471209D01*
X136265421Y-74566447D01*
X137122564Y-74852161D02*
X137217802Y-74899780D01*
X137408279Y-74899780D01*
X137503517Y-74852161D01*
X137551136Y-74756923D01*
X137551136Y-74709304D01*
X137503517Y-74614066D01*
X137408279Y-74566447D01*
X137265421Y-74566447D01*
X137170183Y-74518828D01*
X137122564Y-74423590D01*
X137122564Y-74375971D01*
X137170183Y-74280733D01*
X137265421Y-74233114D01*
X137408279Y-74233114D01*
X137503517Y-74280733D01*
X137979707Y-74233114D02*
X137979707Y-75233114D01*
X137979707Y-74280733D02*
X138074945Y-74233114D01*
X138265421Y-74233114D01*
X138360660Y-74280733D01*
X138408279Y-74328352D01*
X138455898Y-74423590D01*
X138455898Y-74709304D01*
X138408279Y-74804542D01*
X138360660Y-74852161D01*
X138265421Y-74899780D01*
X138074945Y-74899780D01*
X137979707Y-74852161D01*
X136429192Y-69615346D02*
X136905382Y-69615346D01*
X136333954Y-69901060D02*
X136667287Y-68901060D01*
X137000620Y-69901060D01*
X137191097Y-68901060D02*
X137762525Y-68901060D01*
X137476811Y-69901060D02*
X137476811Y-68901060D01*
X136286335Y-71537580D02*
X136857763Y-71537580D01*
X136572049Y-72537580D02*
X136572049Y-71537580D01*
X137095859Y-71537580D02*
X137762525Y-72537580D01*
X137762525Y-71537580D02*
X137095859Y-72537580D01*
X126165693Y-75002021D02*
X126070455Y-75049640D01*
X125879979Y-75049640D01*
X125784740Y-75002021D01*
X125737121Y-74906783D01*
X125737121Y-74525831D01*
X125784740Y-74430593D01*
X125879979Y-74382974D01*
X126070455Y-74382974D01*
X126165693Y-74430593D01*
X126213312Y-74525831D01*
X126213312Y-74621069D01*
X125737121Y-74716307D01*
X126594264Y-75002021D02*
X126689502Y-75049640D01*
X126879979Y-75049640D01*
X126975217Y-75002021D01*
X127022836Y-74906783D01*
X127022836Y-74859164D01*
X126975217Y-74763926D01*
X126879979Y-74716307D01*
X126737121Y-74716307D01*
X126641883Y-74668688D01*
X126594264Y-74573450D01*
X126594264Y-74525831D01*
X126641883Y-74430593D01*
X126737121Y-74382974D01*
X126879979Y-74382974D01*
X126975217Y-74430593D01*
X127451407Y-74382974D02*
X127451407Y-75382974D01*
X127451407Y-74430593D02*
X127546645Y-74382974D01*
X127737121Y-74382974D01*
X127832360Y-74430593D01*
X127879979Y-74478212D01*
X127927598Y-74573450D01*
X127927598Y-74859164D01*
X127879979Y-74954402D01*
X127832360Y-75002021D01*
X127737121Y-75049640D01*
X127546645Y-75049640D01*
X127451407Y-75002021D01*
X126667972Y-69788066D02*
X127144162Y-69788066D01*
X126572734Y-70073780D02*
X126906067Y-69073780D01*
X127239400Y-70073780D01*
X127429877Y-69073780D02*
X128001305Y-69073780D01*
X127715591Y-70073780D02*
X127715591Y-69073780D01*
X127120353Y-72618860D02*
X126787020Y-72142670D01*
X126548924Y-72618860D02*
X126548924Y-71618860D01*
X126929877Y-71618860D01*
X127025115Y-71666480D01*
X127072734Y-71714099D01*
X127120353Y-71809337D01*
X127120353Y-71952194D01*
X127072734Y-72047432D01*
X127025115Y-72095051D01*
X126929877Y-72142670D01*
X126548924Y-72142670D01*
X127453686Y-71618860D02*
X128120353Y-72618860D01*
X128120353Y-71618860D02*
X127453686Y-72618860D01*
X97154763Y-98158560D02*
X97059525Y-98110941D01*
X97011906Y-98015703D01*
X97011906Y-97158560D01*
X97535716Y-98158560D02*
X97535716Y-97491894D01*
X97535716Y-97158560D02*
X97488097Y-97206180D01*
X97535716Y-97253799D01*
X97583335Y-97206180D01*
X97535716Y-97158560D01*
X97535716Y-97253799D01*
X98392859Y-98110941D02*
X98297620Y-98158560D01*
X98107144Y-98158560D01*
X98011906Y-98110941D01*
X97964287Y-98015703D01*
X97964287Y-97634751D01*
X98011906Y-97539513D01*
X98107144Y-97491894D01*
X98297620Y-97491894D01*
X98392859Y-97539513D01*
X98440478Y-97634751D01*
X98440478Y-97729989D01*
X97964287Y-97825227D01*
X98869049Y-97491894D02*
X98869049Y-98158560D01*
X98869049Y-97587132D02*
X98916668Y-97539513D01*
X99011906Y-97491894D01*
X99154763Y-97491894D01*
X99250001Y-97539513D01*
X99297620Y-97634751D01*
X99297620Y-98158560D01*
X99535716Y-98253799D02*
X100297620Y-98253799D01*
X100488097Y-98110941D02*
X100583335Y-98158560D01*
X100773811Y-98158560D01*
X100869049Y-98110941D01*
X100916668Y-98015703D01*
X100916668Y-97968084D01*
X100869049Y-97872846D01*
X100773811Y-97825227D01*
X100630954Y-97825227D01*
X100535716Y-97777608D01*
X100488097Y-97682370D01*
X100488097Y-97634751D01*
X100535716Y-97539513D01*
X100630954Y-97491894D01*
X100773811Y-97491894D01*
X100869049Y-97539513D01*
X101726192Y-98110941D02*
X101630954Y-98158560D01*
X101440478Y-98158560D01*
X101345240Y-98110941D01*
X101297620Y-98015703D01*
X101297620Y-97634751D01*
X101345240Y-97539513D01*
X101440478Y-97491894D01*
X101630954Y-97491894D01*
X101726192Y-97539513D01*
X101773811Y-97634751D01*
X101773811Y-97729989D01*
X101297620Y-97825227D01*
X102202382Y-98158560D02*
X102202382Y-97491894D01*
X102202382Y-97682370D02*
X102250001Y-97587132D01*
X102297620Y-97539513D01*
X102392859Y-97491894D01*
X102488097Y-97491894D01*
X102821430Y-98158560D02*
X102821430Y-97491894D01*
X102821430Y-97158560D02*
X102773811Y-97206180D01*
X102821430Y-97253799D01*
X102869049Y-97206180D01*
X102821430Y-97158560D01*
X102821430Y-97253799D01*
X103678573Y-98110941D02*
X103583335Y-98158560D01*
X103392859Y-98158560D01*
X103297620Y-98110941D01*
X103250001Y-98015703D01*
X103250001Y-97634751D01*
X103297620Y-97539513D01*
X103392859Y-97491894D01*
X103583335Y-97491894D01*
X103678573Y-97539513D01*
X103726192Y-97634751D01*
X103726192Y-97729989D01*
X103250001Y-97825227D01*
X95633540Y-96870520D02*
X95633540Y-98958400D01*
X105605580Y-96895920D02*
X105605580Y-98945700D01*
X96369714Y-96044046D02*
X96845904Y-96044046D01*
X96274476Y-96329760D02*
X96607809Y-95329760D01*
X96941142Y-96329760D01*
X97131619Y-95663094D02*
X97512571Y-95663094D01*
X97274476Y-95329760D02*
X97274476Y-96186903D01*
X97322095Y-96282141D01*
X97417333Y-96329760D01*
X97512571Y-96329760D01*
X97845904Y-96329760D02*
X97845904Y-95663094D01*
X97845904Y-95758332D02*
X97893523Y-95710713D01*
X97988761Y-95663094D01*
X98131619Y-95663094D01*
X98226857Y-95710713D01*
X98274476Y-95805951D01*
X98274476Y-96329760D01*
X98274476Y-95805951D02*
X98322095Y-95710713D01*
X98417333Y-95663094D01*
X98560190Y-95663094D01*
X98655428Y-95710713D01*
X98703047Y-95805951D01*
X98703047Y-96329760D01*
X99560190Y-96282141D02*
X99464952Y-96329760D01*
X99274476Y-96329760D01*
X99179238Y-96282141D01*
X99131619Y-96186903D01*
X99131619Y-95805951D01*
X99179238Y-95710713D01*
X99274476Y-95663094D01*
X99464952Y-95663094D01*
X99560190Y-95710713D01*
X99607809Y-95805951D01*
X99607809Y-95901189D01*
X99131619Y-95996427D01*
X100464952Y-95663094D02*
X100464952Y-96472618D01*
X100417333Y-96567856D01*
X100369714Y-96615475D01*
X100274476Y-96663094D01*
X100131619Y-96663094D01*
X100036380Y-96615475D01*
X100464952Y-96282141D02*
X100369714Y-96329760D01*
X100179238Y-96329760D01*
X100084000Y-96282141D01*
X100036380Y-96234522D01*
X99988761Y-96139284D01*
X99988761Y-95853570D01*
X100036380Y-95758332D01*
X100084000Y-95710713D01*
X100179238Y-95663094D01*
X100369714Y-95663094D01*
X100464952Y-95710713D01*
X101369714Y-96329760D02*
X101369714Y-95805951D01*
X101322095Y-95710713D01*
X101226857Y-95663094D01*
X101036380Y-95663094D01*
X100941142Y-95710713D01*
X101369714Y-96282141D02*
X101274476Y-96329760D01*
X101036380Y-96329760D01*
X100941142Y-96282141D01*
X100893523Y-96186903D01*
X100893523Y-96091665D01*
X100941142Y-95996427D01*
X101036380Y-95948808D01*
X101274476Y-95948808D01*
X101369714Y-95901189D01*
X101607809Y-96424999D02*
X102369714Y-96424999D01*
X102607809Y-95805951D02*
X102941142Y-95805951D01*
X103084000Y-96329760D02*
X102607809Y-96329760D01*
X102607809Y-95329760D01*
X103084000Y-95329760D01*
X103464952Y-96282141D02*
X103560190Y-96329760D01*
X103750666Y-96329760D01*
X103845904Y-96282141D01*
X103893523Y-96186903D01*
X103893523Y-96139284D01*
X103845904Y-96044046D01*
X103750666Y-95996427D01*
X103607809Y-95996427D01*
X103512571Y-95948808D01*
X103464952Y-95853570D01*
X103464952Y-95805951D01*
X103512571Y-95710713D01*
X103607809Y-95663094D01*
X103750666Y-95663094D01*
X103845904Y-95710713D01*
X104322095Y-95663094D02*
X104322095Y-96663094D01*
X104322095Y-95710713D02*
X104417333Y-95663094D01*
X104607809Y-95663094D01*
X104703047Y-95710713D01*
X104750666Y-95758332D01*
X104798285Y-95853570D01*
X104798285Y-96139284D01*
X104750666Y-96234522D01*
X104703047Y-96282141D01*
X104607809Y-96329760D01*
X104417333Y-96329760D01*
X104322095Y-96282141D01*
X95636080Y-96903540D02*
X95631000Y-87127080D01*
X105564940Y-99001580D02*
X95590360Y-99001580D01*
X105610660Y-87124540D02*
X105610660Y-96903540D01*
X95643700Y-87119460D02*
X105610660Y-87124540D01*
X69138847Y-89888368D02*
X69900752Y-89888368D01*
X69095667Y-86952128D02*
X69857572Y-86952128D01*
X69476620Y-87333080D02*
X69476620Y-86571176D01*
X75500954Y-106902000D02*
X76167620Y-106902000D01*
X75739049Y-107902000D01*
X76453335Y-107235334D02*
X76691430Y-107902000D01*
X76929525Y-107235334D01*
X106225340Y-67386200D02*
X106197400Y-67386200D01*
X98806000Y-67386200D02*
X106225340Y-67386200D01*
X106222800Y-74899520D02*
X106222800Y-67391280D01*
X98798380Y-74866500D02*
X106232960Y-74866500D01*
X98800920Y-67411600D02*
X98798380Y-74866500D01*
X103491682Y-72843140D02*
X103015492Y-72843140D01*
X102967873Y-73319331D01*
X103015492Y-73271712D01*
X103110730Y-73224093D01*
X103348825Y-73224093D01*
X103444063Y-73271712D01*
X103491682Y-73319331D01*
X103539301Y-73414569D01*
X103539301Y-73652664D01*
X103491682Y-73747902D01*
X103444063Y-73795521D01*
X103348825Y-73843140D01*
X103110730Y-73843140D01*
X103015492Y-73795521D01*
X102967873Y-73747902D01*
X103872635Y-73176474D02*
X104110730Y-73843140D01*
X104348825Y-73176474D01*
X103049248Y-69424300D02*
X103668296Y-69424300D01*
X103334962Y-69805253D01*
X103477820Y-69805253D01*
X103573058Y-69852872D01*
X103620677Y-69900491D01*
X103668296Y-69995729D01*
X103668296Y-70233824D01*
X103620677Y-70329062D01*
X103573058Y-70376681D01*
X103477820Y-70424300D01*
X103192105Y-70424300D01*
X103096867Y-70376681D01*
X103049248Y-70329062D01*
X104096867Y-70329062D02*
X104144486Y-70376681D01*
X104096867Y-70424300D01*
X104049248Y-70376681D01*
X104096867Y-70329062D01*
X104096867Y-70424300D01*
X104477820Y-69424300D02*
X105096867Y-69424300D01*
X104763534Y-69805253D01*
X104906391Y-69805253D01*
X105001629Y-69852872D01*
X105049248Y-69900491D01*
X105096867Y-69995729D01*
X105096867Y-70233824D01*
X105049248Y-70329062D01*
X105001629Y-70376681D01*
X104906391Y-70424300D01*
X104620677Y-70424300D01*
X104525439Y-70376681D01*
X104477820Y-70329062D01*
X105430200Y-69757634D02*
X105668296Y-70424300D01*
X105906391Y-69757634D01*
D11*
X65545660Y-90862460D02*
X68205660Y-90862460D01*
X65545660Y-88262460D02*
X65545660Y-90862460D01*
X68205660Y-88262460D02*
X68205660Y-90862460D01*
X65545660Y-88262460D02*
X68205660Y-88262460D01*
X65545660Y-86992460D02*
X65545660Y-85662460D01*
X65545660Y-85662460D02*
X66875660Y-85662460D01*
X83779780Y-79342400D02*
X83779780Y-76292400D01*
X83779780Y-70822400D02*
X83779780Y-73872400D01*
X76324217Y-70822400D02*
X83779780Y-70822400D01*
X76324217Y-79342400D02*
X83779780Y-79342400D01*
X75259780Y-78277963D02*
X75259780Y-76292400D01*
X75259780Y-71886837D02*
X75259780Y-73872400D01*
X75259780Y-71886837D02*
X76324217Y-70822400D01*
X75259780Y-78277963D02*
X76324217Y-79342400D01*
X74019780Y-72872400D02*
X75019780Y-72872400D01*
X74519780Y-72372400D02*
X74519780Y-73372400D01*
X86206400Y-88219782D02*
X86206400Y-88736938D01*
X84786400Y-88219782D02*
X84786400Y-88736938D01*
X84758460Y-84325962D02*
X84758460Y-84843118D01*
X86178460Y-84325962D02*
X86178460Y-84843118D01*
X85004860Y-104375000D02*
X87354860Y-104375000D01*
X91824860Y-104375000D02*
X89474860Y-104375000D01*
X91824860Y-98619437D02*
X91824860Y-104375000D01*
X85004860Y-98619437D02*
X85004860Y-104375000D01*
X86069297Y-97555000D02*
X87354860Y-97555000D01*
X90760423Y-97555000D02*
X89474860Y-97555000D01*
X90760423Y-97555000D02*
X91824860Y-98619437D01*
X86069297Y-97555000D02*
X85004860Y-98619437D01*
X90262360Y-96527500D02*
X90262360Y-97315000D01*
X90656110Y-96921250D02*
X89868610Y-96921250D01*
X81833982Y-103244580D02*
X82351138Y-103244580D01*
X81833982Y-104664580D02*
X82351138Y-104664580D01*
X94389202Y-73254800D02*
X94906358Y-73254800D01*
X94389202Y-74674800D02*
X94906358Y-74674800D01*
X109675860Y-91978742D02*
X109675860Y-92495898D01*
X111095860Y-91978742D02*
X111095860Y-92495898D01*
X127463620Y-94203018D02*
X127463620Y-93685862D01*
X126043620Y-94203018D02*
X126043620Y-93685862D01*
X113071840Y-97995238D02*
X113071840Y-97478082D01*
X114491840Y-97995238D02*
X114491840Y-97478082D01*
X113188680Y-92458038D02*
X113188680Y-91940882D01*
X114608680Y-92458038D02*
X114608680Y-91940882D01*
X98924180Y-116920538D02*
X98924180Y-116403382D01*
X97504180Y-116920538D02*
X97504180Y-116403382D01*
X104666042Y-118301840D02*
X105183198Y-118301840D01*
X104666042Y-116881840D02*
X105183198Y-116881840D01*
X82944600Y-94504440D02*
X82944600Y-101004440D01*
X82944600Y-94504440D02*
X73044600Y-94504440D01*
X82944600Y-101004440D02*
X73044600Y-101004440D01*
X100746822Y-72561380D02*
X101263978Y-72561380D01*
X100746822Y-73981380D02*
X101263978Y-73981380D01*
X101314778Y-69190800D02*
X100797622Y-69190800D01*
X101314778Y-70610800D02*
X100797622Y-70610800D01*
X97025722Y-84928780D02*
X97542878Y-84928780D01*
X97025722Y-83508780D02*
X97542878Y-83508780D01*
X123406162Y-68880920D02*
X123923318Y-68880920D01*
X123406162Y-70300920D02*
X123923318Y-70300920D01*
X123362982Y-73778180D02*
X123880138Y-73778180D01*
X123362982Y-72358180D02*
X123880138Y-72358180D01*
X70421762Y-68119060D02*
X70938918Y-68119060D01*
X70421762Y-66699060D02*
X70938918Y-66699060D01*
X70421762Y-70229660D02*
X70938918Y-70229660D01*
X70421762Y-71649660D02*
X70938918Y-71649660D01*
X139438642Y-69820720D02*
X139955798Y-69820720D01*
X139438642Y-71240720D02*
X139955798Y-71240720D01*
X139359902Y-67727900D02*
X139877058Y-67727900D01*
X139359902Y-66307900D02*
X139877058Y-66307900D01*
X70574162Y-119602180D02*
X71091318Y-119602180D01*
X70574162Y-121022180D02*
X71091318Y-121022180D01*
X70455022Y-117113120D02*
X70972178Y-117113120D01*
X70455022Y-115693120D02*
X70972178Y-115693120D01*
X139098282Y-118723340D02*
X139615438Y-118723340D01*
X139098282Y-120143340D02*
X139615438Y-120143340D01*
X139034782Y-116803240D02*
X139551938Y-116803240D01*
X139034782Y-115383240D02*
X139551938Y-115383240D01*
X95282278Y-110963780D02*
X94765122Y-110963780D01*
X95282278Y-109543780D02*
X94765122Y-109543780D01*
X110532240Y-64359100D02*
X118352240Y-64359100D01*
X116552240Y-73679100D02*
X116552240Y-74109100D01*
X110532240Y-64359100D02*
X110532240Y-66309100D01*
X110532240Y-68529100D02*
X110532240Y-71759100D01*
X112332240Y-73679100D02*
X111252240Y-73679100D01*
X117632240Y-73679100D02*
X116552240Y-73679100D01*
X118352240Y-68529100D02*
X118352240Y-71759100D01*
X118352240Y-64359100D02*
X118352240Y-66309100D01*
X101151380Y-85459880D02*
X106351380Y-85459880D01*
X101151380Y-80319880D02*
X101151380Y-85459880D01*
X106351380Y-77719880D02*
X106351380Y-85459880D01*
X101151380Y-80319880D02*
X103751380Y-80319880D01*
X103751380Y-80319880D02*
X103751380Y-77719880D01*
X103751380Y-77719880D02*
X106351380Y-77719880D01*
X101151380Y-79049880D02*
X101151380Y-77719880D01*
X101151380Y-77719880D02*
X102481380Y-77719880D01*
X77484280Y-106112620D02*
X77484280Y-103452620D01*
X72344280Y-106112620D02*
X77484280Y-106112620D01*
X72344280Y-103452620D02*
X77484280Y-103452620D01*
X72344280Y-106112620D02*
X72344280Y-103452620D01*
X71074280Y-106112620D02*
X69744280Y-106112620D01*
X69744280Y-106112620D02*
X69744280Y-104782620D01*
X128659580Y-75845980D02*
X131319580Y-75845980D01*
X128659580Y-70705980D02*
X128659580Y-75845980D01*
X131319580Y-70705980D02*
X131319580Y-75845980D01*
X128659580Y-70705980D02*
X131319580Y-70705980D01*
X128659580Y-69435980D02*
X128659580Y-68105980D01*
X128659580Y-68105980D02*
X129989580Y-68105980D01*
X132837880Y-68093280D02*
X134167880Y-68093280D01*
X132837880Y-69423280D02*
X132837880Y-68093280D01*
X132837880Y-70693280D02*
X135497880Y-70693280D01*
X135497880Y-70693280D02*
X135497880Y-75833280D01*
X132837880Y-70693280D02*
X132837880Y-75833280D01*
X132837880Y-75833280D02*
X135497880Y-75833280D01*
X101164080Y-89388640D02*
X102494080Y-89388640D01*
X101164080Y-90718640D02*
X101164080Y-89388640D01*
X101164080Y-91988640D02*
X103824080Y-91988640D01*
X103824080Y-91988640D02*
X103824080Y-94588640D01*
X101164080Y-91988640D02*
X101164080Y-94588640D01*
X101164080Y-94588640D02*
X103824080Y-94588640D01*
X96658120Y-94525140D02*
X99318120Y-94525140D01*
X96658120Y-91925140D02*
X96658120Y-94525140D01*
X99318120Y-91925140D02*
X99318120Y-94525140D01*
X96658120Y-91925140D02*
X99318120Y-91925140D01*
X96658120Y-90655140D02*
X96658120Y-89325140D01*
X96658120Y-89325140D02*
X97988120Y-89325140D01*
X83099300Y-81311040D02*
X83099300Y-92811040D01*
X82699300Y-80911040D02*
X79949300Y-80911040D01*
X70799300Y-92811040D02*
X70799300Y-81311040D01*
X82699300Y-93211040D02*
X79949300Y-93211040D01*
X73949300Y-80911040D02*
X71199300Y-80911040D01*
X73949300Y-93211040D02*
X71199300Y-93211040D01*
X82699300Y-80911040D02*
G75*
G02*
X83099300Y-81311040I0J-400000D01*
G01*
X70799300Y-81311040D02*
G75*
G02*
X71199300Y-80911040I400000J0D01*
G01*
X71199300Y-93211040D02*
G75*
G02*
X70799300Y-92811040I0J400000D01*
G01*
X83099300Y-92811040D02*
G75*
G02*
X82699300Y-93211040I-400000J0D01*
G01*
X66354960Y-66333060D02*
X67684960Y-66333060D01*
X67684960Y-66333060D02*
X67684960Y-67663060D01*
X67684960Y-68933060D02*
X67684960Y-71533060D01*
X65024960Y-71533060D02*
X67684960Y-71533060D01*
X65024960Y-68933060D02*
X65024960Y-71533060D01*
X65024960Y-68933060D02*
X67684960Y-68933060D01*
X142253660Y-68933060D02*
X144913660Y-68933060D01*
X142253660Y-68933060D02*
X142253660Y-71533060D01*
X142253660Y-71533060D02*
X144913660Y-71533060D01*
X144913660Y-68933060D02*
X144913660Y-71533060D01*
X144913660Y-66333060D02*
X144913660Y-67663060D01*
X143583660Y-66333060D02*
X144913660Y-66333060D01*
X66354960Y-115883380D02*
X67684960Y-115883380D01*
X67684960Y-115883380D02*
X67684960Y-117213380D01*
X67684960Y-118483380D02*
X67684960Y-121083380D01*
X65024960Y-121083380D02*
X67684960Y-121083380D01*
X65024960Y-118483380D02*
X65024960Y-121083380D01*
X65024960Y-118483380D02*
X67684960Y-118483380D01*
X142253660Y-118483380D02*
X144913660Y-118483380D01*
X142253660Y-118483380D02*
X142253660Y-121083380D01*
X142253660Y-121083380D02*
X144913660Y-121083380D01*
X144913660Y-118483380D02*
X144913660Y-121083380D01*
X144913660Y-115883380D02*
X144913660Y-117213380D01*
X143583660Y-115883380D02*
X144913660Y-115883380D01*
D12*
X90282419Y-91826080D02*
X90545433Y-91826080D01*
D11*
X71095940Y-76970122D02*
X71095940Y-77487278D01*
X69675940Y-76970122D02*
X69675940Y-77487278D01*
X80396342Y-108187560D02*
X80913498Y-108187560D01*
X80396342Y-106767560D02*
X80913498Y-106767560D01*
X94358722Y-71174680D02*
X94875878Y-71174680D01*
X94358722Y-69754680D02*
X94875878Y-69754680D01*
X96802202Y-78116360D02*
X97319358Y-78116360D01*
X96802202Y-79536360D02*
X97319358Y-79536360D01*
X122192042Y-101903460D02*
X122709198Y-101903460D01*
X122192042Y-103323460D02*
X122709198Y-103323460D01*
X129900942Y-78781980D02*
X130418098Y-78781980D01*
X129900942Y-77361980D02*
X130418098Y-77361980D01*
X134990338Y-78764200D02*
X134473182Y-78764200D01*
X134990338Y-77344200D02*
X134473182Y-77344200D01*
X126336558Y-101918700D02*
X125819402Y-101918700D01*
X126336558Y-103338700D02*
X125819402Y-103338700D01*
X130153938Y-103338700D02*
X129636782Y-103338700D01*
X130153938Y-101918700D02*
X129636782Y-101918700D01*
X118103122Y-100242300D02*
X118620278Y-100242300D01*
X118103122Y-101662300D02*
X118620278Y-101662300D01*
X67140082Y-73874560D02*
X67657238Y-73874560D01*
X67140082Y-75294560D02*
X67657238Y-75294560D01*
X73246482Y-111672440D02*
X73763638Y-111672440D01*
X73246482Y-110252440D02*
X73763638Y-110252440D01*
X141233898Y-111078080D02*
X140716742Y-111078080D01*
X141233898Y-109658080D02*
X140716742Y-109658080D01*
X140749762Y-75716200D02*
X141266918Y-75716200D01*
X140749762Y-74296200D02*
X141266918Y-74296200D01*
X105162280Y-107266238D02*
X105162280Y-106749082D01*
X106582280Y-107266238D02*
X106582280Y-106749082D01*
X95454540Y-103025682D02*
X95454540Y-103542838D01*
X94034540Y-103025682D02*
X94034540Y-103542838D01*
X106671180Y-111789978D02*
X106671180Y-111272822D01*
X105251180Y-111789978D02*
X105251180Y-111272822D01*
X95454540Y-107398078D02*
X95454540Y-106880922D01*
X94034540Y-107398078D02*
X94034540Y-106880922D01*
X122484900Y-84627020D02*
X122484900Y-78507020D01*
X122484900Y-78507020D02*
X126104900Y-78507020D01*
X126104900Y-78507020D02*
X126104900Y-84627020D01*
X126104900Y-84627020D02*
X122484900Y-84627020D01*
X83350800Y-112734340D02*
X83350800Y-109114340D01*
X89470800Y-112734340D02*
X83350800Y-112734340D01*
X89470800Y-109114340D02*
X89470800Y-112734340D01*
X83350800Y-109114340D02*
X89470800Y-109114340D01*
X83254280Y-114524540D02*
X89374280Y-114524540D01*
X89374280Y-114524540D02*
X89374280Y-118144540D01*
X89374280Y-118144540D02*
X83254280Y-118144540D01*
X83254280Y-118144540D02*
X83254280Y-114524540D01*
X92287220Y-87611080D02*
X89287220Y-87611080D01*
X92287220Y-84611080D02*
X88287220Y-84611080D01*
X92552440Y-82142380D02*
X92552440Y-80882380D01*
X92552440Y-75322380D02*
X92552440Y-76582380D01*
X88792440Y-82142380D02*
X92552440Y-82142380D01*
X86542440Y-75322380D02*
X92552440Y-75322380D01*
X90409300Y-72606020D02*
X90409300Y-71676020D01*
X90409300Y-69446020D02*
X90409300Y-70376020D01*
X90409300Y-69446020D02*
X87249300Y-69446020D01*
X90409300Y-72606020D02*
X88949300Y-72606020D01*
D10*
X111844100Y-79018240D02*
X111844100Y-79593240D01*
X117594100Y-79018240D02*
X117594100Y-79668240D01*
X117594100Y-89668240D02*
X117594100Y-89018240D01*
X111844100Y-89668240D02*
X111844100Y-89018240D01*
X111844100Y-79018240D02*
X117594100Y-79018240D01*
X111844100Y-89668240D02*
X117594100Y-89668240D01*
X111844100Y-79593240D02*
X110244100Y-79593240D01*
D11*
X139061500Y-100472240D02*
X136401500Y-100472240D01*
X139061500Y-100472240D02*
X139061500Y-82632240D01*
X139061500Y-82632240D02*
X136401500Y-82632240D01*
X136401500Y-100472240D02*
X136401500Y-82632240D01*
X136401500Y-103072240D02*
X136401500Y-101742240D01*
X137731500Y-103072240D02*
X136401500Y-103072240D01*
X110387120Y-107355980D02*
X115387120Y-107355980D01*
X112387120Y-120415980D02*
X118387120Y-120415980D01*
X126042160Y-120400740D02*
X132042160Y-120400740D01*
X124042160Y-107340740D02*
X129042160Y-107340740D01*
X97740160Y-101545080D02*
X100340160Y-101545080D01*
X97740160Y-101545080D02*
X97740160Y-111825080D01*
X97740160Y-111825080D02*
X102940160Y-111825080D01*
X102940160Y-104145080D02*
X102940160Y-111825080D01*
X100340160Y-104145080D02*
X102940160Y-104145080D01*
X100340160Y-101545080D02*
X100340160Y-104145080D01*
X102940160Y-101545080D02*
X102940160Y-102875080D01*
X101610160Y-101545080D02*
X102940160Y-101545080D01*
D10*
X65137564Y-84591031D02*
X65280421Y-84638650D01*
X65328040Y-84686269D01*
X65375660Y-84781507D01*
X65375660Y-84924364D01*
X65328040Y-85019602D01*
X65280421Y-85067221D01*
X65185183Y-85114840D01*
X64804231Y-85114840D01*
X64804231Y-84114840D01*
X65137564Y-84114840D01*
X65232802Y-84162460D01*
X65280421Y-84210079D01*
X65328040Y-84305317D01*
X65328040Y-84400555D01*
X65280421Y-84495793D01*
X65232802Y-84543412D01*
X65137564Y-84591031D01*
X64804231Y-84591031D01*
X65661374Y-84114840D02*
X66232802Y-84114840D01*
X65947088Y-85114840D02*
X65947088Y-84114840D01*
X66518517Y-84210079D02*
X66566136Y-84162460D01*
X66661374Y-84114840D01*
X66899469Y-84114840D01*
X66994707Y-84162460D01*
X67042326Y-84210079D01*
X67089945Y-84305317D01*
X67089945Y-84400555D01*
X67042326Y-84543412D01*
X66470898Y-85114840D01*
X67089945Y-85114840D01*
X67708993Y-84114840D02*
X67804231Y-84114840D01*
X67899469Y-84162460D01*
X67947088Y-84210079D01*
X67994707Y-84305317D01*
X68042326Y-84495793D01*
X68042326Y-84733888D01*
X67994707Y-84924364D01*
X67947088Y-85019602D01*
X67899469Y-85067221D01*
X67804231Y-85114840D01*
X67708993Y-85114840D01*
X67613755Y-85067221D01*
X67566136Y-85019602D01*
X67518517Y-84924364D01*
X67470898Y-84733888D01*
X67470898Y-84495793D01*
X67518517Y-84305317D01*
X67566136Y-84210079D01*
X67613755Y-84162460D01*
X67708993Y-84114840D01*
X68994707Y-85114840D02*
X68423279Y-85114840D01*
X68708993Y-85114840D02*
X68708993Y-84114840D01*
X68613755Y-84257698D01*
X68518517Y-84352936D01*
X68423279Y-84400555D01*
X78400732Y-70239542D02*
X78353113Y-70287161D01*
X78210256Y-70334780D01*
X78115018Y-70334780D01*
X77972160Y-70287161D01*
X77876922Y-70191923D01*
X77829303Y-70096685D01*
X77781684Y-69906209D01*
X77781684Y-69763352D01*
X77829303Y-69572876D01*
X77876922Y-69477638D01*
X77972160Y-69382400D01*
X78115018Y-69334780D01*
X78210256Y-69334780D01*
X78353113Y-69382400D01*
X78400732Y-69430019D01*
X78781684Y-69430019D02*
X78829303Y-69382400D01*
X78924541Y-69334780D01*
X79162637Y-69334780D01*
X79257875Y-69382400D01*
X79305494Y-69430019D01*
X79353113Y-69525257D01*
X79353113Y-69620495D01*
X79305494Y-69763352D01*
X78734065Y-70334780D01*
X79353113Y-70334780D01*
X79972160Y-69334780D02*
X80067399Y-69334780D01*
X80162637Y-69382400D01*
X80210256Y-69430019D01*
X80257875Y-69525257D01*
X80305494Y-69715733D01*
X80305494Y-69953828D01*
X80257875Y-70144304D01*
X80210256Y-70239542D01*
X80162637Y-70287161D01*
X80067399Y-70334780D01*
X79972160Y-70334780D01*
X79876922Y-70287161D01*
X79829303Y-70239542D01*
X79781684Y-70144304D01*
X79734065Y-69953828D01*
X79734065Y-69715733D01*
X79781684Y-69525257D01*
X79829303Y-69430019D01*
X79876922Y-69382400D01*
X79972160Y-69334780D01*
X81257875Y-70334780D02*
X80686446Y-70334780D01*
X80972160Y-70334780D02*
X80972160Y-69334780D01*
X80876922Y-69477638D01*
X80781684Y-69572876D01*
X80686446Y-69620495D01*
X87503542Y-89597407D02*
X87551161Y-89645026D01*
X87598780Y-89787883D01*
X87598780Y-89883121D01*
X87551161Y-90025979D01*
X87455923Y-90121217D01*
X87360685Y-90168836D01*
X87170209Y-90216455D01*
X87027352Y-90216455D01*
X86836876Y-90168836D01*
X86741638Y-90121217D01*
X86646400Y-90025979D01*
X86598780Y-89883121D01*
X86598780Y-89787883D01*
X86646400Y-89645026D01*
X86694019Y-89597407D01*
X86694019Y-89216455D02*
X86646400Y-89168836D01*
X86598780Y-89073598D01*
X86598780Y-88835502D01*
X86646400Y-88740264D01*
X86694019Y-88692645D01*
X86789257Y-88645026D01*
X86884495Y-88645026D01*
X87027352Y-88692645D01*
X87598780Y-89264074D01*
X87598780Y-88645026D01*
X86598780Y-88025979D02*
X86598780Y-87930740D01*
X86646400Y-87835502D01*
X86694019Y-87787883D01*
X86789257Y-87740264D01*
X86979733Y-87692645D01*
X87217828Y-87692645D01*
X87408304Y-87740264D01*
X87503542Y-87787883D01*
X87551161Y-87835502D01*
X87598780Y-87930740D01*
X87598780Y-88025979D01*
X87551161Y-88121217D01*
X87503542Y-88168836D01*
X87408304Y-88216455D01*
X87217828Y-88264074D01*
X86979733Y-88264074D01*
X86789257Y-88216455D01*
X86694019Y-88168836D01*
X86646400Y-88121217D01*
X86598780Y-88025979D01*
X86932114Y-86835502D02*
X87598780Y-86835502D01*
X86551161Y-87073598D02*
X87265447Y-87311693D01*
X87265447Y-86692645D01*
X87475602Y-85703587D02*
X87523221Y-85751206D01*
X87570840Y-85894063D01*
X87570840Y-85989301D01*
X87523221Y-86132159D01*
X87427983Y-86227397D01*
X87332745Y-86275016D01*
X87142269Y-86322635D01*
X86999412Y-86322635D01*
X86808936Y-86275016D01*
X86713698Y-86227397D01*
X86618460Y-86132159D01*
X86570840Y-85989301D01*
X86570840Y-85894063D01*
X86618460Y-85751206D01*
X86666079Y-85703587D01*
X86666079Y-85322635D02*
X86618460Y-85275016D01*
X86570840Y-85179778D01*
X86570840Y-84941682D01*
X86618460Y-84846444D01*
X86666079Y-84798825D01*
X86761317Y-84751206D01*
X86856555Y-84751206D01*
X86999412Y-84798825D01*
X87570840Y-85370254D01*
X87570840Y-84751206D01*
X86570840Y-84132159D02*
X86570840Y-84036920D01*
X86618460Y-83941682D01*
X86666079Y-83894063D01*
X86761317Y-83846444D01*
X86951793Y-83798825D01*
X87189888Y-83798825D01*
X87380364Y-83846444D01*
X87475602Y-83894063D01*
X87523221Y-83941682D01*
X87570840Y-84036920D01*
X87570840Y-84132159D01*
X87523221Y-84227397D01*
X87475602Y-84275016D01*
X87380364Y-84322635D01*
X87189888Y-84370254D01*
X86951793Y-84370254D01*
X86761317Y-84322635D01*
X86666079Y-84275016D01*
X86618460Y-84227397D01*
X86570840Y-84132159D01*
X86570840Y-82894063D02*
X86570840Y-83370254D01*
X87047031Y-83417873D01*
X86999412Y-83370254D01*
X86951793Y-83275016D01*
X86951793Y-83036920D01*
X86999412Y-82941682D01*
X87047031Y-82894063D01*
X87142269Y-82846444D01*
X87380364Y-82846444D01*
X87475602Y-82894063D01*
X87523221Y-82941682D01*
X87570840Y-83036920D01*
X87570840Y-83275016D01*
X87523221Y-83370254D01*
X87475602Y-83417873D01*
X93122002Y-102084047D02*
X93169621Y-102131666D01*
X93217240Y-102274523D01*
X93217240Y-102369761D01*
X93169621Y-102512619D01*
X93074383Y-102607857D01*
X92979145Y-102655476D01*
X92788669Y-102703095D01*
X92645812Y-102703095D01*
X92455336Y-102655476D01*
X92360098Y-102607857D01*
X92264860Y-102512619D01*
X92217240Y-102369761D01*
X92217240Y-102274523D01*
X92264860Y-102131666D01*
X92312479Y-102084047D01*
X92312479Y-101703095D02*
X92264860Y-101655476D01*
X92217240Y-101560238D01*
X92217240Y-101322142D01*
X92264860Y-101226904D01*
X92312479Y-101179285D01*
X92407717Y-101131666D01*
X92502955Y-101131666D01*
X92645812Y-101179285D01*
X93217240Y-101750714D01*
X93217240Y-101131666D01*
X92217240Y-100512619D02*
X92217240Y-100417380D01*
X92264860Y-100322142D01*
X92312479Y-100274523D01*
X92407717Y-100226904D01*
X92598193Y-100179285D01*
X92836288Y-100179285D01*
X93026764Y-100226904D01*
X93122002Y-100274523D01*
X93169621Y-100322142D01*
X93217240Y-100417380D01*
X93217240Y-100512619D01*
X93169621Y-100607857D01*
X93122002Y-100655476D01*
X93026764Y-100703095D01*
X92836288Y-100750714D01*
X92598193Y-100750714D01*
X92407717Y-100703095D01*
X92312479Y-100655476D01*
X92264860Y-100607857D01*
X92217240Y-100512619D01*
X92217240Y-99322142D02*
X92217240Y-99512619D01*
X92264860Y-99607857D01*
X92312479Y-99655476D01*
X92455336Y-99750714D01*
X92645812Y-99798333D01*
X93026764Y-99798333D01*
X93122002Y-99750714D01*
X93169621Y-99703095D01*
X93217240Y-99607857D01*
X93217240Y-99417380D01*
X93169621Y-99322142D01*
X93122002Y-99274523D01*
X93026764Y-99226904D01*
X92788669Y-99226904D01*
X92693431Y-99274523D01*
X92645812Y-99322142D01*
X92598193Y-99417380D01*
X92598193Y-99607857D01*
X92645812Y-99703095D01*
X92693431Y-99750714D01*
X92788669Y-99798333D01*
X80973512Y-102661722D02*
X80925893Y-102709341D01*
X80783036Y-102756960D01*
X80687798Y-102756960D01*
X80544940Y-102709341D01*
X80449702Y-102614103D01*
X80402083Y-102518865D01*
X80354464Y-102328389D01*
X80354464Y-102185532D01*
X80402083Y-101995056D01*
X80449702Y-101899818D01*
X80544940Y-101804580D01*
X80687798Y-101756960D01*
X80783036Y-101756960D01*
X80925893Y-101804580D01*
X80973512Y-101852199D01*
X81354464Y-101852199D02*
X81402083Y-101804580D01*
X81497321Y-101756960D01*
X81735417Y-101756960D01*
X81830655Y-101804580D01*
X81878274Y-101852199D01*
X81925893Y-101947437D01*
X81925893Y-102042675D01*
X81878274Y-102185532D01*
X81306845Y-102756960D01*
X81925893Y-102756960D01*
X82544940Y-101756960D02*
X82640179Y-101756960D01*
X82735417Y-101804580D01*
X82783036Y-101852199D01*
X82830655Y-101947437D01*
X82878274Y-102137913D01*
X82878274Y-102376008D01*
X82830655Y-102566484D01*
X82783036Y-102661722D01*
X82735417Y-102709341D01*
X82640179Y-102756960D01*
X82544940Y-102756960D01*
X82449702Y-102709341D01*
X82402083Y-102661722D01*
X82354464Y-102566484D01*
X82306845Y-102376008D01*
X82306845Y-102137913D01*
X82354464Y-101947437D01*
X82402083Y-101852199D01*
X82449702Y-101804580D01*
X82544940Y-101756960D01*
X83449702Y-102185532D02*
X83354464Y-102137913D01*
X83306845Y-102090294D01*
X83259226Y-101995056D01*
X83259226Y-101947437D01*
X83306845Y-101852199D01*
X83354464Y-101804580D01*
X83449702Y-101756960D01*
X83640179Y-101756960D01*
X83735417Y-101804580D01*
X83783036Y-101852199D01*
X83830655Y-101947437D01*
X83830655Y-101995056D01*
X83783036Y-102090294D01*
X83735417Y-102137913D01*
X83640179Y-102185532D01*
X83449702Y-102185532D01*
X83354464Y-102233151D01*
X83306845Y-102280770D01*
X83259226Y-102376008D01*
X83259226Y-102566484D01*
X83306845Y-102661722D01*
X83354464Y-102709341D01*
X83449702Y-102756960D01*
X83640179Y-102756960D01*
X83735417Y-102709341D01*
X83783036Y-102661722D01*
X83830655Y-102566484D01*
X83830655Y-102376008D01*
X83783036Y-102280770D01*
X83735417Y-102233151D01*
X83640179Y-102185532D01*
X93528732Y-72671942D02*
X93481113Y-72719561D01*
X93338256Y-72767180D01*
X93243018Y-72767180D01*
X93100160Y-72719561D01*
X93004922Y-72624323D01*
X92957303Y-72529085D01*
X92909684Y-72338609D01*
X92909684Y-72195752D01*
X92957303Y-72005276D01*
X93004922Y-71910038D01*
X93100160Y-71814800D01*
X93243018Y-71767180D01*
X93338256Y-71767180D01*
X93481113Y-71814800D01*
X93528732Y-71862419D01*
X93909684Y-71862419D02*
X93957303Y-71814800D01*
X94052541Y-71767180D01*
X94290637Y-71767180D01*
X94385875Y-71814800D01*
X94433494Y-71862419D01*
X94481113Y-71957657D01*
X94481113Y-72052895D01*
X94433494Y-72195752D01*
X93862065Y-72767180D01*
X94481113Y-72767180D01*
X95100160Y-71767180D02*
X95195399Y-71767180D01*
X95290637Y-71814800D01*
X95338256Y-71862419D01*
X95385875Y-71957657D01*
X95433494Y-72148133D01*
X95433494Y-72386228D01*
X95385875Y-72576704D01*
X95338256Y-72671942D01*
X95290637Y-72719561D01*
X95195399Y-72767180D01*
X95100160Y-72767180D01*
X95004922Y-72719561D01*
X94957303Y-72671942D01*
X94909684Y-72576704D01*
X94862065Y-72386228D01*
X94862065Y-72148133D01*
X94909684Y-71957657D01*
X94957303Y-71862419D01*
X95004922Y-71814800D01*
X95100160Y-71767180D01*
X95909684Y-72767180D02*
X96100160Y-72767180D01*
X96195399Y-72719561D01*
X96243018Y-72671942D01*
X96338256Y-72529085D01*
X96385875Y-72338609D01*
X96385875Y-71957657D01*
X96338256Y-71862419D01*
X96290637Y-71814800D01*
X96195399Y-71767180D01*
X96004922Y-71767180D01*
X95909684Y-71814800D01*
X95862065Y-71862419D01*
X95814446Y-71957657D01*
X95814446Y-72195752D01*
X95862065Y-72290990D01*
X95909684Y-72338609D01*
X96004922Y-72386228D01*
X96195399Y-72386228D01*
X96290637Y-72338609D01*
X96338256Y-72290990D01*
X96385875Y-72195752D01*
X109183442Y-93381767D02*
X109231061Y-93429386D01*
X109278680Y-93572243D01*
X109278680Y-93667481D01*
X109231061Y-93810339D01*
X109135823Y-93905577D01*
X109040585Y-93953196D01*
X108850109Y-94000815D01*
X108707252Y-94000815D01*
X108516776Y-93953196D01*
X108421538Y-93905577D01*
X108326300Y-93810339D01*
X108278680Y-93667481D01*
X108278680Y-93572243D01*
X108326300Y-93429386D01*
X108373919Y-93381767D01*
X108278680Y-93048434D02*
X108278680Y-92429386D01*
X108659633Y-92762720D01*
X108659633Y-92619862D01*
X108707252Y-92524624D01*
X108754871Y-92477005D01*
X108850109Y-92429386D01*
X109088204Y-92429386D01*
X109183442Y-92477005D01*
X109231061Y-92524624D01*
X109278680Y-92619862D01*
X109278680Y-92905577D01*
X109231061Y-93000815D01*
X109183442Y-93048434D01*
X108278680Y-91810339D02*
X108278680Y-91715100D01*
X108326300Y-91619862D01*
X108373919Y-91572243D01*
X108469157Y-91524624D01*
X108659633Y-91477005D01*
X108897728Y-91477005D01*
X109088204Y-91524624D01*
X109183442Y-91572243D01*
X109231061Y-91619862D01*
X109278680Y-91715100D01*
X109278680Y-91810339D01*
X109231061Y-91905577D01*
X109183442Y-91953196D01*
X109088204Y-92000815D01*
X108897728Y-92048434D01*
X108659633Y-92048434D01*
X108469157Y-92000815D01*
X108373919Y-91953196D01*
X108326300Y-91905577D01*
X108278680Y-91810339D01*
X109278680Y-90524624D02*
X109278680Y-91096053D01*
X109278680Y-90810339D02*
X108278680Y-90810339D01*
X108421538Y-90905577D01*
X108516776Y-91000815D01*
X108564395Y-91096053D01*
X125460762Y-95063487D02*
X125508381Y-95111106D01*
X125556000Y-95253963D01*
X125556000Y-95349201D01*
X125508381Y-95492059D01*
X125413143Y-95587297D01*
X125317905Y-95634916D01*
X125127429Y-95682535D01*
X124984572Y-95682535D01*
X124794096Y-95634916D01*
X124698858Y-95587297D01*
X124603620Y-95492059D01*
X124556000Y-95349201D01*
X124556000Y-95253963D01*
X124603620Y-95111106D01*
X124651239Y-95063487D01*
X124556000Y-94730154D02*
X124556000Y-94111106D01*
X124936953Y-94444440D01*
X124936953Y-94301582D01*
X124984572Y-94206344D01*
X125032191Y-94158725D01*
X125127429Y-94111106D01*
X125365524Y-94111106D01*
X125460762Y-94158725D01*
X125508381Y-94206344D01*
X125556000Y-94301582D01*
X125556000Y-94587297D01*
X125508381Y-94682535D01*
X125460762Y-94730154D01*
X124556000Y-93492059D02*
X124556000Y-93396820D01*
X124603620Y-93301582D01*
X124651239Y-93253963D01*
X124746477Y-93206344D01*
X124936953Y-93158725D01*
X125175048Y-93158725D01*
X125365524Y-93206344D01*
X125460762Y-93253963D01*
X125508381Y-93301582D01*
X125556000Y-93396820D01*
X125556000Y-93492059D01*
X125508381Y-93587297D01*
X125460762Y-93634916D01*
X125365524Y-93682535D01*
X125175048Y-93730154D01*
X124936953Y-93730154D01*
X124746477Y-93682535D01*
X124651239Y-93634916D01*
X124603620Y-93587297D01*
X124556000Y-93492059D01*
X124651239Y-92777773D02*
X124603620Y-92730154D01*
X124556000Y-92634916D01*
X124556000Y-92396820D01*
X124603620Y-92301582D01*
X124651239Y-92253963D01*
X124746477Y-92206344D01*
X124841715Y-92206344D01*
X124984572Y-92253963D01*
X125556000Y-92825392D01*
X125556000Y-92206344D01*
X112488982Y-98855707D02*
X112536601Y-98903326D01*
X112584220Y-99046183D01*
X112584220Y-99141421D01*
X112536601Y-99284279D01*
X112441363Y-99379517D01*
X112346125Y-99427136D01*
X112155649Y-99474755D01*
X112012792Y-99474755D01*
X111822316Y-99427136D01*
X111727078Y-99379517D01*
X111631840Y-99284279D01*
X111584220Y-99141421D01*
X111584220Y-99046183D01*
X111631840Y-98903326D01*
X111679459Y-98855707D01*
X111584220Y-98522374D02*
X111584220Y-97903326D01*
X111965173Y-98236660D01*
X111965173Y-98093802D01*
X112012792Y-97998564D01*
X112060411Y-97950945D01*
X112155649Y-97903326D01*
X112393744Y-97903326D01*
X112488982Y-97950945D01*
X112536601Y-97998564D01*
X112584220Y-98093802D01*
X112584220Y-98379517D01*
X112536601Y-98474755D01*
X112488982Y-98522374D01*
X111584220Y-97284279D02*
X111584220Y-97189040D01*
X111631840Y-97093802D01*
X111679459Y-97046183D01*
X111774697Y-96998564D01*
X111965173Y-96950945D01*
X112203268Y-96950945D01*
X112393744Y-96998564D01*
X112488982Y-97046183D01*
X112536601Y-97093802D01*
X112584220Y-97189040D01*
X112584220Y-97284279D01*
X112536601Y-97379517D01*
X112488982Y-97427136D01*
X112393744Y-97474755D01*
X112203268Y-97522374D01*
X111965173Y-97522374D01*
X111774697Y-97474755D01*
X111679459Y-97427136D01*
X111631840Y-97379517D01*
X111584220Y-97284279D01*
X111584220Y-96617612D02*
X111584220Y-95998564D01*
X111965173Y-96331898D01*
X111965173Y-96189040D01*
X112012792Y-96093802D01*
X112060411Y-96046183D01*
X112155649Y-95998564D01*
X112393744Y-95998564D01*
X112488982Y-96046183D01*
X112536601Y-96093802D01*
X112584220Y-96189040D01*
X112584220Y-96474755D01*
X112536601Y-96569993D01*
X112488982Y-96617612D01*
X112605822Y-93318507D02*
X112653441Y-93366126D01*
X112701060Y-93508983D01*
X112701060Y-93604221D01*
X112653441Y-93747079D01*
X112558203Y-93842317D01*
X112462965Y-93889936D01*
X112272489Y-93937555D01*
X112129632Y-93937555D01*
X111939156Y-93889936D01*
X111843918Y-93842317D01*
X111748680Y-93747079D01*
X111701060Y-93604221D01*
X111701060Y-93508983D01*
X111748680Y-93366126D01*
X111796299Y-93318507D01*
X111701060Y-92985174D02*
X111701060Y-92366126D01*
X112082013Y-92699460D01*
X112082013Y-92556602D01*
X112129632Y-92461364D01*
X112177251Y-92413745D01*
X112272489Y-92366126D01*
X112510584Y-92366126D01*
X112605822Y-92413745D01*
X112653441Y-92461364D01*
X112701060Y-92556602D01*
X112701060Y-92842317D01*
X112653441Y-92937555D01*
X112605822Y-92985174D01*
X111701060Y-91747079D02*
X111701060Y-91651840D01*
X111748680Y-91556602D01*
X111796299Y-91508983D01*
X111891537Y-91461364D01*
X112082013Y-91413745D01*
X112320108Y-91413745D01*
X112510584Y-91461364D01*
X112605822Y-91508983D01*
X112653441Y-91556602D01*
X112701060Y-91651840D01*
X112701060Y-91747079D01*
X112653441Y-91842317D01*
X112605822Y-91889936D01*
X112510584Y-91937555D01*
X112320108Y-91985174D01*
X112082013Y-91985174D01*
X111891537Y-91937555D01*
X111796299Y-91889936D01*
X111748680Y-91842317D01*
X111701060Y-91747079D01*
X111701060Y-90508983D02*
X111701060Y-90985174D01*
X112177251Y-91032793D01*
X112129632Y-90985174D01*
X112082013Y-90889936D01*
X112082013Y-90651840D01*
X112129632Y-90556602D01*
X112177251Y-90508983D01*
X112272489Y-90461364D01*
X112510584Y-90461364D01*
X112605822Y-90508983D01*
X112653441Y-90556602D01*
X112701060Y-90651840D01*
X112701060Y-90889936D01*
X112653441Y-90985174D01*
X112605822Y-91032793D01*
X96921322Y-117781007D02*
X96968941Y-117828626D01*
X97016560Y-117971483D01*
X97016560Y-118066721D01*
X96968941Y-118209579D01*
X96873703Y-118304817D01*
X96778465Y-118352436D01*
X96587989Y-118400055D01*
X96445132Y-118400055D01*
X96254656Y-118352436D01*
X96159418Y-118304817D01*
X96064180Y-118209579D01*
X96016560Y-118066721D01*
X96016560Y-117971483D01*
X96064180Y-117828626D01*
X96111799Y-117781007D01*
X96349894Y-116923864D02*
X97016560Y-116923864D01*
X95968941Y-117161960D02*
X96683227Y-117400055D01*
X96683227Y-116781007D01*
X96016560Y-116209579D02*
X96016560Y-116114340D01*
X96064180Y-116019102D01*
X96111799Y-115971483D01*
X96207037Y-115923864D01*
X96397513Y-115876245D01*
X96635608Y-115876245D01*
X96826084Y-115923864D01*
X96921322Y-115971483D01*
X96968941Y-116019102D01*
X97016560Y-116114340D01*
X97016560Y-116209579D01*
X96968941Y-116304817D01*
X96921322Y-116352436D01*
X96826084Y-116400055D01*
X96635608Y-116447674D01*
X96397513Y-116447674D01*
X96207037Y-116400055D01*
X96111799Y-116352436D01*
X96064180Y-116304817D01*
X96016560Y-116209579D01*
X96111799Y-115495293D02*
X96064180Y-115447674D01*
X96016560Y-115352436D01*
X96016560Y-115114340D01*
X96064180Y-115019102D01*
X96111799Y-114971483D01*
X96207037Y-114923864D01*
X96302275Y-114923864D01*
X96445132Y-114971483D01*
X97016560Y-115542912D01*
X97016560Y-114923864D01*
X103805572Y-116298982D02*
X103757953Y-116346601D01*
X103615096Y-116394220D01*
X103519858Y-116394220D01*
X103377000Y-116346601D01*
X103281762Y-116251363D01*
X103234143Y-116156125D01*
X103186524Y-115965649D01*
X103186524Y-115822792D01*
X103234143Y-115632316D01*
X103281762Y-115537078D01*
X103377000Y-115441840D01*
X103519858Y-115394220D01*
X103615096Y-115394220D01*
X103757953Y-115441840D01*
X103805572Y-115489459D01*
X104662715Y-115727554D02*
X104662715Y-116394220D01*
X104424620Y-115346601D02*
X104186524Y-116060887D01*
X104805572Y-116060887D01*
X105377000Y-115394220D02*
X105472239Y-115394220D01*
X105567477Y-115441840D01*
X105615096Y-115489459D01*
X105662715Y-115584697D01*
X105710334Y-115775173D01*
X105710334Y-116013268D01*
X105662715Y-116203744D01*
X105615096Y-116298982D01*
X105567477Y-116346601D01*
X105472239Y-116394220D01*
X105377000Y-116394220D01*
X105281762Y-116346601D01*
X105234143Y-116298982D01*
X105186524Y-116203744D01*
X105138905Y-116013268D01*
X105138905Y-115775173D01*
X105186524Y-115584697D01*
X105234143Y-115489459D01*
X105281762Y-115441840D01*
X105377000Y-115394220D01*
X106567477Y-115394220D02*
X106377000Y-115394220D01*
X106281762Y-115441840D01*
X106234143Y-115489459D01*
X106138905Y-115632316D01*
X106091286Y-115822792D01*
X106091286Y-116203744D01*
X106138905Y-116298982D01*
X106186524Y-116346601D01*
X106281762Y-116394220D01*
X106472239Y-116394220D01*
X106567477Y-116346601D01*
X106615096Y-116298982D01*
X106662715Y-116203744D01*
X106662715Y-115965649D01*
X106615096Y-115870411D01*
X106567477Y-115822792D01*
X106472239Y-115775173D01*
X106281762Y-115775173D01*
X106186524Y-115822792D01*
X106138905Y-115870411D01*
X106091286Y-115965649D01*
X75754123Y-102306820D02*
X75754123Y-101306820D01*
X75992219Y-101306820D01*
X76135076Y-101354440D01*
X76230314Y-101449678D01*
X76277933Y-101544916D01*
X76325552Y-101735392D01*
X76325552Y-101878249D01*
X76277933Y-102068725D01*
X76230314Y-102163963D01*
X76135076Y-102259201D01*
X75992219Y-102306820D01*
X75754123Y-102306820D01*
X76706504Y-101402059D02*
X76754123Y-101354440D01*
X76849361Y-101306820D01*
X77087457Y-101306820D01*
X77182695Y-101354440D01*
X77230314Y-101402059D01*
X77277933Y-101497297D01*
X77277933Y-101592535D01*
X77230314Y-101735392D01*
X76658885Y-102306820D01*
X77277933Y-102306820D01*
X77896980Y-101306820D02*
X77992219Y-101306820D01*
X78087457Y-101354440D01*
X78135076Y-101402059D01*
X78182695Y-101497297D01*
X78230314Y-101687773D01*
X78230314Y-101925868D01*
X78182695Y-102116344D01*
X78135076Y-102211582D01*
X78087457Y-102259201D01*
X77992219Y-102306820D01*
X77896980Y-102306820D01*
X77801742Y-102259201D01*
X77754123Y-102211582D01*
X77706504Y-102116344D01*
X77658885Y-101925868D01*
X77658885Y-101687773D01*
X77706504Y-101497297D01*
X77754123Y-101402059D01*
X77801742Y-101354440D01*
X77896980Y-101306820D01*
X79182695Y-102306820D02*
X78611266Y-102306820D01*
X78896980Y-102306820D02*
X78896980Y-101306820D01*
X78801742Y-101449678D01*
X78706504Y-101544916D01*
X78611266Y-101592535D01*
X99314923Y-72073760D02*
X99314923Y-71073760D01*
X99553019Y-71073760D01*
X99695876Y-71121380D01*
X99791114Y-71216618D01*
X99838733Y-71311856D01*
X99886352Y-71502332D01*
X99886352Y-71645189D01*
X99838733Y-71835665D01*
X99791114Y-71930903D01*
X99695876Y-72026141D01*
X99553019Y-72073760D01*
X99314923Y-72073760D01*
X100267304Y-71168999D02*
X100314923Y-71121380D01*
X100410161Y-71073760D01*
X100648257Y-71073760D01*
X100743495Y-71121380D01*
X100791114Y-71168999D01*
X100838733Y-71264237D01*
X100838733Y-71359475D01*
X100791114Y-71502332D01*
X100219685Y-72073760D01*
X100838733Y-72073760D01*
X101457780Y-71073760D02*
X101553019Y-71073760D01*
X101648257Y-71121380D01*
X101695876Y-71168999D01*
X101743495Y-71264237D01*
X101791114Y-71454713D01*
X101791114Y-71692808D01*
X101743495Y-71883284D01*
X101695876Y-71978522D01*
X101648257Y-72026141D01*
X101553019Y-72073760D01*
X101457780Y-72073760D01*
X101362542Y-72026141D01*
X101314923Y-71978522D01*
X101267304Y-71883284D01*
X101219685Y-71692808D01*
X101219685Y-71454713D01*
X101267304Y-71264237D01*
X101314923Y-71168999D01*
X101362542Y-71121380D01*
X101457780Y-71073760D01*
X102172066Y-71168999D02*
X102219685Y-71121380D01*
X102314923Y-71073760D01*
X102553019Y-71073760D01*
X102648257Y-71121380D01*
X102695876Y-71168999D01*
X102743495Y-71264237D01*
X102743495Y-71359475D01*
X102695876Y-71502332D01*
X102124447Y-72073760D01*
X102743495Y-72073760D01*
X99406603Y-68806320D02*
X99406603Y-67806320D01*
X99644699Y-67806320D01*
X99787556Y-67853940D01*
X99882794Y-67949178D01*
X99930413Y-68044416D01*
X99978032Y-68234892D01*
X99978032Y-68377749D01*
X99930413Y-68568225D01*
X99882794Y-68663463D01*
X99787556Y-68758701D01*
X99644699Y-68806320D01*
X99406603Y-68806320D01*
X100358984Y-67901559D02*
X100406603Y-67853940D01*
X100501841Y-67806320D01*
X100739937Y-67806320D01*
X100835175Y-67853940D01*
X100882794Y-67901559D01*
X100930413Y-67996797D01*
X100930413Y-68092035D01*
X100882794Y-68234892D01*
X100311365Y-68806320D01*
X100930413Y-68806320D01*
X101549460Y-67806320D02*
X101644699Y-67806320D01*
X101739937Y-67853940D01*
X101787556Y-67901559D01*
X101835175Y-67996797D01*
X101882794Y-68187273D01*
X101882794Y-68425368D01*
X101835175Y-68615844D01*
X101787556Y-68711082D01*
X101739937Y-68758701D01*
X101644699Y-68806320D01*
X101549460Y-68806320D01*
X101454222Y-68758701D01*
X101406603Y-68711082D01*
X101358984Y-68615844D01*
X101311365Y-68425368D01*
X101311365Y-68187273D01*
X101358984Y-67996797D01*
X101406603Y-67901559D01*
X101454222Y-67853940D01*
X101549460Y-67806320D01*
X102216127Y-67806320D02*
X102835175Y-67806320D01*
X102501841Y-68187273D01*
X102644699Y-68187273D01*
X102739937Y-68234892D01*
X102787556Y-68282511D01*
X102835175Y-68377749D01*
X102835175Y-68615844D01*
X102787556Y-68711082D01*
X102739937Y-68758701D01*
X102644699Y-68806320D01*
X102358984Y-68806320D01*
X102263746Y-68758701D01*
X102216127Y-68711082D01*
X95593823Y-83021160D02*
X95593823Y-82021160D01*
X95831919Y-82021160D01*
X95974776Y-82068780D01*
X96070014Y-82164018D01*
X96117633Y-82259256D01*
X96165252Y-82449732D01*
X96165252Y-82592589D01*
X96117633Y-82783065D01*
X96070014Y-82878303D01*
X95974776Y-82973541D01*
X95831919Y-83021160D01*
X95593823Y-83021160D01*
X96498585Y-82021160D02*
X97117633Y-82021160D01*
X96784300Y-82402113D01*
X96927157Y-82402113D01*
X97022395Y-82449732D01*
X97070014Y-82497351D01*
X97117633Y-82592589D01*
X97117633Y-82830684D01*
X97070014Y-82925922D01*
X97022395Y-82973541D01*
X96927157Y-83021160D01*
X96641442Y-83021160D01*
X96546204Y-82973541D01*
X96498585Y-82925922D01*
X97736680Y-82021160D02*
X97831919Y-82021160D01*
X97927157Y-82068780D01*
X97974776Y-82116399D01*
X98022395Y-82211637D01*
X98070014Y-82402113D01*
X98070014Y-82640208D01*
X98022395Y-82830684D01*
X97974776Y-82925922D01*
X97927157Y-82973541D01*
X97831919Y-83021160D01*
X97736680Y-83021160D01*
X97641442Y-82973541D01*
X97593823Y-82925922D01*
X97546204Y-82830684D01*
X97498585Y-82640208D01*
X97498585Y-82402113D01*
X97546204Y-82211637D01*
X97593823Y-82116399D01*
X97641442Y-82068780D01*
X97736680Y-82021160D01*
X98450966Y-82116399D02*
X98498585Y-82068780D01*
X98593823Y-82021160D01*
X98831919Y-82021160D01*
X98927157Y-82068780D01*
X98974776Y-82116399D01*
X99022395Y-82211637D01*
X99022395Y-82306875D01*
X98974776Y-82449732D01*
X98403347Y-83021160D01*
X99022395Y-83021160D01*
X121974263Y-68393300D02*
X121974263Y-67393300D01*
X122212359Y-67393300D01*
X122355216Y-67440920D01*
X122450454Y-67536158D01*
X122498073Y-67631396D01*
X122545692Y-67821872D01*
X122545692Y-67964729D01*
X122498073Y-68155205D01*
X122450454Y-68250443D01*
X122355216Y-68345681D01*
X122212359Y-68393300D01*
X121974263Y-68393300D01*
X122879025Y-67393300D02*
X123498073Y-67393300D01*
X123164740Y-67774253D01*
X123307597Y-67774253D01*
X123402835Y-67821872D01*
X123450454Y-67869491D01*
X123498073Y-67964729D01*
X123498073Y-68202824D01*
X123450454Y-68298062D01*
X123402835Y-68345681D01*
X123307597Y-68393300D01*
X123021882Y-68393300D01*
X122926644Y-68345681D01*
X122879025Y-68298062D01*
X124117120Y-67393300D02*
X124212359Y-67393300D01*
X124307597Y-67440920D01*
X124355216Y-67488539D01*
X124402835Y-67583777D01*
X124450454Y-67774253D01*
X124450454Y-68012348D01*
X124402835Y-68202824D01*
X124355216Y-68298062D01*
X124307597Y-68345681D01*
X124212359Y-68393300D01*
X124117120Y-68393300D01*
X124021882Y-68345681D01*
X123974263Y-68298062D01*
X123926644Y-68202824D01*
X123879025Y-68012348D01*
X123879025Y-67774253D01*
X123926644Y-67583777D01*
X123974263Y-67488539D01*
X124021882Y-67440920D01*
X124117120Y-67393300D01*
X124783787Y-67393300D02*
X125402835Y-67393300D01*
X125069501Y-67774253D01*
X125212359Y-67774253D01*
X125307597Y-67821872D01*
X125355216Y-67869491D01*
X125402835Y-67964729D01*
X125402835Y-68202824D01*
X125355216Y-68298062D01*
X125307597Y-68345681D01*
X125212359Y-68393300D01*
X124926644Y-68393300D01*
X124831406Y-68345681D01*
X124783787Y-68298062D01*
X121931083Y-71870560D02*
X121931083Y-70870560D01*
X122169179Y-70870560D01*
X122312036Y-70918180D01*
X122407274Y-71013418D01*
X122454893Y-71108656D01*
X122502512Y-71299132D01*
X122502512Y-71441989D01*
X122454893Y-71632465D01*
X122407274Y-71727703D01*
X122312036Y-71822941D01*
X122169179Y-71870560D01*
X121931083Y-71870560D01*
X122835845Y-70870560D02*
X123454893Y-70870560D01*
X123121560Y-71251513D01*
X123264417Y-71251513D01*
X123359655Y-71299132D01*
X123407274Y-71346751D01*
X123454893Y-71441989D01*
X123454893Y-71680084D01*
X123407274Y-71775322D01*
X123359655Y-71822941D01*
X123264417Y-71870560D01*
X122978702Y-71870560D01*
X122883464Y-71822941D01*
X122835845Y-71775322D01*
X124073940Y-70870560D02*
X124169179Y-70870560D01*
X124264417Y-70918180D01*
X124312036Y-70965799D01*
X124359655Y-71061037D01*
X124407274Y-71251513D01*
X124407274Y-71489608D01*
X124359655Y-71680084D01*
X124312036Y-71775322D01*
X124264417Y-71822941D01*
X124169179Y-71870560D01*
X124073940Y-71870560D01*
X123978702Y-71822941D01*
X123931083Y-71775322D01*
X123883464Y-71680084D01*
X123835845Y-71489608D01*
X123835845Y-71251513D01*
X123883464Y-71061037D01*
X123931083Y-70965799D01*
X123978702Y-70918180D01*
X124073940Y-70870560D01*
X125264417Y-71203894D02*
X125264417Y-71870560D01*
X125026321Y-70822941D02*
X124788226Y-71537227D01*
X125407274Y-71537227D01*
X68989863Y-66211440D02*
X68989863Y-65211440D01*
X69227959Y-65211440D01*
X69370816Y-65259060D01*
X69466054Y-65354298D01*
X69513673Y-65449536D01*
X69561292Y-65640012D01*
X69561292Y-65782869D01*
X69513673Y-65973345D01*
X69466054Y-66068583D01*
X69370816Y-66163821D01*
X69227959Y-66211440D01*
X68989863Y-66211440D01*
X70418435Y-65544774D02*
X70418435Y-66211440D01*
X70180340Y-65163821D02*
X69942244Y-65878107D01*
X70561292Y-65878107D01*
X71132720Y-65211440D02*
X71227959Y-65211440D01*
X71323197Y-65259060D01*
X71370816Y-65306679D01*
X71418435Y-65401917D01*
X71466054Y-65592393D01*
X71466054Y-65830488D01*
X71418435Y-66020964D01*
X71370816Y-66116202D01*
X71323197Y-66163821D01*
X71227959Y-66211440D01*
X71132720Y-66211440D01*
X71037482Y-66163821D01*
X70989863Y-66116202D01*
X70942244Y-66020964D01*
X70894625Y-65830488D01*
X70894625Y-65592393D01*
X70942244Y-65401917D01*
X70989863Y-65306679D01*
X71037482Y-65259060D01*
X71132720Y-65211440D01*
X72418435Y-66211440D02*
X71847006Y-66211440D01*
X72132720Y-66211440D02*
X72132720Y-65211440D01*
X72037482Y-65354298D01*
X71942244Y-65449536D01*
X71847006Y-65497155D01*
X68989863Y-69742040D02*
X68989863Y-68742040D01*
X69227959Y-68742040D01*
X69370816Y-68789660D01*
X69466054Y-68884898D01*
X69513673Y-68980136D01*
X69561292Y-69170612D01*
X69561292Y-69313469D01*
X69513673Y-69503945D01*
X69466054Y-69599183D01*
X69370816Y-69694421D01*
X69227959Y-69742040D01*
X68989863Y-69742040D01*
X70418435Y-69075374D02*
X70418435Y-69742040D01*
X70180340Y-68694421D02*
X69942244Y-69408707D01*
X70561292Y-69408707D01*
X71132720Y-68742040D02*
X71227959Y-68742040D01*
X71323197Y-68789660D01*
X71370816Y-68837279D01*
X71418435Y-68932517D01*
X71466054Y-69122993D01*
X71466054Y-69361088D01*
X71418435Y-69551564D01*
X71370816Y-69646802D01*
X71323197Y-69694421D01*
X71227959Y-69742040D01*
X71132720Y-69742040D01*
X71037482Y-69694421D01*
X70989863Y-69646802D01*
X70942244Y-69551564D01*
X70894625Y-69361088D01*
X70894625Y-69122993D01*
X70942244Y-68932517D01*
X70989863Y-68837279D01*
X71037482Y-68789660D01*
X71132720Y-68742040D01*
X71847006Y-68837279D02*
X71894625Y-68789660D01*
X71989863Y-68742040D01*
X72227959Y-68742040D01*
X72323197Y-68789660D01*
X72370816Y-68837279D01*
X72418435Y-68932517D01*
X72418435Y-69027755D01*
X72370816Y-69170612D01*
X71799387Y-69742040D01*
X72418435Y-69742040D01*
X138006743Y-69333100D02*
X138006743Y-68333100D01*
X138244839Y-68333100D01*
X138387696Y-68380720D01*
X138482934Y-68475958D01*
X138530553Y-68571196D01*
X138578172Y-68761672D01*
X138578172Y-68904529D01*
X138530553Y-69095005D01*
X138482934Y-69190243D01*
X138387696Y-69285481D01*
X138244839Y-69333100D01*
X138006743Y-69333100D01*
X139435315Y-68666434D02*
X139435315Y-69333100D01*
X139197220Y-68285481D02*
X138959124Y-68999767D01*
X139578172Y-68999767D01*
X140149600Y-68333100D02*
X140244839Y-68333100D01*
X140340077Y-68380720D01*
X140387696Y-68428339D01*
X140435315Y-68523577D01*
X140482934Y-68714053D01*
X140482934Y-68952148D01*
X140435315Y-69142624D01*
X140387696Y-69237862D01*
X140340077Y-69285481D01*
X140244839Y-69333100D01*
X140149600Y-69333100D01*
X140054362Y-69285481D01*
X140006743Y-69237862D01*
X139959124Y-69142624D01*
X139911505Y-68952148D01*
X139911505Y-68714053D01*
X139959124Y-68523577D01*
X140006743Y-68428339D01*
X140054362Y-68380720D01*
X140149600Y-68333100D01*
X140816267Y-68333100D02*
X141435315Y-68333100D01*
X141101981Y-68714053D01*
X141244839Y-68714053D01*
X141340077Y-68761672D01*
X141387696Y-68809291D01*
X141435315Y-68904529D01*
X141435315Y-69142624D01*
X141387696Y-69237862D01*
X141340077Y-69285481D01*
X141244839Y-69333100D01*
X140959124Y-69333100D01*
X140863886Y-69285481D01*
X140816267Y-69237862D01*
X137928003Y-65820280D02*
X137928003Y-64820280D01*
X138166099Y-64820280D01*
X138308956Y-64867900D01*
X138404194Y-64963138D01*
X138451813Y-65058376D01*
X138499432Y-65248852D01*
X138499432Y-65391709D01*
X138451813Y-65582185D01*
X138404194Y-65677423D01*
X138308956Y-65772661D01*
X138166099Y-65820280D01*
X137928003Y-65820280D01*
X139356575Y-65153614D02*
X139356575Y-65820280D01*
X139118480Y-64772661D02*
X138880384Y-65486947D01*
X139499432Y-65486947D01*
X140070860Y-64820280D02*
X140166099Y-64820280D01*
X140261337Y-64867900D01*
X140308956Y-64915519D01*
X140356575Y-65010757D01*
X140404194Y-65201233D01*
X140404194Y-65439328D01*
X140356575Y-65629804D01*
X140308956Y-65725042D01*
X140261337Y-65772661D01*
X140166099Y-65820280D01*
X140070860Y-65820280D01*
X139975622Y-65772661D01*
X139928003Y-65725042D01*
X139880384Y-65629804D01*
X139832765Y-65439328D01*
X139832765Y-65201233D01*
X139880384Y-65010757D01*
X139928003Y-64915519D01*
X139975622Y-64867900D01*
X140070860Y-64820280D01*
X141261337Y-65153614D02*
X141261337Y-65820280D01*
X141023241Y-64772661D02*
X140785146Y-65486947D01*
X141404194Y-65486947D01*
X69142263Y-119114560D02*
X69142263Y-118114560D01*
X69380359Y-118114560D01*
X69523216Y-118162180D01*
X69618454Y-118257418D01*
X69666073Y-118352656D01*
X69713692Y-118543132D01*
X69713692Y-118685989D01*
X69666073Y-118876465D01*
X69618454Y-118971703D01*
X69523216Y-119066941D01*
X69380359Y-119114560D01*
X69142263Y-119114560D01*
X70570835Y-118447894D02*
X70570835Y-119114560D01*
X70332740Y-118066941D02*
X70094644Y-118781227D01*
X70713692Y-118781227D01*
X71285120Y-118114560D02*
X71380359Y-118114560D01*
X71475597Y-118162180D01*
X71523216Y-118209799D01*
X71570835Y-118305037D01*
X71618454Y-118495513D01*
X71618454Y-118733608D01*
X71570835Y-118924084D01*
X71523216Y-119019322D01*
X71475597Y-119066941D01*
X71380359Y-119114560D01*
X71285120Y-119114560D01*
X71189882Y-119066941D01*
X71142263Y-119019322D01*
X71094644Y-118924084D01*
X71047025Y-118733608D01*
X71047025Y-118495513D01*
X71094644Y-118305037D01*
X71142263Y-118209799D01*
X71189882Y-118162180D01*
X71285120Y-118114560D01*
X72523216Y-118114560D02*
X72047025Y-118114560D01*
X71999406Y-118590751D01*
X72047025Y-118543132D01*
X72142263Y-118495513D01*
X72380359Y-118495513D01*
X72475597Y-118543132D01*
X72523216Y-118590751D01*
X72570835Y-118685989D01*
X72570835Y-118924084D01*
X72523216Y-119019322D01*
X72475597Y-119066941D01*
X72380359Y-119114560D01*
X72142263Y-119114560D01*
X72047025Y-119066941D01*
X71999406Y-119019322D01*
X69023123Y-115205500D02*
X69023123Y-114205500D01*
X69261219Y-114205500D01*
X69404076Y-114253120D01*
X69499314Y-114348358D01*
X69546933Y-114443596D01*
X69594552Y-114634072D01*
X69594552Y-114776929D01*
X69546933Y-114967405D01*
X69499314Y-115062643D01*
X69404076Y-115157881D01*
X69261219Y-115205500D01*
X69023123Y-115205500D01*
X70451695Y-114538834D02*
X70451695Y-115205500D01*
X70213600Y-114157881D02*
X69975504Y-114872167D01*
X70594552Y-114872167D01*
X71165980Y-114205500D02*
X71261219Y-114205500D01*
X71356457Y-114253120D01*
X71404076Y-114300739D01*
X71451695Y-114395977D01*
X71499314Y-114586453D01*
X71499314Y-114824548D01*
X71451695Y-115015024D01*
X71404076Y-115110262D01*
X71356457Y-115157881D01*
X71261219Y-115205500D01*
X71165980Y-115205500D01*
X71070742Y-115157881D01*
X71023123Y-115110262D01*
X70975504Y-115015024D01*
X70927885Y-114824548D01*
X70927885Y-114586453D01*
X70975504Y-114395977D01*
X71023123Y-114300739D01*
X71070742Y-114253120D01*
X71165980Y-114205500D01*
X72356457Y-114205500D02*
X72165980Y-114205500D01*
X72070742Y-114253120D01*
X72023123Y-114300739D01*
X71927885Y-114443596D01*
X71880266Y-114634072D01*
X71880266Y-115015024D01*
X71927885Y-115110262D01*
X71975504Y-115157881D01*
X72070742Y-115205500D01*
X72261219Y-115205500D01*
X72356457Y-115157881D01*
X72404076Y-115110262D01*
X72451695Y-115015024D01*
X72451695Y-114776929D01*
X72404076Y-114681691D01*
X72356457Y-114634072D01*
X72261219Y-114586453D01*
X72070742Y-114586453D01*
X71975504Y-114634072D01*
X71927885Y-114681691D01*
X71880266Y-114776929D01*
X137666383Y-118235720D02*
X137666383Y-117235720D01*
X137904479Y-117235720D01*
X138047336Y-117283340D01*
X138142574Y-117378578D01*
X138190193Y-117473816D01*
X138237812Y-117664292D01*
X138237812Y-117807149D01*
X138190193Y-117997625D01*
X138142574Y-118092863D01*
X138047336Y-118188101D01*
X137904479Y-118235720D01*
X137666383Y-118235720D01*
X139094955Y-117569054D02*
X139094955Y-118235720D01*
X138856860Y-117188101D02*
X138618764Y-117902387D01*
X139237812Y-117902387D01*
X139809240Y-117235720D02*
X139904479Y-117235720D01*
X139999717Y-117283340D01*
X140047336Y-117330959D01*
X140094955Y-117426197D01*
X140142574Y-117616673D01*
X140142574Y-117854768D01*
X140094955Y-118045244D01*
X140047336Y-118140482D01*
X139999717Y-118188101D01*
X139904479Y-118235720D01*
X139809240Y-118235720D01*
X139714002Y-118188101D01*
X139666383Y-118140482D01*
X139618764Y-118045244D01*
X139571145Y-117854768D01*
X139571145Y-117616673D01*
X139618764Y-117426197D01*
X139666383Y-117330959D01*
X139714002Y-117283340D01*
X139809240Y-117235720D01*
X140475907Y-117235720D02*
X141142574Y-117235720D01*
X140714002Y-118235720D01*
X137602883Y-114895620D02*
X137602883Y-113895620D01*
X137840979Y-113895620D01*
X137983836Y-113943240D01*
X138079074Y-114038478D01*
X138126693Y-114133716D01*
X138174312Y-114324192D01*
X138174312Y-114467049D01*
X138126693Y-114657525D01*
X138079074Y-114752763D01*
X137983836Y-114848001D01*
X137840979Y-114895620D01*
X137602883Y-114895620D01*
X139031455Y-114228954D02*
X139031455Y-114895620D01*
X138793360Y-113848001D02*
X138555264Y-114562287D01*
X139174312Y-114562287D01*
X139745740Y-113895620D02*
X139840979Y-113895620D01*
X139936217Y-113943240D01*
X139983836Y-113990859D01*
X140031455Y-114086097D01*
X140079074Y-114276573D01*
X140079074Y-114514668D01*
X140031455Y-114705144D01*
X139983836Y-114800382D01*
X139936217Y-114848001D01*
X139840979Y-114895620D01*
X139745740Y-114895620D01*
X139650502Y-114848001D01*
X139602883Y-114800382D01*
X139555264Y-114705144D01*
X139507645Y-114514668D01*
X139507645Y-114276573D01*
X139555264Y-114086097D01*
X139602883Y-113990859D01*
X139650502Y-113943240D01*
X139745740Y-113895620D01*
X140650502Y-114324192D02*
X140555264Y-114276573D01*
X140507645Y-114228954D01*
X140460026Y-114133716D01*
X140460026Y-114086097D01*
X140507645Y-113990859D01*
X140555264Y-113943240D01*
X140650502Y-113895620D01*
X140840979Y-113895620D01*
X140936217Y-113943240D01*
X140983836Y-113990859D01*
X141031455Y-114086097D01*
X141031455Y-114133716D01*
X140983836Y-114228954D01*
X140936217Y-114276573D01*
X140840979Y-114324192D01*
X140650502Y-114324192D01*
X140555264Y-114371811D01*
X140507645Y-114419430D01*
X140460026Y-114514668D01*
X140460026Y-114705144D01*
X140507645Y-114800382D01*
X140555264Y-114848001D01*
X140650502Y-114895620D01*
X140840979Y-114895620D01*
X140936217Y-114848001D01*
X140983836Y-114800382D01*
X141031455Y-114705144D01*
X141031455Y-114514668D01*
X140983836Y-114419430D01*
X140936217Y-114371811D01*
X140840979Y-114324192D01*
X93333223Y-112356160D02*
X93333223Y-111356160D01*
X93571319Y-111356160D01*
X93714176Y-111403780D01*
X93809414Y-111499018D01*
X93857033Y-111594256D01*
X93904652Y-111784732D01*
X93904652Y-111927589D01*
X93857033Y-112118065D01*
X93809414Y-112213303D01*
X93714176Y-112308541D01*
X93571319Y-112356160D01*
X93333223Y-112356160D01*
X94809414Y-111356160D02*
X94333223Y-111356160D01*
X94285604Y-111832351D01*
X94333223Y-111784732D01*
X94428461Y-111737113D01*
X94666557Y-111737113D01*
X94761795Y-111784732D01*
X94809414Y-111832351D01*
X94857033Y-111927589D01*
X94857033Y-112165684D01*
X94809414Y-112260922D01*
X94761795Y-112308541D01*
X94666557Y-112356160D01*
X94428461Y-112356160D01*
X94333223Y-112308541D01*
X94285604Y-112260922D01*
X95476080Y-111356160D02*
X95571319Y-111356160D01*
X95666557Y-111403780D01*
X95714176Y-111451399D01*
X95761795Y-111546637D01*
X95809414Y-111737113D01*
X95809414Y-111975208D01*
X95761795Y-112165684D01*
X95714176Y-112260922D01*
X95666557Y-112308541D01*
X95571319Y-112356160D01*
X95476080Y-112356160D01*
X95380842Y-112308541D01*
X95333223Y-112260922D01*
X95285604Y-112165684D01*
X95237985Y-111975208D01*
X95237985Y-111737113D01*
X95285604Y-111546637D01*
X95333223Y-111451399D01*
X95380842Y-111403780D01*
X95476080Y-111356160D01*
X96190366Y-111451399D02*
X96237985Y-111403780D01*
X96333223Y-111356160D01*
X96571319Y-111356160D01*
X96666557Y-111403780D01*
X96714176Y-111451399D01*
X96761795Y-111546637D01*
X96761795Y-111641875D01*
X96714176Y-111784732D01*
X96142747Y-112356160D01*
X96761795Y-112356160D01*
X113156525Y-74721480D02*
X113156525Y-75435766D01*
X113108906Y-75578623D01*
X113013668Y-75673861D01*
X112870811Y-75721480D01*
X112775573Y-75721480D01*
X113537478Y-74721480D02*
X114156525Y-74721480D01*
X113823192Y-75102433D01*
X113966049Y-75102433D01*
X114061287Y-75150052D01*
X114108906Y-75197671D01*
X114156525Y-75292909D01*
X114156525Y-75531004D01*
X114108906Y-75626242D01*
X114061287Y-75673861D01*
X113966049Y-75721480D01*
X113680335Y-75721480D01*
X113585097Y-75673861D01*
X113537478Y-75626242D01*
X114775573Y-74721480D02*
X114870811Y-74721480D01*
X114966049Y-74769100D01*
X115013668Y-74816719D01*
X115061287Y-74911957D01*
X115108906Y-75102433D01*
X115108906Y-75340528D01*
X115061287Y-75531004D01*
X115013668Y-75626242D01*
X114966049Y-75673861D01*
X114870811Y-75721480D01*
X114775573Y-75721480D01*
X114680335Y-75673861D01*
X114632716Y-75626242D01*
X114585097Y-75531004D01*
X114537478Y-75340528D01*
X114537478Y-75102433D01*
X114585097Y-74911957D01*
X114632716Y-74816719D01*
X114680335Y-74769100D01*
X114775573Y-74721480D01*
X116061287Y-75721480D02*
X115489859Y-75721480D01*
X115775573Y-75721480D02*
X115775573Y-74721480D01*
X115680335Y-74864338D01*
X115585097Y-74959576D01*
X115489859Y-75007195D01*
X107225625Y-76170540D02*
X107225625Y-76884826D01*
X107178006Y-77027683D01*
X107082768Y-77122921D01*
X106939911Y-77170540D01*
X106844673Y-77170540D01*
X107606578Y-76170540D02*
X108225625Y-76170540D01*
X107892292Y-76551493D01*
X108035149Y-76551493D01*
X108130387Y-76599112D01*
X108178006Y-76646731D01*
X108225625Y-76741969D01*
X108225625Y-76980064D01*
X108178006Y-77075302D01*
X108130387Y-77122921D01*
X108035149Y-77170540D01*
X107749435Y-77170540D01*
X107654197Y-77122921D01*
X107606578Y-77075302D01*
X108844673Y-76170540D02*
X108939911Y-76170540D01*
X109035149Y-76218160D01*
X109082768Y-76265779D01*
X109130387Y-76361017D01*
X109178006Y-76551493D01*
X109178006Y-76789588D01*
X109130387Y-76980064D01*
X109082768Y-77075302D01*
X109035149Y-77122921D01*
X108939911Y-77170540D01*
X108844673Y-77170540D01*
X108749435Y-77122921D01*
X108701816Y-77075302D01*
X108654197Y-76980064D01*
X108606578Y-76789588D01*
X108606578Y-76551493D01*
X108654197Y-76361017D01*
X108701816Y-76265779D01*
X108749435Y-76218160D01*
X108844673Y-76170540D01*
X109558959Y-76265779D02*
X109606578Y-76218160D01*
X109701816Y-76170540D01*
X109939911Y-76170540D01*
X110035149Y-76218160D01*
X110082768Y-76265779D01*
X110130387Y-76361017D01*
X110130387Y-76456255D01*
X110082768Y-76599112D01*
X109511340Y-77170540D01*
X110130387Y-77170540D01*
X68196660Y-106568334D02*
X68910946Y-106568334D01*
X69053803Y-106615953D01*
X69149041Y-106711191D01*
X69196660Y-106854048D01*
X69196660Y-106949286D01*
X69196660Y-106092143D02*
X68196660Y-106092143D01*
X68196660Y-105711191D01*
X68244280Y-105615953D01*
X68291899Y-105568334D01*
X68387137Y-105520715D01*
X68529994Y-105520715D01*
X68625232Y-105568334D01*
X68672851Y-105615953D01*
X68720470Y-105711191D01*
X68720470Y-106092143D01*
X68291899Y-105139762D02*
X68244280Y-105092143D01*
X68196660Y-104996905D01*
X68196660Y-104758810D01*
X68244280Y-104663572D01*
X68291899Y-104615953D01*
X68387137Y-104568334D01*
X68482375Y-104568334D01*
X68625232Y-104615953D01*
X69196660Y-105187381D01*
X69196660Y-104568334D01*
X68196660Y-103949286D02*
X68196660Y-103854048D01*
X68244280Y-103758810D01*
X68291899Y-103711191D01*
X68387137Y-103663572D01*
X68577613Y-103615953D01*
X68815708Y-103615953D01*
X69006184Y-103663572D01*
X69101422Y-103711191D01*
X69149041Y-103758810D01*
X69196660Y-103854048D01*
X69196660Y-103949286D01*
X69149041Y-104044524D01*
X69101422Y-104092143D01*
X69006184Y-104139762D01*
X68815708Y-104187381D01*
X68577613Y-104187381D01*
X68387137Y-104139762D01*
X68291899Y-104092143D01*
X68244280Y-104044524D01*
X68196660Y-103949286D01*
X69196660Y-102663572D02*
X69196660Y-103235000D01*
X69196660Y-102949286D02*
X68196660Y-102949286D01*
X68339518Y-103044524D01*
X68434756Y-103139762D01*
X68482375Y-103235000D01*
X128203865Y-66558360D02*
X128203865Y-67272646D01*
X128156246Y-67415503D01*
X128061008Y-67510741D01*
X127918151Y-67558360D01*
X127822913Y-67558360D01*
X128680056Y-67558360D02*
X128680056Y-66558360D01*
X129061008Y-66558360D01*
X129156246Y-66605980D01*
X129203865Y-66653599D01*
X129251484Y-66748837D01*
X129251484Y-66891694D01*
X129203865Y-66986932D01*
X129156246Y-67034551D01*
X129061008Y-67082170D01*
X128680056Y-67082170D01*
X129584818Y-66558360D02*
X130203865Y-66558360D01*
X129870532Y-66939313D01*
X130013389Y-66939313D01*
X130108627Y-66986932D01*
X130156246Y-67034551D01*
X130203865Y-67129789D01*
X130203865Y-67367884D01*
X130156246Y-67463122D01*
X130108627Y-67510741D01*
X130013389Y-67558360D01*
X129727675Y-67558360D01*
X129632437Y-67510741D01*
X129584818Y-67463122D01*
X130822913Y-66558360D02*
X130918151Y-66558360D01*
X131013389Y-66605980D01*
X131061008Y-66653599D01*
X131108627Y-66748837D01*
X131156246Y-66939313D01*
X131156246Y-67177408D01*
X131108627Y-67367884D01*
X131061008Y-67463122D01*
X131013389Y-67510741D01*
X130918151Y-67558360D01*
X130822913Y-67558360D01*
X130727675Y-67510741D01*
X130680056Y-67463122D01*
X130632437Y-67367884D01*
X130584818Y-67177408D01*
X130584818Y-66939313D01*
X130632437Y-66748837D01*
X130680056Y-66653599D01*
X130727675Y-66605980D01*
X130822913Y-66558360D01*
X132108627Y-67558360D02*
X131537199Y-67558360D01*
X131822913Y-67558360D02*
X131822913Y-66558360D01*
X131727675Y-66701218D01*
X131632437Y-66796456D01*
X131537199Y-66844075D01*
X132382165Y-66545660D02*
X132382165Y-67259946D01*
X132334546Y-67402803D01*
X132239308Y-67498041D01*
X132096451Y-67545660D01*
X132001213Y-67545660D01*
X132858356Y-67545660D02*
X132858356Y-66545660D01*
X133239308Y-66545660D01*
X133334546Y-66593280D01*
X133382165Y-66640899D01*
X133429784Y-66736137D01*
X133429784Y-66878994D01*
X133382165Y-66974232D01*
X133334546Y-67021851D01*
X133239308Y-67069470D01*
X132858356Y-67069470D01*
X133763118Y-66545660D02*
X134382165Y-66545660D01*
X134048832Y-66926613D01*
X134191689Y-66926613D01*
X134286927Y-66974232D01*
X134334546Y-67021851D01*
X134382165Y-67117089D01*
X134382165Y-67355184D01*
X134334546Y-67450422D01*
X134286927Y-67498041D01*
X134191689Y-67545660D01*
X133905975Y-67545660D01*
X133810737Y-67498041D01*
X133763118Y-67450422D01*
X135001213Y-66545660D02*
X135096451Y-66545660D01*
X135191689Y-66593280D01*
X135239308Y-66640899D01*
X135286927Y-66736137D01*
X135334546Y-66926613D01*
X135334546Y-67164708D01*
X135286927Y-67355184D01*
X135239308Y-67450422D01*
X135191689Y-67498041D01*
X135096451Y-67545660D01*
X135001213Y-67545660D01*
X134905975Y-67498041D01*
X134858356Y-67450422D01*
X134810737Y-67355184D01*
X134763118Y-67164708D01*
X134763118Y-66926613D01*
X134810737Y-66736137D01*
X134858356Y-66640899D01*
X134905975Y-66593280D01*
X135001213Y-66545660D01*
X135715499Y-66640899D02*
X135763118Y-66593280D01*
X135858356Y-66545660D01*
X136096451Y-66545660D01*
X136191689Y-66593280D01*
X136239308Y-66640899D01*
X136286927Y-66736137D01*
X136286927Y-66831375D01*
X136239308Y-66974232D01*
X135667880Y-67545660D01*
X136286927Y-67545660D01*
X100708365Y-87841020D02*
X100708365Y-88555306D01*
X100660746Y-88698163D01*
X100565508Y-88793401D01*
X100422651Y-88841020D01*
X100327413Y-88841020D01*
X101184556Y-88841020D02*
X101184556Y-87841020D01*
X101565508Y-87841020D01*
X101660746Y-87888640D01*
X101708365Y-87936259D01*
X101755984Y-88031497D01*
X101755984Y-88174354D01*
X101708365Y-88269592D01*
X101660746Y-88317211D01*
X101565508Y-88364830D01*
X101184556Y-88364830D01*
X102089318Y-87841020D02*
X102708365Y-87841020D01*
X102375032Y-88221973D01*
X102517889Y-88221973D01*
X102613127Y-88269592D01*
X102660746Y-88317211D01*
X102708365Y-88412449D01*
X102708365Y-88650544D01*
X102660746Y-88745782D01*
X102613127Y-88793401D01*
X102517889Y-88841020D01*
X102232175Y-88841020D01*
X102136937Y-88793401D01*
X102089318Y-88745782D01*
X103327413Y-87841020D02*
X103422651Y-87841020D01*
X103517889Y-87888640D01*
X103565508Y-87936259D01*
X103613127Y-88031497D01*
X103660746Y-88221973D01*
X103660746Y-88460068D01*
X103613127Y-88650544D01*
X103565508Y-88745782D01*
X103517889Y-88793401D01*
X103422651Y-88841020D01*
X103327413Y-88841020D01*
X103232175Y-88793401D01*
X103184556Y-88745782D01*
X103136937Y-88650544D01*
X103089318Y-88460068D01*
X103089318Y-88221973D01*
X103136937Y-88031497D01*
X103184556Y-87936259D01*
X103232175Y-87888640D01*
X103327413Y-87841020D01*
X103994080Y-87841020D02*
X104613127Y-87841020D01*
X104279794Y-88221973D01*
X104422651Y-88221973D01*
X104517889Y-88269592D01*
X104565508Y-88317211D01*
X104613127Y-88412449D01*
X104613127Y-88650544D01*
X104565508Y-88745782D01*
X104517889Y-88793401D01*
X104422651Y-88841020D01*
X104136937Y-88841020D01*
X104041699Y-88793401D01*
X103994080Y-88745782D01*
X96202405Y-87777520D02*
X96202405Y-88491806D01*
X96154786Y-88634663D01*
X96059548Y-88729901D01*
X95916691Y-88777520D01*
X95821453Y-88777520D01*
X96678596Y-88777520D02*
X96678596Y-87777520D01*
X97059548Y-87777520D01*
X97154786Y-87825140D01*
X97202405Y-87872759D01*
X97250024Y-87967997D01*
X97250024Y-88110854D01*
X97202405Y-88206092D01*
X97154786Y-88253711D01*
X97059548Y-88301330D01*
X96678596Y-88301330D01*
X97583358Y-87777520D02*
X98202405Y-87777520D01*
X97869072Y-88158473D01*
X98011929Y-88158473D01*
X98107167Y-88206092D01*
X98154786Y-88253711D01*
X98202405Y-88348949D01*
X98202405Y-88587044D01*
X98154786Y-88682282D01*
X98107167Y-88729901D01*
X98011929Y-88777520D01*
X97726215Y-88777520D01*
X97630977Y-88729901D01*
X97583358Y-88682282D01*
X98821453Y-87777520D02*
X98916691Y-87777520D01*
X99011929Y-87825140D01*
X99059548Y-87872759D01*
X99107167Y-87967997D01*
X99154786Y-88158473D01*
X99154786Y-88396568D01*
X99107167Y-88587044D01*
X99059548Y-88682282D01*
X99011929Y-88729901D01*
X98916691Y-88777520D01*
X98821453Y-88777520D01*
X98726215Y-88729901D01*
X98678596Y-88682282D01*
X98630977Y-88587044D01*
X98583358Y-88396568D01*
X98583358Y-88158473D01*
X98630977Y-87967997D01*
X98678596Y-87872759D01*
X98726215Y-87825140D01*
X98821453Y-87777520D01*
X100011929Y-88110854D02*
X100011929Y-88777520D01*
X99773834Y-87729901D02*
X99535739Y-88444187D01*
X100154786Y-88444187D01*
X84651680Y-88180087D02*
X84651680Y-88656278D01*
X83651680Y-88656278D01*
X83746919Y-87894373D02*
X83699300Y-87846754D01*
X83651680Y-87751516D01*
X83651680Y-87513420D01*
X83699300Y-87418182D01*
X83746919Y-87370563D01*
X83842157Y-87322944D01*
X83937395Y-87322944D01*
X84080252Y-87370563D01*
X84651680Y-87941992D01*
X84651680Y-87322944D01*
X83651680Y-86703897D02*
X83651680Y-86608659D01*
X83699300Y-86513420D01*
X83746919Y-86465801D01*
X83842157Y-86418182D01*
X84032633Y-86370563D01*
X84270728Y-86370563D01*
X84461204Y-86418182D01*
X84556442Y-86465801D01*
X84604061Y-86513420D01*
X84651680Y-86608659D01*
X84651680Y-86703897D01*
X84604061Y-86799135D01*
X84556442Y-86846754D01*
X84461204Y-86894373D01*
X84270728Y-86941992D01*
X84032633Y-86941992D01*
X83842157Y-86894373D01*
X83746919Y-86846754D01*
X83699300Y-86799135D01*
X83651680Y-86703897D01*
X84651680Y-85418182D02*
X84651680Y-85989611D01*
X84651680Y-85703897D02*
X83651680Y-85703897D01*
X83794538Y-85799135D01*
X83889776Y-85894373D01*
X83937395Y-85989611D01*
X64593055Y-65345440D02*
X64593055Y-64345440D01*
X64926388Y-65059726D01*
X65259721Y-64345440D01*
X65259721Y-65345440D01*
X66164483Y-64678774D02*
X66164483Y-65345440D01*
X65926388Y-64297821D02*
X65688293Y-65012107D01*
X66307340Y-65012107D01*
X66878769Y-64345440D02*
X66974007Y-64345440D01*
X67069245Y-64393060D01*
X67116864Y-64440679D01*
X67164483Y-64535917D01*
X67212102Y-64726393D01*
X67212102Y-64964488D01*
X67164483Y-65154964D01*
X67116864Y-65250202D01*
X67069245Y-65297821D01*
X66974007Y-65345440D01*
X66878769Y-65345440D01*
X66783531Y-65297821D01*
X66735912Y-65250202D01*
X66688293Y-65154964D01*
X66640674Y-64964488D01*
X66640674Y-64726393D01*
X66688293Y-64535917D01*
X66735912Y-64440679D01*
X66783531Y-64393060D01*
X66878769Y-64345440D01*
X68164483Y-65345440D02*
X67593055Y-65345440D01*
X67878769Y-65345440D02*
X67878769Y-64345440D01*
X67783531Y-64488298D01*
X67688293Y-64583536D01*
X67593055Y-64631155D01*
X141821755Y-65345440D02*
X141821755Y-64345440D01*
X142155088Y-65059726D01*
X142488421Y-64345440D01*
X142488421Y-65345440D01*
X143393183Y-64678774D02*
X143393183Y-65345440D01*
X143155088Y-64297821D02*
X142916993Y-65012107D01*
X143536040Y-65012107D01*
X144107469Y-64345440D02*
X144202707Y-64345440D01*
X144297945Y-64393060D01*
X144345564Y-64440679D01*
X144393183Y-64535917D01*
X144440802Y-64726393D01*
X144440802Y-64964488D01*
X144393183Y-65154964D01*
X144345564Y-65250202D01*
X144297945Y-65297821D01*
X144202707Y-65345440D01*
X144107469Y-65345440D01*
X144012231Y-65297821D01*
X143964612Y-65250202D01*
X143916993Y-65154964D01*
X143869374Y-64964488D01*
X143869374Y-64726393D01*
X143916993Y-64535917D01*
X143964612Y-64440679D01*
X144012231Y-64393060D01*
X144107469Y-64345440D01*
X144821755Y-64440679D02*
X144869374Y-64393060D01*
X144964612Y-64345440D01*
X145202707Y-64345440D01*
X145297945Y-64393060D01*
X145345564Y-64440679D01*
X145393183Y-64535917D01*
X145393183Y-64631155D01*
X145345564Y-64774012D01*
X144774136Y-65345440D01*
X145393183Y-65345440D01*
X64593055Y-114895760D02*
X64593055Y-113895760D01*
X64926388Y-114610046D01*
X65259721Y-113895760D01*
X65259721Y-114895760D01*
X66164483Y-114229094D02*
X66164483Y-114895760D01*
X65926388Y-113848141D02*
X65688293Y-114562427D01*
X66307340Y-114562427D01*
X66878769Y-113895760D02*
X66974007Y-113895760D01*
X67069245Y-113943380D01*
X67116864Y-113990999D01*
X67164483Y-114086237D01*
X67212102Y-114276713D01*
X67212102Y-114514808D01*
X67164483Y-114705284D01*
X67116864Y-114800522D01*
X67069245Y-114848141D01*
X66974007Y-114895760D01*
X66878769Y-114895760D01*
X66783531Y-114848141D01*
X66735912Y-114800522D01*
X66688293Y-114705284D01*
X66640674Y-114514808D01*
X66640674Y-114276713D01*
X66688293Y-114086237D01*
X66735912Y-113990999D01*
X66783531Y-113943380D01*
X66878769Y-113895760D01*
X67545436Y-113895760D02*
X68164483Y-113895760D01*
X67831150Y-114276713D01*
X67974007Y-114276713D01*
X68069245Y-114324332D01*
X68116864Y-114371951D01*
X68164483Y-114467189D01*
X68164483Y-114705284D01*
X68116864Y-114800522D01*
X68069245Y-114848141D01*
X67974007Y-114895760D01*
X67688293Y-114895760D01*
X67593055Y-114848141D01*
X67545436Y-114800522D01*
X141821755Y-114895760D02*
X141821755Y-113895760D01*
X142155088Y-114610046D01*
X142488421Y-113895760D01*
X142488421Y-114895760D01*
X143393183Y-114229094D02*
X143393183Y-114895760D01*
X143155088Y-113848141D02*
X142916993Y-114562427D01*
X143536040Y-114562427D01*
X144107469Y-113895760D02*
X144202707Y-113895760D01*
X144297945Y-113943380D01*
X144345564Y-113990999D01*
X144393183Y-114086237D01*
X144440802Y-114276713D01*
X144440802Y-114514808D01*
X144393183Y-114705284D01*
X144345564Y-114800522D01*
X144297945Y-114848141D01*
X144202707Y-114895760D01*
X144107469Y-114895760D01*
X144012231Y-114848141D01*
X143964612Y-114800522D01*
X143916993Y-114705284D01*
X143869374Y-114514808D01*
X143869374Y-114276713D01*
X143916993Y-114086237D01*
X143964612Y-113990999D01*
X144012231Y-113943380D01*
X144107469Y-113895760D01*
X145297945Y-114229094D02*
X145297945Y-114895760D01*
X145059850Y-113848141D02*
X144821755Y-114562427D01*
X145440802Y-114562427D01*
X89724360Y-89292679D02*
X89629122Y-89245060D01*
X89533884Y-89149821D01*
X89391027Y-89006964D01*
X89295789Y-88959345D01*
X89200551Y-88959345D01*
X89248170Y-89197440D02*
X89152932Y-89149821D01*
X89057694Y-89054583D01*
X89010075Y-88864107D01*
X89010075Y-88530774D01*
X89057694Y-88340298D01*
X89152932Y-88245060D01*
X89248170Y-88197440D01*
X89438646Y-88197440D01*
X89533884Y-88245060D01*
X89629122Y-88340298D01*
X89676741Y-88530774D01*
X89676741Y-88864107D01*
X89629122Y-89054583D01*
X89533884Y-89149821D01*
X89438646Y-89197440D01*
X89248170Y-89197440D01*
X90057694Y-88292679D02*
X90105313Y-88245060D01*
X90200551Y-88197440D01*
X90438646Y-88197440D01*
X90533884Y-88245060D01*
X90581503Y-88292679D01*
X90629122Y-88387917D01*
X90629122Y-88483155D01*
X90581503Y-88626012D01*
X90010075Y-89197440D01*
X90629122Y-89197440D01*
X91248170Y-88197440D02*
X91343408Y-88197440D01*
X91438646Y-88245060D01*
X91486265Y-88292679D01*
X91533884Y-88387917D01*
X91581503Y-88578393D01*
X91581503Y-88816488D01*
X91533884Y-89006964D01*
X91486265Y-89102202D01*
X91438646Y-89149821D01*
X91343408Y-89197440D01*
X91248170Y-89197440D01*
X91152932Y-89149821D01*
X91105313Y-89102202D01*
X91057694Y-89006964D01*
X91010075Y-88816488D01*
X91010075Y-88578393D01*
X91057694Y-88387917D01*
X91105313Y-88292679D01*
X91152932Y-88245060D01*
X91248170Y-88197440D01*
X92533884Y-89197440D02*
X91962456Y-89197440D01*
X92248170Y-89197440D02*
X92248170Y-88197440D01*
X92152932Y-88340298D01*
X92057694Y-88435536D01*
X91962456Y-88483155D01*
X90307160Y-91786982D02*
X90354779Y-91834601D01*
X90307160Y-91882220D01*
X90259540Y-91834601D01*
X90307160Y-91786982D01*
X90307160Y-91882220D01*
X90924380Y-90148160D02*
X90924380Y-90386256D01*
X90686284Y-90291018D02*
X90924380Y-90386256D01*
X91162475Y-90291018D01*
X90781522Y-90576732D02*
X90924380Y-90386256D01*
X91067237Y-90576732D01*
X72488320Y-78347747D02*
X72012130Y-78681080D01*
X72488320Y-78919176D02*
X71488320Y-78919176D01*
X71488320Y-78538223D01*
X71535940Y-78442985D01*
X71583559Y-78395366D01*
X71678797Y-78347747D01*
X71821654Y-78347747D01*
X71916892Y-78395366D01*
X71964511Y-78442985D01*
X72012130Y-78538223D01*
X72012130Y-78919176D01*
X71583559Y-77966795D02*
X71535940Y-77919176D01*
X71488320Y-77823938D01*
X71488320Y-77585842D01*
X71535940Y-77490604D01*
X71583559Y-77442985D01*
X71678797Y-77395366D01*
X71774035Y-77395366D01*
X71916892Y-77442985D01*
X72488320Y-78014414D01*
X72488320Y-77395366D01*
X71488320Y-76776319D02*
X71488320Y-76681080D01*
X71535940Y-76585842D01*
X71583559Y-76538223D01*
X71678797Y-76490604D01*
X71869273Y-76442985D01*
X72107368Y-76442985D01*
X72297844Y-76490604D01*
X72393082Y-76538223D01*
X72440701Y-76585842D01*
X72488320Y-76681080D01*
X72488320Y-76776319D01*
X72440701Y-76871557D01*
X72393082Y-76919176D01*
X72297844Y-76966795D01*
X72107368Y-77014414D01*
X71869273Y-77014414D01*
X71678797Y-76966795D01*
X71583559Y-76919176D01*
X71535940Y-76871557D01*
X71488320Y-76776319D01*
X72488320Y-75490604D02*
X72488320Y-76062033D01*
X72488320Y-75776319D02*
X71488320Y-75776319D01*
X71631178Y-75871557D01*
X71726416Y-75966795D01*
X71774035Y-76062033D01*
X79535872Y-106279940D02*
X79202539Y-105803750D01*
X78964443Y-106279940D02*
X78964443Y-105279940D01*
X79345396Y-105279940D01*
X79440634Y-105327560D01*
X79488253Y-105375179D01*
X79535872Y-105470417D01*
X79535872Y-105613274D01*
X79488253Y-105708512D01*
X79440634Y-105756131D01*
X79345396Y-105803750D01*
X78964443Y-105803750D01*
X79916824Y-105375179D02*
X79964443Y-105327560D01*
X80059681Y-105279940D01*
X80297777Y-105279940D01*
X80393015Y-105327560D01*
X80440634Y-105375179D01*
X80488253Y-105470417D01*
X80488253Y-105565655D01*
X80440634Y-105708512D01*
X79869205Y-106279940D01*
X80488253Y-106279940D01*
X81107300Y-105279940D02*
X81202539Y-105279940D01*
X81297777Y-105327560D01*
X81345396Y-105375179D01*
X81393015Y-105470417D01*
X81440634Y-105660893D01*
X81440634Y-105898988D01*
X81393015Y-106089464D01*
X81345396Y-106184702D01*
X81297777Y-106232321D01*
X81202539Y-106279940D01*
X81107300Y-106279940D01*
X81012062Y-106232321D01*
X80964443Y-106184702D01*
X80916824Y-106089464D01*
X80869205Y-105898988D01*
X80869205Y-105660893D01*
X80916824Y-105470417D01*
X80964443Y-105375179D01*
X81012062Y-105327560D01*
X81107300Y-105279940D01*
X81821586Y-105375179D02*
X81869205Y-105327560D01*
X81964443Y-105279940D01*
X82202539Y-105279940D01*
X82297777Y-105327560D01*
X82345396Y-105375179D01*
X82393015Y-105470417D01*
X82393015Y-105565655D01*
X82345396Y-105708512D01*
X81773967Y-106279940D01*
X82393015Y-106279940D01*
X93498252Y-69267060D02*
X93164919Y-68790870D01*
X92926823Y-69267060D02*
X92926823Y-68267060D01*
X93307776Y-68267060D01*
X93403014Y-68314680D01*
X93450633Y-68362299D01*
X93498252Y-68457537D01*
X93498252Y-68600394D01*
X93450633Y-68695632D01*
X93403014Y-68743251D01*
X93307776Y-68790870D01*
X92926823Y-68790870D01*
X93879204Y-68362299D02*
X93926823Y-68314680D01*
X94022061Y-68267060D01*
X94260157Y-68267060D01*
X94355395Y-68314680D01*
X94403014Y-68362299D01*
X94450633Y-68457537D01*
X94450633Y-68552775D01*
X94403014Y-68695632D01*
X93831585Y-69267060D01*
X94450633Y-69267060D01*
X95069680Y-68267060D02*
X95164919Y-68267060D01*
X95260157Y-68314680D01*
X95307776Y-68362299D01*
X95355395Y-68457537D01*
X95403014Y-68648013D01*
X95403014Y-68886108D01*
X95355395Y-69076584D01*
X95307776Y-69171822D01*
X95260157Y-69219441D01*
X95164919Y-69267060D01*
X95069680Y-69267060D01*
X94974442Y-69219441D01*
X94926823Y-69171822D01*
X94879204Y-69076584D01*
X94831585Y-68886108D01*
X94831585Y-68648013D01*
X94879204Y-68457537D01*
X94926823Y-68362299D01*
X94974442Y-68314680D01*
X95069680Y-68267060D01*
X95974442Y-68695632D02*
X95879204Y-68648013D01*
X95831585Y-68600394D01*
X95783966Y-68505156D01*
X95783966Y-68457537D01*
X95831585Y-68362299D01*
X95879204Y-68314680D01*
X95974442Y-68267060D01*
X96164919Y-68267060D01*
X96260157Y-68314680D01*
X96307776Y-68362299D01*
X96355395Y-68457537D01*
X96355395Y-68505156D01*
X96307776Y-68600394D01*
X96260157Y-68648013D01*
X96164919Y-68695632D01*
X95974442Y-68695632D01*
X95879204Y-68743251D01*
X95831585Y-68790870D01*
X95783966Y-68886108D01*
X95783966Y-69076584D01*
X95831585Y-69171822D01*
X95879204Y-69219441D01*
X95974442Y-69267060D01*
X96164919Y-69267060D01*
X96260157Y-69219441D01*
X96307776Y-69171822D01*
X96355395Y-69076584D01*
X96355395Y-68886108D01*
X96307776Y-68790870D01*
X96260157Y-68743251D01*
X96164919Y-68695632D01*
X95941732Y-77628740D02*
X95608399Y-77152550D01*
X95370303Y-77628740D02*
X95370303Y-76628740D01*
X95751256Y-76628740D01*
X95846494Y-76676360D01*
X95894113Y-76723979D01*
X95941732Y-76819217D01*
X95941732Y-76962074D01*
X95894113Y-77057312D01*
X95846494Y-77104931D01*
X95751256Y-77152550D01*
X95370303Y-77152550D01*
X96322684Y-76723979D02*
X96370303Y-76676360D01*
X96465541Y-76628740D01*
X96703637Y-76628740D01*
X96798875Y-76676360D01*
X96846494Y-76723979D01*
X96894113Y-76819217D01*
X96894113Y-76914455D01*
X96846494Y-77057312D01*
X96275065Y-77628740D01*
X96894113Y-77628740D01*
X97513160Y-76628740D02*
X97608399Y-76628740D01*
X97703637Y-76676360D01*
X97751256Y-76723979D01*
X97798875Y-76819217D01*
X97846494Y-77009693D01*
X97846494Y-77247788D01*
X97798875Y-77438264D01*
X97751256Y-77533502D01*
X97703637Y-77581121D01*
X97608399Y-77628740D01*
X97513160Y-77628740D01*
X97417922Y-77581121D01*
X97370303Y-77533502D01*
X97322684Y-77438264D01*
X97275065Y-77247788D01*
X97275065Y-77009693D01*
X97322684Y-76819217D01*
X97370303Y-76723979D01*
X97417922Y-76676360D01*
X97513160Y-76628740D01*
X98322684Y-77628740D02*
X98513160Y-77628740D01*
X98608399Y-77581121D01*
X98656018Y-77533502D01*
X98751256Y-77390645D01*
X98798875Y-77200169D01*
X98798875Y-76819217D01*
X98751256Y-76723979D01*
X98703637Y-76676360D01*
X98608399Y-76628740D01*
X98417922Y-76628740D01*
X98322684Y-76676360D01*
X98275065Y-76723979D01*
X98227446Y-76819217D01*
X98227446Y-77057312D01*
X98275065Y-77152550D01*
X98322684Y-77200169D01*
X98417922Y-77247788D01*
X98608399Y-77247788D01*
X98703637Y-77200169D01*
X98751256Y-77152550D01*
X98798875Y-77057312D01*
X121331572Y-101415840D02*
X120998239Y-100939650D01*
X120760143Y-101415840D02*
X120760143Y-100415840D01*
X121141096Y-100415840D01*
X121236334Y-100463460D01*
X121283953Y-100511079D01*
X121331572Y-100606317D01*
X121331572Y-100749174D01*
X121283953Y-100844412D01*
X121236334Y-100892031D01*
X121141096Y-100939650D01*
X120760143Y-100939650D01*
X121664905Y-100415840D02*
X122283953Y-100415840D01*
X121950620Y-100796793D01*
X122093477Y-100796793D01*
X122188715Y-100844412D01*
X122236334Y-100892031D01*
X122283953Y-100987269D01*
X122283953Y-101225364D01*
X122236334Y-101320602D01*
X122188715Y-101368221D01*
X122093477Y-101415840D01*
X121807762Y-101415840D01*
X121712524Y-101368221D01*
X121664905Y-101320602D01*
X122903000Y-100415840D02*
X122998239Y-100415840D01*
X123093477Y-100463460D01*
X123141096Y-100511079D01*
X123188715Y-100606317D01*
X123236334Y-100796793D01*
X123236334Y-101034888D01*
X123188715Y-101225364D01*
X123141096Y-101320602D01*
X123093477Y-101368221D01*
X122998239Y-101415840D01*
X122903000Y-101415840D01*
X122807762Y-101368221D01*
X122760143Y-101320602D01*
X122712524Y-101225364D01*
X122664905Y-101034888D01*
X122664905Y-100796793D01*
X122712524Y-100606317D01*
X122760143Y-100511079D01*
X122807762Y-100463460D01*
X122903000Y-100415840D01*
X124188715Y-101415840D02*
X123617286Y-101415840D01*
X123903000Y-101415840D02*
X123903000Y-100415840D01*
X123807762Y-100558698D01*
X123712524Y-100653936D01*
X123617286Y-100701555D01*
X129111352Y-80172820D02*
X128778019Y-79696630D01*
X128539923Y-80172820D02*
X128539923Y-79172820D01*
X128920876Y-79172820D01*
X129016114Y-79220440D01*
X129063733Y-79268059D01*
X129111352Y-79363297D01*
X129111352Y-79506154D01*
X129063733Y-79601392D01*
X129016114Y-79649011D01*
X128920876Y-79696630D01*
X128539923Y-79696630D01*
X129444685Y-79172820D02*
X130063733Y-79172820D01*
X129730400Y-79553773D01*
X129873257Y-79553773D01*
X129968495Y-79601392D01*
X130016114Y-79649011D01*
X130063733Y-79744249D01*
X130063733Y-79982344D01*
X130016114Y-80077582D01*
X129968495Y-80125201D01*
X129873257Y-80172820D01*
X129587542Y-80172820D01*
X129492304Y-80125201D01*
X129444685Y-80077582D01*
X130682780Y-79172820D02*
X130778019Y-79172820D01*
X130873257Y-79220440D01*
X130920876Y-79268059D01*
X130968495Y-79363297D01*
X131016114Y-79553773D01*
X131016114Y-79791868D01*
X130968495Y-79982344D01*
X130920876Y-80077582D01*
X130873257Y-80125201D01*
X130778019Y-80172820D01*
X130682780Y-80172820D01*
X130587542Y-80125201D01*
X130539923Y-80077582D01*
X130492304Y-79982344D01*
X130444685Y-79791868D01*
X130444685Y-79553773D01*
X130492304Y-79363297D01*
X130539923Y-79268059D01*
X130587542Y-79220440D01*
X130682780Y-79172820D01*
X131397066Y-79268059D02*
X131444685Y-79220440D01*
X131539923Y-79172820D01*
X131778019Y-79172820D01*
X131873257Y-79220440D01*
X131920876Y-79268059D01*
X131968495Y-79363297D01*
X131968495Y-79458535D01*
X131920876Y-79601392D01*
X131349447Y-80172820D01*
X131968495Y-80172820D01*
X133612712Y-80156580D02*
X133279379Y-79680390D01*
X133041283Y-80156580D02*
X133041283Y-79156580D01*
X133422236Y-79156580D01*
X133517474Y-79204200D01*
X133565093Y-79251819D01*
X133612712Y-79347057D01*
X133612712Y-79489914D01*
X133565093Y-79585152D01*
X133517474Y-79632771D01*
X133422236Y-79680390D01*
X133041283Y-79680390D01*
X133946045Y-79156580D02*
X134565093Y-79156580D01*
X134231760Y-79537533D01*
X134374617Y-79537533D01*
X134469855Y-79585152D01*
X134517474Y-79632771D01*
X134565093Y-79728009D01*
X134565093Y-79966104D01*
X134517474Y-80061342D01*
X134469855Y-80108961D01*
X134374617Y-80156580D01*
X134088902Y-80156580D01*
X133993664Y-80108961D01*
X133946045Y-80061342D01*
X135184140Y-79156580D02*
X135279379Y-79156580D01*
X135374617Y-79204200D01*
X135422236Y-79251819D01*
X135469855Y-79347057D01*
X135517474Y-79537533D01*
X135517474Y-79775628D01*
X135469855Y-79966104D01*
X135422236Y-80061342D01*
X135374617Y-80108961D01*
X135279379Y-80156580D01*
X135184140Y-80156580D01*
X135088902Y-80108961D01*
X135041283Y-80061342D01*
X134993664Y-79966104D01*
X134946045Y-79775628D01*
X134946045Y-79537533D01*
X134993664Y-79347057D01*
X135041283Y-79251819D01*
X135088902Y-79204200D01*
X135184140Y-79156580D01*
X135850807Y-79156580D02*
X136469855Y-79156580D01*
X136136521Y-79537533D01*
X136279379Y-79537533D01*
X136374617Y-79585152D01*
X136422236Y-79632771D01*
X136469855Y-79728009D01*
X136469855Y-79966104D01*
X136422236Y-80061342D01*
X136374617Y-80108961D01*
X136279379Y-80156580D01*
X135993664Y-80156580D01*
X135898426Y-80108961D01*
X135850807Y-80061342D01*
X124958932Y-104731080D02*
X124625599Y-104254890D01*
X124387503Y-104731080D02*
X124387503Y-103731080D01*
X124768456Y-103731080D01*
X124863694Y-103778700D01*
X124911313Y-103826319D01*
X124958932Y-103921557D01*
X124958932Y-104064414D01*
X124911313Y-104159652D01*
X124863694Y-104207271D01*
X124768456Y-104254890D01*
X124387503Y-104254890D01*
X125292265Y-103731080D02*
X125911313Y-103731080D01*
X125577980Y-104112033D01*
X125720837Y-104112033D01*
X125816075Y-104159652D01*
X125863694Y-104207271D01*
X125911313Y-104302509D01*
X125911313Y-104540604D01*
X125863694Y-104635842D01*
X125816075Y-104683461D01*
X125720837Y-104731080D01*
X125435122Y-104731080D01*
X125339884Y-104683461D01*
X125292265Y-104635842D01*
X126530360Y-103731080D02*
X126625599Y-103731080D01*
X126720837Y-103778700D01*
X126768456Y-103826319D01*
X126816075Y-103921557D01*
X126863694Y-104112033D01*
X126863694Y-104350128D01*
X126816075Y-104540604D01*
X126768456Y-104635842D01*
X126720837Y-104683461D01*
X126625599Y-104731080D01*
X126530360Y-104731080D01*
X126435122Y-104683461D01*
X126387503Y-104635842D01*
X126339884Y-104540604D01*
X126292265Y-104350128D01*
X126292265Y-104112033D01*
X126339884Y-103921557D01*
X126387503Y-103826319D01*
X126435122Y-103778700D01*
X126530360Y-103731080D01*
X127720837Y-104064414D02*
X127720837Y-104731080D01*
X127482741Y-103683461D02*
X127244646Y-104397747D01*
X127863694Y-104397747D01*
X128776312Y-104731080D02*
X128442979Y-104254890D01*
X128204883Y-104731080D02*
X128204883Y-103731080D01*
X128585836Y-103731080D01*
X128681074Y-103778700D01*
X128728693Y-103826319D01*
X128776312Y-103921557D01*
X128776312Y-104064414D01*
X128728693Y-104159652D01*
X128681074Y-104207271D01*
X128585836Y-104254890D01*
X128204883Y-104254890D01*
X129109645Y-103731080D02*
X129728693Y-103731080D01*
X129395360Y-104112033D01*
X129538217Y-104112033D01*
X129633455Y-104159652D01*
X129681074Y-104207271D01*
X129728693Y-104302509D01*
X129728693Y-104540604D01*
X129681074Y-104635842D01*
X129633455Y-104683461D01*
X129538217Y-104731080D01*
X129252502Y-104731080D01*
X129157264Y-104683461D01*
X129109645Y-104635842D01*
X130347740Y-103731080D02*
X130442979Y-103731080D01*
X130538217Y-103778700D01*
X130585836Y-103826319D01*
X130633455Y-103921557D01*
X130681074Y-104112033D01*
X130681074Y-104350128D01*
X130633455Y-104540604D01*
X130585836Y-104635842D01*
X130538217Y-104683461D01*
X130442979Y-104731080D01*
X130347740Y-104731080D01*
X130252502Y-104683461D01*
X130204883Y-104635842D01*
X130157264Y-104540604D01*
X130109645Y-104350128D01*
X130109645Y-104112033D01*
X130157264Y-103921557D01*
X130204883Y-103826319D01*
X130252502Y-103778700D01*
X130347740Y-103731080D01*
X131585836Y-103731080D02*
X131109645Y-103731080D01*
X131062026Y-104207271D01*
X131109645Y-104159652D01*
X131204883Y-104112033D01*
X131442979Y-104112033D01*
X131538217Y-104159652D01*
X131585836Y-104207271D01*
X131633455Y-104302509D01*
X131633455Y-104540604D01*
X131585836Y-104635842D01*
X131538217Y-104683461D01*
X131442979Y-104731080D01*
X131204883Y-104731080D01*
X131109645Y-104683461D01*
X131062026Y-104635842D01*
X117242652Y-99754680D02*
X116909319Y-99278490D01*
X116671223Y-99754680D02*
X116671223Y-98754680D01*
X117052176Y-98754680D01*
X117147414Y-98802300D01*
X117195033Y-98849919D01*
X117242652Y-98945157D01*
X117242652Y-99088014D01*
X117195033Y-99183252D01*
X117147414Y-99230871D01*
X117052176Y-99278490D01*
X116671223Y-99278490D01*
X117575985Y-98754680D02*
X118195033Y-98754680D01*
X117861700Y-99135633D01*
X118004557Y-99135633D01*
X118099795Y-99183252D01*
X118147414Y-99230871D01*
X118195033Y-99326109D01*
X118195033Y-99564204D01*
X118147414Y-99659442D01*
X118099795Y-99707061D01*
X118004557Y-99754680D01*
X117718842Y-99754680D01*
X117623604Y-99707061D01*
X117575985Y-99659442D01*
X118814080Y-98754680D02*
X118909319Y-98754680D01*
X119004557Y-98802300D01*
X119052176Y-98849919D01*
X119099795Y-98945157D01*
X119147414Y-99135633D01*
X119147414Y-99373728D01*
X119099795Y-99564204D01*
X119052176Y-99659442D01*
X119004557Y-99707061D01*
X118909319Y-99754680D01*
X118814080Y-99754680D01*
X118718842Y-99707061D01*
X118671223Y-99659442D01*
X118623604Y-99564204D01*
X118575985Y-99373728D01*
X118575985Y-99135633D01*
X118623604Y-98945157D01*
X118671223Y-98849919D01*
X118718842Y-98802300D01*
X118814080Y-98754680D01*
X120004557Y-98754680D02*
X119814080Y-98754680D01*
X119718842Y-98802300D01*
X119671223Y-98849919D01*
X119575985Y-98992776D01*
X119528366Y-99183252D01*
X119528366Y-99564204D01*
X119575985Y-99659442D01*
X119623604Y-99707061D01*
X119718842Y-99754680D01*
X119909319Y-99754680D01*
X120004557Y-99707061D01*
X120052176Y-99659442D01*
X120099795Y-99564204D01*
X120099795Y-99326109D01*
X120052176Y-99230871D01*
X120004557Y-99183252D01*
X119909319Y-99135633D01*
X119718842Y-99135633D01*
X119623604Y-99183252D01*
X119575985Y-99230871D01*
X119528366Y-99326109D01*
X66279612Y-73386940D02*
X65946279Y-72910750D01*
X65708183Y-73386940D02*
X65708183Y-72386940D01*
X66089136Y-72386940D01*
X66184374Y-72434560D01*
X66231993Y-72482179D01*
X66279612Y-72577417D01*
X66279612Y-72720274D01*
X66231993Y-72815512D01*
X66184374Y-72863131D01*
X66089136Y-72910750D01*
X65708183Y-72910750D01*
X67136755Y-72720274D02*
X67136755Y-73386940D01*
X66898660Y-72339321D02*
X66660564Y-73053607D01*
X67279612Y-73053607D01*
X67851040Y-72386940D02*
X67946279Y-72386940D01*
X68041517Y-72434560D01*
X68089136Y-72482179D01*
X68136755Y-72577417D01*
X68184374Y-72767893D01*
X68184374Y-73005988D01*
X68136755Y-73196464D01*
X68089136Y-73291702D01*
X68041517Y-73339321D01*
X67946279Y-73386940D01*
X67851040Y-73386940D01*
X67755802Y-73339321D01*
X67708183Y-73291702D01*
X67660564Y-73196464D01*
X67612945Y-73005988D01*
X67612945Y-72767893D01*
X67660564Y-72577417D01*
X67708183Y-72482179D01*
X67755802Y-72434560D01*
X67851040Y-72386940D01*
X69136755Y-73386940D02*
X68565326Y-73386940D01*
X68851040Y-73386940D02*
X68851040Y-72386940D01*
X68755802Y-72529798D01*
X68660564Y-72625036D01*
X68565326Y-72672655D01*
X72386012Y-109764820D02*
X72052679Y-109288630D01*
X71814583Y-109764820D02*
X71814583Y-108764820D01*
X72195536Y-108764820D01*
X72290774Y-108812440D01*
X72338393Y-108860059D01*
X72386012Y-108955297D01*
X72386012Y-109098154D01*
X72338393Y-109193392D01*
X72290774Y-109241011D01*
X72195536Y-109288630D01*
X71814583Y-109288630D01*
X73243155Y-109098154D02*
X73243155Y-109764820D01*
X73005060Y-108717201D02*
X72766964Y-109431487D01*
X73386012Y-109431487D01*
X73957440Y-108764820D02*
X74052679Y-108764820D01*
X74147917Y-108812440D01*
X74195536Y-108860059D01*
X74243155Y-108955297D01*
X74290774Y-109145773D01*
X74290774Y-109383868D01*
X74243155Y-109574344D01*
X74195536Y-109669582D01*
X74147917Y-109717201D01*
X74052679Y-109764820D01*
X73957440Y-109764820D01*
X73862202Y-109717201D01*
X73814583Y-109669582D01*
X73766964Y-109574344D01*
X73719345Y-109383868D01*
X73719345Y-109145773D01*
X73766964Y-108955297D01*
X73814583Y-108860059D01*
X73862202Y-108812440D01*
X73957440Y-108764820D01*
X74624107Y-108764820D02*
X75243155Y-108764820D01*
X74909821Y-109145773D01*
X75052679Y-109145773D01*
X75147917Y-109193392D01*
X75195536Y-109241011D01*
X75243155Y-109336249D01*
X75243155Y-109574344D01*
X75195536Y-109669582D01*
X75147917Y-109717201D01*
X75052679Y-109764820D01*
X74766964Y-109764820D01*
X74671726Y-109717201D01*
X74624107Y-109669582D01*
X139856272Y-112470460D02*
X139522939Y-111994270D01*
X139284843Y-112470460D02*
X139284843Y-111470460D01*
X139665796Y-111470460D01*
X139761034Y-111518080D01*
X139808653Y-111565699D01*
X139856272Y-111660937D01*
X139856272Y-111803794D01*
X139808653Y-111899032D01*
X139761034Y-111946651D01*
X139665796Y-111994270D01*
X139284843Y-111994270D01*
X140713415Y-111803794D02*
X140713415Y-112470460D01*
X140475320Y-111422841D02*
X140237224Y-112137127D01*
X140856272Y-112137127D01*
X141427700Y-111470460D02*
X141522939Y-111470460D01*
X141618177Y-111518080D01*
X141665796Y-111565699D01*
X141713415Y-111660937D01*
X141761034Y-111851413D01*
X141761034Y-112089508D01*
X141713415Y-112279984D01*
X141665796Y-112375222D01*
X141618177Y-112422841D01*
X141522939Y-112470460D01*
X141427700Y-112470460D01*
X141332462Y-112422841D01*
X141284843Y-112375222D01*
X141237224Y-112279984D01*
X141189605Y-112089508D01*
X141189605Y-111851413D01*
X141237224Y-111660937D01*
X141284843Y-111565699D01*
X141332462Y-111518080D01*
X141427700Y-111470460D01*
X142618177Y-111803794D02*
X142618177Y-112470460D01*
X142380081Y-111422841D02*
X142141986Y-112137127D01*
X142761034Y-112137127D01*
X139889292Y-73808580D02*
X139555959Y-73332390D01*
X139317863Y-73808580D02*
X139317863Y-72808580D01*
X139698816Y-72808580D01*
X139794054Y-72856200D01*
X139841673Y-72903819D01*
X139889292Y-72999057D01*
X139889292Y-73141914D01*
X139841673Y-73237152D01*
X139794054Y-73284771D01*
X139698816Y-73332390D01*
X139317863Y-73332390D01*
X140746435Y-73141914D02*
X140746435Y-73808580D01*
X140508340Y-72760961D02*
X140270244Y-73475247D01*
X140889292Y-73475247D01*
X141460720Y-72808580D02*
X141555959Y-72808580D01*
X141651197Y-72856200D01*
X141698816Y-72903819D01*
X141746435Y-72999057D01*
X141794054Y-73189533D01*
X141794054Y-73427628D01*
X141746435Y-73618104D01*
X141698816Y-73713342D01*
X141651197Y-73760961D01*
X141555959Y-73808580D01*
X141460720Y-73808580D01*
X141365482Y-73760961D01*
X141317863Y-73713342D01*
X141270244Y-73618104D01*
X141222625Y-73427628D01*
X141222625Y-73189533D01*
X141270244Y-72999057D01*
X141317863Y-72903819D01*
X141365482Y-72856200D01*
X141460720Y-72808580D01*
X142651197Y-72808580D02*
X142460720Y-72808580D01*
X142365482Y-72856200D01*
X142317863Y-72903819D01*
X142222625Y-73046676D01*
X142175006Y-73237152D01*
X142175006Y-73618104D01*
X142222625Y-73713342D01*
X142270244Y-73760961D01*
X142365482Y-73808580D01*
X142555959Y-73808580D01*
X142651197Y-73760961D01*
X142698816Y-73713342D01*
X142746435Y-73618104D01*
X142746435Y-73380009D01*
X142698816Y-73284771D01*
X142651197Y-73237152D01*
X142555959Y-73189533D01*
X142365482Y-73189533D01*
X142270244Y-73237152D01*
X142222625Y-73284771D01*
X142175006Y-73380009D01*
X104674660Y-108126707D02*
X104198470Y-108460040D01*
X104674660Y-108698136D02*
X103674660Y-108698136D01*
X103674660Y-108317183D01*
X103722280Y-108221945D01*
X103769899Y-108174326D01*
X103865137Y-108126707D01*
X104007994Y-108126707D01*
X104103232Y-108174326D01*
X104150851Y-108221945D01*
X104198470Y-108317183D01*
X104198470Y-108698136D01*
X103674660Y-107221945D02*
X103674660Y-107698136D01*
X104150851Y-107745755D01*
X104103232Y-107698136D01*
X104055613Y-107602898D01*
X104055613Y-107364802D01*
X104103232Y-107269564D01*
X104150851Y-107221945D01*
X104246089Y-107174326D01*
X104484184Y-107174326D01*
X104579422Y-107221945D01*
X104627041Y-107269564D01*
X104674660Y-107364802D01*
X104674660Y-107602898D01*
X104627041Y-107698136D01*
X104579422Y-107745755D01*
X103674660Y-106555279D02*
X103674660Y-106460040D01*
X103722280Y-106364802D01*
X103769899Y-106317183D01*
X103865137Y-106269564D01*
X104055613Y-106221945D01*
X104293708Y-106221945D01*
X104484184Y-106269564D01*
X104579422Y-106317183D01*
X104627041Y-106364802D01*
X104674660Y-106460040D01*
X104674660Y-106555279D01*
X104627041Y-106650517D01*
X104579422Y-106698136D01*
X104484184Y-106745755D01*
X104293708Y-106793374D01*
X104055613Y-106793374D01*
X103865137Y-106745755D01*
X103769899Y-106698136D01*
X103722280Y-106650517D01*
X103674660Y-106555279D01*
X104674660Y-105269564D02*
X104674660Y-105840993D01*
X104674660Y-105555279D02*
X103674660Y-105555279D01*
X103817518Y-105650517D01*
X103912756Y-105745755D01*
X103960375Y-105840993D01*
X96846920Y-104403307D02*
X96370730Y-104736640D01*
X96846920Y-104974736D02*
X95846920Y-104974736D01*
X95846920Y-104593783D01*
X95894540Y-104498545D01*
X95942159Y-104450926D01*
X96037397Y-104403307D01*
X96180254Y-104403307D01*
X96275492Y-104450926D01*
X96323111Y-104498545D01*
X96370730Y-104593783D01*
X96370730Y-104974736D01*
X95846920Y-103498545D02*
X95846920Y-103974736D01*
X96323111Y-104022355D01*
X96275492Y-103974736D01*
X96227873Y-103879498D01*
X96227873Y-103641402D01*
X96275492Y-103546164D01*
X96323111Y-103498545D01*
X96418349Y-103450926D01*
X96656444Y-103450926D01*
X96751682Y-103498545D01*
X96799301Y-103546164D01*
X96846920Y-103641402D01*
X96846920Y-103879498D01*
X96799301Y-103974736D01*
X96751682Y-104022355D01*
X95846920Y-102831879D02*
X95846920Y-102736640D01*
X95894540Y-102641402D01*
X95942159Y-102593783D01*
X96037397Y-102546164D01*
X96227873Y-102498545D01*
X96465968Y-102498545D01*
X96656444Y-102546164D01*
X96751682Y-102593783D01*
X96799301Y-102641402D01*
X96846920Y-102736640D01*
X96846920Y-102831879D01*
X96799301Y-102927117D01*
X96751682Y-102974736D01*
X96656444Y-103022355D01*
X96465968Y-103069974D01*
X96227873Y-103069974D01*
X96037397Y-103022355D01*
X95942159Y-102974736D01*
X95894540Y-102927117D01*
X95846920Y-102831879D01*
X95942159Y-102117593D02*
X95894540Y-102069974D01*
X95846920Y-101974736D01*
X95846920Y-101736640D01*
X95894540Y-101641402D01*
X95942159Y-101593783D01*
X96037397Y-101546164D01*
X96132635Y-101546164D01*
X96275492Y-101593783D01*
X96846920Y-102165212D01*
X96846920Y-101546164D01*
X104763560Y-112650447D02*
X104287370Y-112983780D01*
X104763560Y-113221876D02*
X103763560Y-113221876D01*
X103763560Y-112840923D01*
X103811180Y-112745685D01*
X103858799Y-112698066D01*
X103954037Y-112650447D01*
X104096894Y-112650447D01*
X104192132Y-112698066D01*
X104239751Y-112745685D01*
X104287370Y-112840923D01*
X104287370Y-113221876D01*
X103763560Y-111745685D02*
X103763560Y-112221876D01*
X104239751Y-112269495D01*
X104192132Y-112221876D01*
X104144513Y-112126638D01*
X104144513Y-111888542D01*
X104192132Y-111793304D01*
X104239751Y-111745685D01*
X104334989Y-111698066D01*
X104573084Y-111698066D01*
X104668322Y-111745685D01*
X104715941Y-111793304D01*
X104763560Y-111888542D01*
X104763560Y-112126638D01*
X104715941Y-112221876D01*
X104668322Y-112269495D01*
X103763560Y-111079019D02*
X103763560Y-110983780D01*
X103811180Y-110888542D01*
X103858799Y-110840923D01*
X103954037Y-110793304D01*
X104144513Y-110745685D01*
X104382608Y-110745685D01*
X104573084Y-110793304D01*
X104668322Y-110840923D01*
X104715941Y-110888542D01*
X104763560Y-110983780D01*
X104763560Y-111079019D01*
X104715941Y-111174257D01*
X104668322Y-111221876D01*
X104573084Y-111269495D01*
X104382608Y-111317114D01*
X104144513Y-111317114D01*
X103954037Y-111269495D01*
X103858799Y-111221876D01*
X103811180Y-111174257D01*
X103763560Y-111079019D01*
X103763560Y-110412352D02*
X103763560Y-109793304D01*
X104144513Y-110126638D01*
X104144513Y-109983780D01*
X104192132Y-109888542D01*
X104239751Y-109840923D01*
X104334989Y-109793304D01*
X104573084Y-109793304D01*
X104668322Y-109840923D01*
X104715941Y-109888542D01*
X104763560Y-109983780D01*
X104763560Y-110269495D01*
X104715941Y-110364733D01*
X104668322Y-110412352D01*
X96860620Y-108225527D02*
X96384430Y-108558860D01*
X96860620Y-108796956D02*
X95860620Y-108796956D01*
X95860620Y-108416003D01*
X95908240Y-108320765D01*
X95955859Y-108273146D01*
X96051097Y-108225527D01*
X96193954Y-108225527D01*
X96289192Y-108273146D01*
X96336811Y-108320765D01*
X96384430Y-108416003D01*
X96384430Y-108796956D01*
X95860620Y-107320765D02*
X95860620Y-107796956D01*
X96336811Y-107844575D01*
X96289192Y-107796956D01*
X96241573Y-107701718D01*
X96241573Y-107463622D01*
X96289192Y-107368384D01*
X96336811Y-107320765D01*
X96432049Y-107273146D01*
X96670144Y-107273146D01*
X96765382Y-107320765D01*
X96813001Y-107368384D01*
X96860620Y-107463622D01*
X96860620Y-107701718D01*
X96813001Y-107796956D01*
X96765382Y-107844575D01*
X95860620Y-106654099D02*
X95860620Y-106558860D01*
X95908240Y-106463622D01*
X95955859Y-106416003D01*
X96051097Y-106368384D01*
X96241573Y-106320765D01*
X96479668Y-106320765D01*
X96670144Y-106368384D01*
X96765382Y-106416003D01*
X96813001Y-106463622D01*
X96860620Y-106558860D01*
X96860620Y-106654099D01*
X96813001Y-106749337D01*
X96765382Y-106796956D01*
X96670144Y-106844575D01*
X96479668Y-106892194D01*
X96241573Y-106892194D01*
X96051097Y-106844575D01*
X95955859Y-106796956D01*
X95908240Y-106749337D01*
X95860620Y-106654099D01*
X96193954Y-105463622D02*
X96860620Y-105463622D01*
X95813001Y-105701718D02*
X96527287Y-105939813D01*
X96527287Y-105320765D01*
X122099661Y-83852734D02*
X122147280Y-83709877D01*
X122147280Y-83471781D01*
X122099661Y-83376543D01*
X122052042Y-83328924D01*
X121956804Y-83281305D01*
X121861566Y-83281305D01*
X121766328Y-83328924D01*
X121718709Y-83376543D01*
X121671090Y-83471781D01*
X121623471Y-83662258D01*
X121575852Y-83757496D01*
X121528233Y-83805115D01*
X121432995Y-83852734D01*
X121337757Y-83852734D01*
X121242519Y-83805115D01*
X121194900Y-83757496D01*
X121147280Y-83662258D01*
X121147280Y-83424162D01*
X121194900Y-83281305D01*
X121147280Y-82947972D02*
X122147280Y-82709877D01*
X121432995Y-82519400D01*
X122147280Y-82328924D01*
X121147280Y-82090829D01*
X121147280Y-81805115D02*
X121147280Y-81186067D01*
X121528233Y-81519400D01*
X121528233Y-81376543D01*
X121575852Y-81281305D01*
X121623471Y-81233686D01*
X121718709Y-81186067D01*
X121956804Y-81186067D01*
X122052042Y-81233686D01*
X122099661Y-81281305D01*
X122147280Y-81376543D01*
X122147280Y-81662258D01*
X122099661Y-81757496D01*
X122052042Y-81805115D01*
X121147280Y-80567020D02*
X121147280Y-80471781D01*
X121194900Y-80376543D01*
X121242519Y-80328924D01*
X121337757Y-80281305D01*
X121528233Y-80233686D01*
X121766328Y-80233686D01*
X121956804Y-80281305D01*
X122052042Y-80328924D01*
X122099661Y-80376543D01*
X122147280Y-80471781D01*
X122147280Y-80567020D01*
X122099661Y-80662258D01*
X122052042Y-80709877D01*
X121956804Y-80757496D01*
X121766328Y-80805115D01*
X121528233Y-80805115D01*
X121337757Y-80757496D01*
X121242519Y-80709877D01*
X121194900Y-80662258D01*
X121147280Y-80567020D01*
X122147280Y-79281305D02*
X122147280Y-79852734D01*
X122147280Y-79567020D02*
X121147280Y-79567020D01*
X121290138Y-79662258D01*
X121385376Y-79757496D01*
X121432995Y-79852734D01*
X84125085Y-108729101D02*
X84267942Y-108776720D01*
X84506038Y-108776720D01*
X84601276Y-108729101D01*
X84648895Y-108681482D01*
X84696514Y-108586244D01*
X84696514Y-108491006D01*
X84648895Y-108395768D01*
X84601276Y-108348149D01*
X84506038Y-108300530D01*
X84315561Y-108252911D01*
X84220323Y-108205292D01*
X84172704Y-108157673D01*
X84125085Y-108062435D01*
X84125085Y-107967197D01*
X84172704Y-107871959D01*
X84220323Y-107824340D01*
X84315561Y-107776720D01*
X84553657Y-107776720D01*
X84696514Y-107824340D01*
X85029847Y-107776720D02*
X85267942Y-108776720D01*
X85458419Y-108062435D01*
X85648895Y-108776720D01*
X85886990Y-107776720D01*
X86744133Y-107776720D02*
X86267942Y-107776720D01*
X86220323Y-108252911D01*
X86267942Y-108205292D01*
X86363180Y-108157673D01*
X86601276Y-108157673D01*
X86696514Y-108205292D01*
X86744133Y-108252911D01*
X86791752Y-108348149D01*
X86791752Y-108586244D01*
X86744133Y-108681482D01*
X86696514Y-108729101D01*
X86601276Y-108776720D01*
X86363180Y-108776720D01*
X86267942Y-108729101D01*
X86220323Y-108681482D01*
X87410800Y-107776720D02*
X87506038Y-107776720D01*
X87601276Y-107824340D01*
X87648895Y-107871959D01*
X87696514Y-107967197D01*
X87744133Y-108157673D01*
X87744133Y-108395768D01*
X87696514Y-108586244D01*
X87648895Y-108681482D01*
X87601276Y-108729101D01*
X87506038Y-108776720D01*
X87410800Y-108776720D01*
X87315561Y-108729101D01*
X87267942Y-108681482D01*
X87220323Y-108586244D01*
X87172704Y-108395768D01*
X87172704Y-108157673D01*
X87220323Y-107967197D01*
X87267942Y-107871959D01*
X87315561Y-107824340D01*
X87410800Y-107776720D01*
X88696514Y-108776720D02*
X88125085Y-108776720D01*
X88410800Y-108776720D02*
X88410800Y-107776720D01*
X88315561Y-107919578D01*
X88220323Y-108014816D01*
X88125085Y-108062435D01*
X84028565Y-114139301D02*
X84171422Y-114186920D01*
X84409518Y-114186920D01*
X84504756Y-114139301D01*
X84552375Y-114091682D01*
X84599994Y-113996444D01*
X84599994Y-113901206D01*
X84552375Y-113805968D01*
X84504756Y-113758349D01*
X84409518Y-113710730D01*
X84219041Y-113663111D01*
X84123803Y-113615492D01*
X84076184Y-113567873D01*
X84028565Y-113472635D01*
X84028565Y-113377397D01*
X84076184Y-113282159D01*
X84123803Y-113234540D01*
X84219041Y-113186920D01*
X84457137Y-113186920D01*
X84599994Y-113234540D01*
X84933327Y-113186920D02*
X85171422Y-114186920D01*
X85361899Y-113472635D01*
X85552375Y-114186920D01*
X85790470Y-113186920D01*
X86647613Y-113186920D02*
X86171422Y-113186920D01*
X86123803Y-113663111D01*
X86171422Y-113615492D01*
X86266660Y-113567873D01*
X86504756Y-113567873D01*
X86599994Y-113615492D01*
X86647613Y-113663111D01*
X86695232Y-113758349D01*
X86695232Y-113996444D01*
X86647613Y-114091682D01*
X86599994Y-114139301D01*
X86504756Y-114186920D01*
X86266660Y-114186920D01*
X86171422Y-114139301D01*
X86123803Y-114091682D01*
X87314280Y-113186920D02*
X87409518Y-113186920D01*
X87504756Y-113234540D01*
X87552375Y-113282159D01*
X87599994Y-113377397D01*
X87647613Y-113567873D01*
X87647613Y-113805968D01*
X87599994Y-113996444D01*
X87552375Y-114091682D01*
X87504756Y-114139301D01*
X87409518Y-114186920D01*
X87314280Y-114186920D01*
X87219041Y-114139301D01*
X87171422Y-114091682D01*
X87123803Y-113996444D01*
X87076184Y-113805968D01*
X87076184Y-113567873D01*
X87123803Y-113377397D01*
X87171422Y-113282159D01*
X87219041Y-113234540D01*
X87314280Y-113186920D01*
X88028565Y-113282159D02*
X88076184Y-113234540D01*
X88171422Y-113186920D01*
X88409518Y-113186920D01*
X88504756Y-113234540D01*
X88552375Y-113282159D01*
X88599994Y-113377397D01*
X88599994Y-113472635D01*
X88552375Y-113615492D01*
X87980946Y-114186920D01*
X88599994Y-114186920D01*
X89072934Y-83163460D02*
X89072934Y-83972984D01*
X89120553Y-84068222D01*
X89168172Y-84115841D01*
X89263410Y-84163460D01*
X89453886Y-84163460D01*
X89549124Y-84115841D01*
X89596743Y-84068222D01*
X89644362Y-83972984D01*
X89644362Y-83163460D01*
X90072934Y-83258699D02*
X90120553Y-83211080D01*
X90215791Y-83163460D01*
X90453886Y-83163460D01*
X90549124Y-83211080D01*
X90596743Y-83258699D01*
X90644362Y-83353937D01*
X90644362Y-83449175D01*
X90596743Y-83592032D01*
X90025315Y-84163460D01*
X90644362Y-84163460D01*
X91263410Y-83163460D02*
X91358648Y-83163460D01*
X91453886Y-83211080D01*
X91501505Y-83258699D01*
X91549124Y-83353937D01*
X91596743Y-83544413D01*
X91596743Y-83782508D01*
X91549124Y-83972984D01*
X91501505Y-84068222D01*
X91453886Y-84115841D01*
X91358648Y-84163460D01*
X91263410Y-84163460D01*
X91168172Y-84115841D01*
X91120553Y-84068222D01*
X91072934Y-83972984D01*
X91025315Y-83782508D01*
X91025315Y-83544413D01*
X91072934Y-83353937D01*
X91120553Y-83258699D01*
X91168172Y-83211080D01*
X91263410Y-83163460D01*
X92549124Y-84163460D02*
X91977696Y-84163460D01*
X92263410Y-84163460D02*
X92263410Y-83163460D01*
X92168172Y-83306318D01*
X92072934Y-83401556D01*
X91977696Y-83449175D01*
X88928154Y-73684760D02*
X88928154Y-74494284D01*
X88975773Y-74589522D01*
X89023392Y-74637141D01*
X89118630Y-74684760D01*
X89309106Y-74684760D01*
X89404344Y-74637141D01*
X89451963Y-74589522D01*
X89499582Y-74494284D01*
X89499582Y-73684760D01*
X89928154Y-73779999D02*
X89975773Y-73732380D01*
X90071011Y-73684760D01*
X90309106Y-73684760D01*
X90404344Y-73732380D01*
X90451963Y-73779999D01*
X90499582Y-73875237D01*
X90499582Y-73970475D01*
X90451963Y-74113332D01*
X89880535Y-74684760D01*
X90499582Y-74684760D01*
X91118630Y-73684760D02*
X91213868Y-73684760D01*
X91309106Y-73732380D01*
X91356725Y-73779999D01*
X91404344Y-73875237D01*
X91451963Y-74065713D01*
X91451963Y-74303808D01*
X91404344Y-74494284D01*
X91356725Y-74589522D01*
X91309106Y-74637141D01*
X91213868Y-74684760D01*
X91118630Y-74684760D01*
X91023392Y-74637141D01*
X90975773Y-74589522D01*
X90928154Y-74494284D01*
X90880535Y-74303808D01*
X90880535Y-74065713D01*
X90928154Y-73875237D01*
X90975773Y-73779999D01*
X91023392Y-73732380D01*
X91118630Y-73684760D01*
X91832916Y-73779999D02*
X91880535Y-73732380D01*
X91975773Y-73684760D01*
X92213868Y-73684760D01*
X92309106Y-73732380D01*
X92356725Y-73779999D01*
X92404344Y-73875237D01*
X92404344Y-73970475D01*
X92356725Y-74113332D01*
X91785297Y-74684760D01*
X92404344Y-74684760D01*
X87935014Y-67978400D02*
X87935014Y-68787924D01*
X87982633Y-68883162D01*
X88030252Y-68930781D01*
X88125490Y-68978400D01*
X88315966Y-68978400D01*
X88411204Y-68930781D01*
X88458823Y-68883162D01*
X88506442Y-68787924D01*
X88506442Y-67978400D01*
X88935014Y-68073639D02*
X88982633Y-68026020D01*
X89077871Y-67978400D01*
X89315966Y-67978400D01*
X89411204Y-68026020D01*
X89458823Y-68073639D01*
X89506442Y-68168877D01*
X89506442Y-68264115D01*
X89458823Y-68406972D01*
X88887395Y-68978400D01*
X89506442Y-68978400D01*
X90125490Y-67978400D02*
X90220728Y-67978400D01*
X90315966Y-68026020D01*
X90363585Y-68073639D01*
X90411204Y-68168877D01*
X90458823Y-68359353D01*
X90458823Y-68597448D01*
X90411204Y-68787924D01*
X90363585Y-68883162D01*
X90315966Y-68930781D01*
X90220728Y-68978400D01*
X90125490Y-68978400D01*
X90030252Y-68930781D01*
X89982633Y-68883162D01*
X89935014Y-68787924D01*
X89887395Y-68597448D01*
X89887395Y-68359353D01*
X89935014Y-68168877D01*
X89982633Y-68073639D01*
X90030252Y-68026020D01*
X90125490Y-67978400D01*
X90792157Y-67978400D02*
X91411204Y-67978400D01*
X91077871Y-68359353D01*
X91220728Y-68359353D01*
X91315966Y-68406972D01*
X91363585Y-68454591D01*
X91411204Y-68549829D01*
X91411204Y-68787924D01*
X91363585Y-68883162D01*
X91315966Y-68930781D01*
X91220728Y-68978400D01*
X90935014Y-68978400D01*
X90839776Y-68930781D01*
X90792157Y-68883162D01*
X113004814Y-77545620D02*
X113004814Y-78355144D01*
X113052433Y-78450382D01*
X113100052Y-78498001D01*
X113195290Y-78545620D01*
X113385766Y-78545620D01*
X113481004Y-78498001D01*
X113528623Y-78450382D01*
X113576242Y-78355144D01*
X113576242Y-77545620D01*
X113957195Y-77545620D02*
X114576242Y-77545620D01*
X114242909Y-77926573D01*
X114385766Y-77926573D01*
X114481004Y-77974192D01*
X114528623Y-78021811D01*
X114576242Y-78117049D01*
X114576242Y-78355144D01*
X114528623Y-78450382D01*
X114481004Y-78498001D01*
X114385766Y-78545620D01*
X114100052Y-78545620D01*
X114004814Y-78498001D01*
X113957195Y-78450382D01*
X115195290Y-77545620D02*
X115290528Y-77545620D01*
X115385766Y-77593240D01*
X115433385Y-77640859D01*
X115481004Y-77736097D01*
X115528623Y-77926573D01*
X115528623Y-78164668D01*
X115481004Y-78355144D01*
X115433385Y-78450382D01*
X115385766Y-78498001D01*
X115290528Y-78545620D01*
X115195290Y-78545620D01*
X115100052Y-78498001D01*
X115052433Y-78450382D01*
X115004814Y-78355144D01*
X114957195Y-78164668D01*
X114957195Y-77926573D01*
X115004814Y-77736097D01*
X115052433Y-77640859D01*
X115100052Y-77593240D01*
X115195290Y-77545620D01*
X116481004Y-78545620D02*
X115909576Y-78545620D01*
X116195290Y-78545620D02*
X116195290Y-77545620D01*
X116100052Y-77688478D01*
X116004814Y-77783716D01*
X115909576Y-77831335D01*
X136017214Y-103964620D02*
X136017214Y-104774144D01*
X136064833Y-104869382D01*
X136112452Y-104917001D01*
X136207690Y-104964620D01*
X136398166Y-104964620D01*
X136493404Y-104917001D01*
X136541023Y-104869382D01*
X136588642Y-104774144D01*
X136588642Y-103964620D01*
X136969595Y-103964620D02*
X137588642Y-103964620D01*
X137255309Y-104345573D01*
X137398166Y-104345573D01*
X137493404Y-104393192D01*
X137541023Y-104440811D01*
X137588642Y-104536049D01*
X137588642Y-104774144D01*
X137541023Y-104869382D01*
X137493404Y-104917001D01*
X137398166Y-104964620D01*
X137112452Y-104964620D01*
X137017214Y-104917001D01*
X136969595Y-104869382D01*
X138207690Y-103964620D02*
X138302928Y-103964620D01*
X138398166Y-104012240D01*
X138445785Y-104059859D01*
X138493404Y-104155097D01*
X138541023Y-104345573D01*
X138541023Y-104583668D01*
X138493404Y-104774144D01*
X138445785Y-104869382D01*
X138398166Y-104917001D01*
X138302928Y-104964620D01*
X138207690Y-104964620D01*
X138112452Y-104917001D01*
X138064833Y-104869382D01*
X138017214Y-104774144D01*
X137969595Y-104583668D01*
X137969595Y-104345573D01*
X138017214Y-104155097D01*
X138064833Y-104059859D01*
X138112452Y-104012240D01*
X138207690Y-103964620D01*
X138874357Y-103964620D02*
X139493404Y-103964620D01*
X139160071Y-104345573D01*
X139302928Y-104345573D01*
X139398166Y-104393192D01*
X139445785Y-104440811D01*
X139493404Y-104536049D01*
X139493404Y-104774144D01*
X139445785Y-104869382D01*
X139398166Y-104917001D01*
X139302928Y-104964620D01*
X139017214Y-104964620D01*
X138921976Y-104917001D01*
X138874357Y-104869382D01*
X109982834Y-105918360D02*
X109982834Y-106727884D01*
X110030453Y-106823122D01*
X110078072Y-106870741D01*
X110173310Y-106918360D01*
X110363786Y-106918360D01*
X110459024Y-106870741D01*
X110506643Y-106823122D01*
X110554262Y-106727884D01*
X110554262Y-105918360D01*
X111459024Y-106251694D02*
X111459024Y-106918360D01*
X111220929Y-105870741D02*
X110982834Y-106585027D01*
X111601881Y-106585027D01*
X112173310Y-105918360D02*
X112268548Y-105918360D01*
X112363786Y-105965980D01*
X112411405Y-106013599D01*
X112459024Y-106108837D01*
X112506643Y-106299313D01*
X112506643Y-106537408D01*
X112459024Y-106727884D01*
X112411405Y-106823122D01*
X112363786Y-106870741D01*
X112268548Y-106918360D01*
X112173310Y-106918360D01*
X112078072Y-106870741D01*
X112030453Y-106823122D01*
X111982834Y-106727884D01*
X111935215Y-106537408D01*
X111935215Y-106299313D01*
X111982834Y-106108837D01*
X112030453Y-106013599D01*
X112078072Y-105965980D01*
X112173310Y-105918360D01*
X113459024Y-106918360D02*
X112887596Y-106918360D01*
X113173310Y-106918360D02*
X113173310Y-105918360D01*
X113078072Y-106061218D01*
X112982834Y-106156456D01*
X112887596Y-106204075D01*
X123637874Y-105903120D02*
X123637874Y-106712644D01*
X123685493Y-106807882D01*
X123733112Y-106855501D01*
X123828350Y-106903120D01*
X124018826Y-106903120D01*
X124114064Y-106855501D01*
X124161683Y-106807882D01*
X124209302Y-106712644D01*
X124209302Y-105903120D01*
X125114064Y-106236454D02*
X125114064Y-106903120D01*
X124875969Y-105855501D02*
X124637874Y-106569787D01*
X125256921Y-106569787D01*
X125828350Y-105903120D02*
X125923588Y-105903120D01*
X126018826Y-105950740D01*
X126066445Y-105998359D01*
X126114064Y-106093597D01*
X126161683Y-106284073D01*
X126161683Y-106522168D01*
X126114064Y-106712644D01*
X126066445Y-106807882D01*
X126018826Y-106855501D01*
X125923588Y-106903120D01*
X125828350Y-106903120D01*
X125733112Y-106855501D01*
X125685493Y-106807882D01*
X125637874Y-106712644D01*
X125590255Y-106522168D01*
X125590255Y-106284073D01*
X125637874Y-106093597D01*
X125685493Y-105998359D01*
X125733112Y-105950740D01*
X125828350Y-105903120D01*
X126542636Y-105998359D02*
X126590255Y-105950740D01*
X126685493Y-105903120D01*
X126923588Y-105903120D01*
X127018826Y-105950740D01*
X127066445Y-105998359D01*
X127114064Y-106093597D01*
X127114064Y-106188835D01*
X127066445Y-106331692D01*
X126495017Y-106903120D01*
X127114064Y-106903120D01*
X98625874Y-99557460D02*
X98625874Y-100366984D01*
X98673493Y-100462222D01*
X98721112Y-100509841D01*
X98816350Y-100557460D01*
X99006826Y-100557460D01*
X99102064Y-100509841D01*
X99149683Y-100462222D01*
X99197302Y-100366984D01*
X99197302Y-99557460D01*
X100149683Y-99557460D02*
X99673493Y-99557460D01*
X99625874Y-100033651D01*
X99673493Y-99986032D01*
X99768731Y-99938413D01*
X100006826Y-99938413D01*
X100102064Y-99986032D01*
X100149683Y-100033651D01*
X100197302Y-100128889D01*
X100197302Y-100366984D01*
X100149683Y-100462222D01*
X100102064Y-100509841D01*
X100006826Y-100557460D01*
X99768731Y-100557460D01*
X99673493Y-100509841D01*
X99625874Y-100462222D01*
X100816350Y-99557460D02*
X100911588Y-99557460D01*
X101006826Y-99605080D01*
X101054445Y-99652699D01*
X101102064Y-99747937D01*
X101149683Y-99938413D01*
X101149683Y-100176508D01*
X101102064Y-100366984D01*
X101054445Y-100462222D01*
X101006826Y-100509841D01*
X100911588Y-100557460D01*
X100816350Y-100557460D01*
X100721112Y-100509841D01*
X100673493Y-100462222D01*
X100625874Y-100366984D01*
X100578255Y-100176508D01*
X100578255Y-99938413D01*
X100625874Y-99747937D01*
X100673493Y-99652699D01*
X100721112Y-99605080D01*
X100816350Y-99557460D01*
X102102064Y-100557460D02*
X101530636Y-100557460D01*
X101816350Y-100557460D02*
X101816350Y-99557460D01*
X101721112Y-99700318D01*
X101625874Y-99795556D01*
X101530636Y-99843175D01*
M02*
