G04 #@! TF.GenerationSoftware,KiCad,Pcbnew,(5.1.6)-1*
G04 #@! TF.CreationDate,2020-09-09T15:03:48-04:00*
G04 #@! TF.ProjectId,electronique_drone,656c6563-7472-46f6-9e69-7175655f6472,2*
G04 #@! TF.SameCoordinates,Original*
G04 #@! TF.FileFunction,Legend,Bot*
G04 #@! TF.FilePolarity,Positive*
%FSLAX46Y46*%
G04 Gerber Fmt 4.6, Leading zero omitted, Abs format (unit mm)*
G04 Created by KiCad (PCBNEW (5.1.6)-1) date 2020-09-09 15:03:48*
%MOMM*%
%LPD*%
G01*
G04 APERTURE LIST*
%ADD10C,0.120000*%
%ADD11C,0.150000*%
G04 APERTURE END LIST*
D10*
X54007936Y-59330000D02*
X55212064Y-59330000D01*
X54007936Y-57510000D02*
X55212064Y-57510000D01*
X54447221Y-61470000D02*
X54772779Y-61470000D01*
X54447221Y-60450000D02*
X54772779Y-60450000D01*
X61279721Y-60200000D02*
X61605279Y-60200000D01*
X61279721Y-59180000D02*
X61605279Y-59180000D01*
X66359721Y-57660000D02*
X66685279Y-57660000D01*
X66359721Y-56640000D02*
X66685279Y-56640000D01*
X65089721Y-59180000D02*
X65415279Y-59180000D01*
X65089721Y-60200000D02*
X65415279Y-60200000D01*
X93220000Y-64607221D02*
X93220000Y-64932779D01*
X92200000Y-64607221D02*
X92200000Y-64932779D01*
X73340279Y-66800000D02*
X73014721Y-66800000D01*
X73340279Y-67820000D02*
X73014721Y-67820000D01*
X73340279Y-64010000D02*
X73014721Y-64010000D01*
X73340279Y-62990000D02*
X73014721Y-62990000D01*
X64607221Y-62740000D02*
X64932779Y-62740000D01*
X64607221Y-61720000D02*
X64932779Y-61720000D01*
X55120000Y-70474721D02*
X55120000Y-70800279D01*
X54100000Y-70474721D02*
X54100000Y-70800279D01*
X73979721Y-57910000D02*
X74305279Y-57910000D01*
X73979721Y-58930000D02*
X74305279Y-58930000D01*
X62990000Y-66202779D02*
X62990000Y-65877221D01*
X64010000Y-66202779D02*
X64010000Y-65877221D01*
X67670000Y-65567936D02*
X67670000Y-66772064D01*
X69490000Y-65567936D02*
X69490000Y-66772064D01*
X58930000Y-70474721D02*
X58930000Y-70800279D01*
X57910000Y-70474721D02*
X57910000Y-70800279D01*
X84580000Y-73822779D02*
X84580000Y-73497221D01*
X85600000Y-73822779D02*
X85600000Y-73497221D01*
X94142779Y-71880000D02*
X93817221Y-71880000D01*
X94142779Y-72900000D02*
X93817221Y-72900000D01*
X55717221Y-98550000D02*
X56042779Y-98550000D01*
X55717221Y-99570000D02*
X56042779Y-99570000D01*
X105247221Y-100840000D02*
X105572779Y-100840000D01*
X105247221Y-99820000D02*
X105572779Y-99820000D01*
X106517221Y-56390000D02*
X106842779Y-56390000D01*
X106517221Y-55370000D02*
X106842779Y-55370000D01*
D11*
X81465000Y-68395000D02*
X81465000Y-68170000D01*
X88715000Y-68395000D02*
X88715000Y-68070000D01*
X88715000Y-61145000D02*
X88715000Y-61470000D01*
X81465000Y-61145000D02*
X81465000Y-61470000D01*
X81465000Y-68395000D02*
X81790000Y-68395000D01*
X81465000Y-61145000D02*
X81790000Y-61145000D01*
X88715000Y-61145000D02*
X88390000Y-61145000D01*
X88715000Y-68395000D02*
X88390000Y-68395000D01*
X81465000Y-68170000D02*
X80040000Y-68170000D01*
D10*
X79270000Y-62070000D02*
X79270000Y-67970000D01*
X79270000Y-67970000D02*
X75670000Y-67970000D01*
X75670000Y-67970000D02*
X75670000Y-62070000D01*
D11*
X55729047Y-56237142D02*
X55776666Y-56284761D01*
X55919523Y-56332380D01*
X56014761Y-56332380D01*
X56157619Y-56284761D01*
X56252857Y-56189523D01*
X56300476Y-56094285D01*
X56348095Y-55903809D01*
X56348095Y-55760952D01*
X56300476Y-55570476D01*
X56252857Y-55475238D01*
X56157619Y-55380000D01*
X56014761Y-55332380D01*
X55919523Y-55332380D01*
X55776666Y-55380000D01*
X55729047Y-55427619D01*
X55348095Y-55427619D02*
X55300476Y-55380000D01*
X55205238Y-55332380D01*
X54967142Y-55332380D01*
X54871904Y-55380000D01*
X54824285Y-55427619D01*
X54776666Y-55522857D01*
X54776666Y-55618095D01*
X54824285Y-55760952D01*
X55395714Y-56332380D01*
X54776666Y-56332380D01*
X54157619Y-55332380D02*
X54062380Y-55332380D01*
X53967142Y-55380000D01*
X53919523Y-55427619D01*
X53871904Y-55522857D01*
X53824285Y-55713333D01*
X53824285Y-55951428D01*
X53871904Y-56141904D01*
X53919523Y-56237142D01*
X53967142Y-56284761D01*
X54062380Y-56332380D01*
X54157619Y-56332380D01*
X54252857Y-56284761D01*
X54300476Y-56237142D01*
X54348095Y-56141904D01*
X54395714Y-55951428D01*
X54395714Y-55713333D01*
X54348095Y-55522857D01*
X54300476Y-55427619D01*
X54252857Y-55380000D01*
X54157619Y-55332380D01*
X52871904Y-56332380D02*
X53443333Y-56332380D01*
X53157619Y-56332380D02*
X53157619Y-55332380D01*
X53252857Y-55475238D01*
X53348095Y-55570476D01*
X53443333Y-55618095D01*
X55729047Y-62747142D02*
X55776666Y-62794761D01*
X55919523Y-62842380D01*
X56014761Y-62842380D01*
X56157619Y-62794761D01*
X56252857Y-62699523D01*
X56300476Y-62604285D01*
X56348095Y-62413809D01*
X56348095Y-62270952D01*
X56300476Y-62080476D01*
X56252857Y-61985238D01*
X56157619Y-61890000D01*
X56014761Y-61842380D01*
X55919523Y-61842380D01*
X55776666Y-61890000D01*
X55729047Y-61937619D01*
X55348095Y-61937619D02*
X55300476Y-61890000D01*
X55205238Y-61842380D01*
X54967142Y-61842380D01*
X54871904Y-61890000D01*
X54824285Y-61937619D01*
X54776666Y-62032857D01*
X54776666Y-62128095D01*
X54824285Y-62270952D01*
X55395714Y-62842380D01*
X54776666Y-62842380D01*
X54157619Y-61842380D02*
X54062380Y-61842380D01*
X53967142Y-61890000D01*
X53919523Y-61937619D01*
X53871904Y-62032857D01*
X53824285Y-62223333D01*
X53824285Y-62461428D01*
X53871904Y-62651904D01*
X53919523Y-62747142D01*
X53967142Y-62794761D01*
X54062380Y-62842380D01*
X54157619Y-62842380D01*
X54252857Y-62794761D01*
X54300476Y-62747142D01*
X54348095Y-62651904D01*
X54395714Y-62461428D01*
X54395714Y-62223333D01*
X54348095Y-62032857D01*
X54300476Y-61937619D01*
X54252857Y-61890000D01*
X54157619Y-61842380D01*
X53443333Y-61937619D02*
X53395714Y-61890000D01*
X53300476Y-61842380D01*
X53062380Y-61842380D01*
X52967142Y-61890000D01*
X52919523Y-61937619D01*
X52871904Y-62032857D01*
X52871904Y-62128095D01*
X52919523Y-62270952D01*
X53490952Y-62842380D01*
X52871904Y-62842380D01*
X62561547Y-61477142D02*
X62609166Y-61524761D01*
X62752023Y-61572380D01*
X62847261Y-61572380D01*
X62990119Y-61524761D01*
X63085357Y-61429523D01*
X63132976Y-61334285D01*
X63180595Y-61143809D01*
X63180595Y-61000952D01*
X63132976Y-60810476D01*
X63085357Y-60715238D01*
X62990119Y-60620000D01*
X62847261Y-60572380D01*
X62752023Y-60572380D01*
X62609166Y-60620000D01*
X62561547Y-60667619D01*
X62180595Y-60667619D02*
X62132976Y-60620000D01*
X62037738Y-60572380D01*
X61799642Y-60572380D01*
X61704404Y-60620000D01*
X61656785Y-60667619D01*
X61609166Y-60762857D01*
X61609166Y-60858095D01*
X61656785Y-61000952D01*
X62228214Y-61572380D01*
X61609166Y-61572380D01*
X60990119Y-60572380D02*
X60894880Y-60572380D01*
X60799642Y-60620000D01*
X60752023Y-60667619D01*
X60704404Y-60762857D01*
X60656785Y-60953333D01*
X60656785Y-61191428D01*
X60704404Y-61381904D01*
X60752023Y-61477142D01*
X60799642Y-61524761D01*
X60894880Y-61572380D01*
X60990119Y-61572380D01*
X61085357Y-61524761D01*
X61132976Y-61477142D01*
X61180595Y-61381904D01*
X61228214Y-61191428D01*
X61228214Y-60953333D01*
X61180595Y-60762857D01*
X61132976Y-60667619D01*
X61085357Y-60620000D01*
X60990119Y-60572380D01*
X60323452Y-60572380D02*
X59704404Y-60572380D01*
X60037738Y-60953333D01*
X59894880Y-60953333D01*
X59799642Y-61000952D01*
X59752023Y-61048571D01*
X59704404Y-61143809D01*
X59704404Y-61381904D01*
X59752023Y-61477142D01*
X59799642Y-61524761D01*
X59894880Y-61572380D01*
X60180595Y-61572380D01*
X60275833Y-61524761D01*
X60323452Y-61477142D01*
X67641547Y-56237142D02*
X67689166Y-56284761D01*
X67832023Y-56332380D01*
X67927261Y-56332380D01*
X68070119Y-56284761D01*
X68165357Y-56189523D01*
X68212976Y-56094285D01*
X68260595Y-55903809D01*
X68260595Y-55760952D01*
X68212976Y-55570476D01*
X68165357Y-55475238D01*
X68070119Y-55380000D01*
X67927261Y-55332380D01*
X67832023Y-55332380D01*
X67689166Y-55380000D01*
X67641547Y-55427619D01*
X67260595Y-55427619D02*
X67212976Y-55380000D01*
X67117738Y-55332380D01*
X66879642Y-55332380D01*
X66784404Y-55380000D01*
X66736785Y-55427619D01*
X66689166Y-55522857D01*
X66689166Y-55618095D01*
X66736785Y-55760952D01*
X67308214Y-56332380D01*
X66689166Y-56332380D01*
X66070119Y-55332380D02*
X65974880Y-55332380D01*
X65879642Y-55380000D01*
X65832023Y-55427619D01*
X65784404Y-55522857D01*
X65736785Y-55713333D01*
X65736785Y-55951428D01*
X65784404Y-56141904D01*
X65832023Y-56237142D01*
X65879642Y-56284761D01*
X65974880Y-56332380D01*
X66070119Y-56332380D01*
X66165357Y-56284761D01*
X66212976Y-56237142D01*
X66260595Y-56141904D01*
X66308214Y-55951428D01*
X66308214Y-55713333D01*
X66260595Y-55522857D01*
X66212976Y-55427619D01*
X66165357Y-55380000D01*
X66070119Y-55332380D01*
X64879642Y-55665714D02*
X64879642Y-56332380D01*
X65117738Y-55284761D02*
X65355833Y-55999047D01*
X64736785Y-55999047D01*
X66371547Y-61477142D02*
X66419166Y-61524761D01*
X66562023Y-61572380D01*
X66657261Y-61572380D01*
X66800119Y-61524761D01*
X66895357Y-61429523D01*
X66942976Y-61334285D01*
X66990595Y-61143809D01*
X66990595Y-61000952D01*
X66942976Y-60810476D01*
X66895357Y-60715238D01*
X66800119Y-60620000D01*
X66657261Y-60572380D01*
X66562023Y-60572380D01*
X66419166Y-60620000D01*
X66371547Y-60667619D01*
X65990595Y-60667619D02*
X65942976Y-60620000D01*
X65847738Y-60572380D01*
X65609642Y-60572380D01*
X65514404Y-60620000D01*
X65466785Y-60667619D01*
X65419166Y-60762857D01*
X65419166Y-60858095D01*
X65466785Y-61000952D01*
X66038214Y-61572380D01*
X65419166Y-61572380D01*
X64800119Y-60572380D02*
X64704880Y-60572380D01*
X64609642Y-60620000D01*
X64562023Y-60667619D01*
X64514404Y-60762857D01*
X64466785Y-60953333D01*
X64466785Y-61191428D01*
X64514404Y-61381904D01*
X64562023Y-61477142D01*
X64609642Y-61524761D01*
X64704880Y-61572380D01*
X64800119Y-61572380D01*
X64895357Y-61524761D01*
X64942976Y-61477142D01*
X64990595Y-61381904D01*
X65038214Y-61191428D01*
X65038214Y-60953333D01*
X64990595Y-60762857D01*
X64942976Y-60667619D01*
X64895357Y-60620000D01*
X64800119Y-60572380D01*
X63562023Y-60572380D02*
X64038214Y-60572380D01*
X64085833Y-61048571D01*
X64038214Y-61000952D01*
X63942976Y-60953333D01*
X63704880Y-60953333D01*
X63609642Y-61000952D01*
X63562023Y-61048571D01*
X63514404Y-61143809D01*
X63514404Y-61381904D01*
X63562023Y-61477142D01*
X63609642Y-61524761D01*
X63704880Y-61572380D01*
X63942976Y-61572380D01*
X64038214Y-61524761D01*
X64085833Y-61477142D01*
X91637142Y-63650952D02*
X91684761Y-63603333D01*
X91732380Y-63460476D01*
X91732380Y-63365238D01*
X91684761Y-63222380D01*
X91589523Y-63127142D01*
X91494285Y-63079523D01*
X91303809Y-63031904D01*
X91160952Y-63031904D01*
X90970476Y-63079523D01*
X90875238Y-63127142D01*
X90780000Y-63222380D01*
X90732380Y-63365238D01*
X90732380Y-63460476D01*
X90780000Y-63603333D01*
X90827619Y-63650952D01*
X90732380Y-63984285D02*
X90732380Y-64603333D01*
X91113333Y-64270000D01*
X91113333Y-64412857D01*
X91160952Y-64508095D01*
X91208571Y-64555714D01*
X91303809Y-64603333D01*
X91541904Y-64603333D01*
X91637142Y-64555714D01*
X91684761Y-64508095D01*
X91732380Y-64412857D01*
X91732380Y-64127142D01*
X91684761Y-64031904D01*
X91637142Y-63984285D01*
X90732380Y-65222380D02*
X90732380Y-65317619D01*
X90780000Y-65412857D01*
X90827619Y-65460476D01*
X90922857Y-65508095D01*
X91113333Y-65555714D01*
X91351428Y-65555714D01*
X91541904Y-65508095D01*
X91637142Y-65460476D01*
X91684761Y-65412857D01*
X91732380Y-65317619D01*
X91732380Y-65222380D01*
X91684761Y-65127142D01*
X91637142Y-65079523D01*
X91541904Y-65031904D01*
X91351428Y-64984285D01*
X91113333Y-64984285D01*
X90922857Y-65031904D01*
X90827619Y-65079523D01*
X90780000Y-65127142D01*
X90732380Y-65222380D01*
X90732380Y-65889047D02*
X90732380Y-66508095D01*
X91113333Y-66174761D01*
X91113333Y-66317619D01*
X91160952Y-66412857D01*
X91208571Y-66460476D01*
X91303809Y-66508095D01*
X91541904Y-66508095D01*
X91637142Y-66460476D01*
X91684761Y-66412857D01*
X91732380Y-66317619D01*
X91732380Y-66031904D01*
X91684761Y-65936666D01*
X91637142Y-65889047D01*
X74296547Y-66237142D02*
X74344166Y-66284761D01*
X74487023Y-66332380D01*
X74582261Y-66332380D01*
X74725119Y-66284761D01*
X74820357Y-66189523D01*
X74867976Y-66094285D01*
X74915595Y-65903809D01*
X74915595Y-65760952D01*
X74867976Y-65570476D01*
X74820357Y-65475238D01*
X74725119Y-65380000D01*
X74582261Y-65332380D01*
X74487023Y-65332380D01*
X74344166Y-65380000D01*
X74296547Y-65427619D01*
X73963214Y-65332380D02*
X73344166Y-65332380D01*
X73677500Y-65713333D01*
X73534642Y-65713333D01*
X73439404Y-65760952D01*
X73391785Y-65808571D01*
X73344166Y-65903809D01*
X73344166Y-66141904D01*
X73391785Y-66237142D01*
X73439404Y-66284761D01*
X73534642Y-66332380D01*
X73820357Y-66332380D01*
X73915595Y-66284761D01*
X73963214Y-66237142D01*
X72725119Y-65332380D02*
X72629880Y-65332380D01*
X72534642Y-65380000D01*
X72487023Y-65427619D01*
X72439404Y-65522857D01*
X72391785Y-65713333D01*
X72391785Y-65951428D01*
X72439404Y-66141904D01*
X72487023Y-66237142D01*
X72534642Y-66284761D01*
X72629880Y-66332380D01*
X72725119Y-66332380D01*
X72820357Y-66284761D01*
X72867976Y-66237142D01*
X72915595Y-66141904D01*
X72963214Y-65951428D01*
X72963214Y-65713333D01*
X72915595Y-65522857D01*
X72867976Y-65427619D01*
X72820357Y-65380000D01*
X72725119Y-65332380D01*
X71534642Y-65665714D02*
X71534642Y-66332380D01*
X71772738Y-65284761D02*
X72010833Y-65999047D01*
X71391785Y-65999047D01*
X74296547Y-62427142D02*
X74344166Y-62474761D01*
X74487023Y-62522380D01*
X74582261Y-62522380D01*
X74725119Y-62474761D01*
X74820357Y-62379523D01*
X74867976Y-62284285D01*
X74915595Y-62093809D01*
X74915595Y-61950952D01*
X74867976Y-61760476D01*
X74820357Y-61665238D01*
X74725119Y-61570000D01*
X74582261Y-61522380D01*
X74487023Y-61522380D01*
X74344166Y-61570000D01*
X74296547Y-61617619D01*
X73963214Y-61522380D02*
X73344166Y-61522380D01*
X73677500Y-61903333D01*
X73534642Y-61903333D01*
X73439404Y-61950952D01*
X73391785Y-61998571D01*
X73344166Y-62093809D01*
X73344166Y-62331904D01*
X73391785Y-62427142D01*
X73439404Y-62474761D01*
X73534642Y-62522380D01*
X73820357Y-62522380D01*
X73915595Y-62474761D01*
X73963214Y-62427142D01*
X72725119Y-61522380D02*
X72629880Y-61522380D01*
X72534642Y-61570000D01*
X72487023Y-61617619D01*
X72439404Y-61712857D01*
X72391785Y-61903333D01*
X72391785Y-62141428D01*
X72439404Y-62331904D01*
X72487023Y-62427142D01*
X72534642Y-62474761D01*
X72629880Y-62522380D01*
X72725119Y-62522380D01*
X72820357Y-62474761D01*
X72867976Y-62427142D01*
X72915595Y-62331904D01*
X72963214Y-62141428D01*
X72963214Y-61903333D01*
X72915595Y-61712857D01*
X72867976Y-61617619D01*
X72820357Y-61570000D01*
X72725119Y-61522380D01*
X71487023Y-61522380D02*
X71963214Y-61522380D01*
X72010833Y-61998571D01*
X71963214Y-61950952D01*
X71867976Y-61903333D01*
X71629880Y-61903333D01*
X71534642Y-61950952D01*
X71487023Y-61998571D01*
X71439404Y-62093809D01*
X71439404Y-62331904D01*
X71487023Y-62427142D01*
X71534642Y-62474761D01*
X71629880Y-62522380D01*
X71867976Y-62522380D01*
X71963214Y-62474761D01*
X72010833Y-62427142D01*
X65889047Y-64112380D02*
X66222380Y-63636190D01*
X66460476Y-64112380D02*
X66460476Y-63112380D01*
X66079523Y-63112380D01*
X65984285Y-63160000D01*
X65936666Y-63207619D01*
X65889047Y-63302857D01*
X65889047Y-63445714D01*
X65936666Y-63540952D01*
X65984285Y-63588571D01*
X66079523Y-63636190D01*
X66460476Y-63636190D01*
X65508095Y-63207619D02*
X65460476Y-63160000D01*
X65365238Y-63112380D01*
X65127142Y-63112380D01*
X65031904Y-63160000D01*
X64984285Y-63207619D01*
X64936666Y-63302857D01*
X64936666Y-63398095D01*
X64984285Y-63540952D01*
X65555714Y-64112380D01*
X64936666Y-64112380D01*
X64317619Y-63112380D02*
X64222380Y-63112380D01*
X64127142Y-63160000D01*
X64079523Y-63207619D01*
X64031904Y-63302857D01*
X63984285Y-63493333D01*
X63984285Y-63731428D01*
X64031904Y-63921904D01*
X64079523Y-64017142D01*
X64127142Y-64064761D01*
X64222380Y-64112380D01*
X64317619Y-64112380D01*
X64412857Y-64064761D01*
X64460476Y-64017142D01*
X64508095Y-63921904D01*
X64555714Y-63731428D01*
X64555714Y-63493333D01*
X64508095Y-63302857D01*
X64460476Y-63207619D01*
X64412857Y-63160000D01*
X64317619Y-63112380D01*
X63031904Y-64112380D02*
X63603333Y-64112380D01*
X63317619Y-64112380D02*
X63317619Y-63112380D01*
X63412857Y-63255238D01*
X63508095Y-63350476D01*
X63603333Y-63398095D01*
X53632380Y-69518452D02*
X53156190Y-69185119D01*
X53632380Y-68947023D02*
X52632380Y-68947023D01*
X52632380Y-69327976D01*
X52680000Y-69423214D01*
X52727619Y-69470833D01*
X52822857Y-69518452D01*
X52965714Y-69518452D01*
X53060952Y-69470833D01*
X53108571Y-69423214D01*
X53156190Y-69327976D01*
X53156190Y-68947023D01*
X52727619Y-69899404D02*
X52680000Y-69947023D01*
X52632380Y-70042261D01*
X52632380Y-70280357D01*
X52680000Y-70375595D01*
X52727619Y-70423214D01*
X52822857Y-70470833D01*
X52918095Y-70470833D01*
X53060952Y-70423214D01*
X53632380Y-69851785D01*
X53632380Y-70470833D01*
X52632380Y-71089880D02*
X52632380Y-71185119D01*
X52680000Y-71280357D01*
X52727619Y-71327976D01*
X52822857Y-71375595D01*
X53013333Y-71423214D01*
X53251428Y-71423214D01*
X53441904Y-71375595D01*
X53537142Y-71327976D01*
X53584761Y-71280357D01*
X53632380Y-71185119D01*
X53632380Y-71089880D01*
X53584761Y-70994642D01*
X53537142Y-70947023D01*
X53441904Y-70899404D01*
X53251428Y-70851785D01*
X53013333Y-70851785D01*
X52822857Y-70899404D01*
X52727619Y-70947023D01*
X52680000Y-70994642D01*
X52632380Y-71089880D01*
X52632380Y-71756547D02*
X52632380Y-72375595D01*
X53013333Y-72042261D01*
X53013333Y-72185119D01*
X53060952Y-72280357D01*
X53108571Y-72327976D01*
X53203809Y-72375595D01*
X53441904Y-72375595D01*
X53537142Y-72327976D01*
X53584761Y-72280357D01*
X53632380Y-72185119D01*
X53632380Y-71899404D01*
X53584761Y-71804166D01*
X53537142Y-71756547D01*
X75261547Y-60302380D02*
X75594880Y-59826190D01*
X75832976Y-60302380D02*
X75832976Y-59302380D01*
X75452023Y-59302380D01*
X75356785Y-59350000D01*
X75309166Y-59397619D01*
X75261547Y-59492857D01*
X75261547Y-59635714D01*
X75309166Y-59730952D01*
X75356785Y-59778571D01*
X75452023Y-59826190D01*
X75832976Y-59826190D01*
X74880595Y-59397619D02*
X74832976Y-59350000D01*
X74737738Y-59302380D01*
X74499642Y-59302380D01*
X74404404Y-59350000D01*
X74356785Y-59397619D01*
X74309166Y-59492857D01*
X74309166Y-59588095D01*
X74356785Y-59730952D01*
X74928214Y-60302380D01*
X74309166Y-60302380D01*
X73690119Y-59302380D02*
X73594880Y-59302380D01*
X73499642Y-59350000D01*
X73452023Y-59397619D01*
X73404404Y-59492857D01*
X73356785Y-59683333D01*
X73356785Y-59921428D01*
X73404404Y-60111904D01*
X73452023Y-60207142D01*
X73499642Y-60254761D01*
X73594880Y-60302380D01*
X73690119Y-60302380D01*
X73785357Y-60254761D01*
X73832976Y-60207142D01*
X73880595Y-60111904D01*
X73928214Y-59921428D01*
X73928214Y-59683333D01*
X73880595Y-59492857D01*
X73832976Y-59397619D01*
X73785357Y-59350000D01*
X73690119Y-59302380D01*
X72499642Y-59635714D02*
X72499642Y-60302380D01*
X72737738Y-59254761D02*
X72975833Y-59969047D01*
X72356785Y-59969047D01*
X65382380Y-64920952D02*
X64906190Y-64587619D01*
X65382380Y-64349523D02*
X64382380Y-64349523D01*
X64382380Y-64730476D01*
X64430000Y-64825714D01*
X64477619Y-64873333D01*
X64572857Y-64920952D01*
X64715714Y-64920952D01*
X64810952Y-64873333D01*
X64858571Y-64825714D01*
X64906190Y-64730476D01*
X64906190Y-64349523D01*
X64477619Y-65301904D02*
X64430000Y-65349523D01*
X64382380Y-65444761D01*
X64382380Y-65682857D01*
X64430000Y-65778095D01*
X64477619Y-65825714D01*
X64572857Y-65873333D01*
X64668095Y-65873333D01*
X64810952Y-65825714D01*
X65382380Y-65254285D01*
X65382380Y-65873333D01*
X64382380Y-66492380D02*
X64382380Y-66587619D01*
X64430000Y-66682857D01*
X64477619Y-66730476D01*
X64572857Y-66778095D01*
X64763333Y-66825714D01*
X65001428Y-66825714D01*
X65191904Y-66778095D01*
X65287142Y-66730476D01*
X65334761Y-66682857D01*
X65382380Y-66587619D01*
X65382380Y-66492380D01*
X65334761Y-66397142D01*
X65287142Y-66349523D01*
X65191904Y-66301904D01*
X65001428Y-66254285D01*
X64763333Y-66254285D01*
X64572857Y-66301904D01*
X64477619Y-66349523D01*
X64430000Y-66397142D01*
X64382380Y-66492380D01*
X64382380Y-67730476D02*
X64382380Y-67254285D01*
X64858571Y-67206666D01*
X64810952Y-67254285D01*
X64763333Y-67349523D01*
X64763333Y-67587619D01*
X64810952Y-67682857D01*
X64858571Y-67730476D01*
X64953809Y-67778095D01*
X65191904Y-67778095D01*
X65287142Y-67730476D01*
X65334761Y-67682857D01*
X65382380Y-67587619D01*
X65382380Y-67349523D01*
X65334761Y-67254285D01*
X65287142Y-67206666D01*
X67212380Y-65050952D02*
X66736190Y-64717619D01*
X67212380Y-64479523D02*
X66212380Y-64479523D01*
X66212380Y-64860476D01*
X66260000Y-64955714D01*
X66307619Y-65003333D01*
X66402857Y-65050952D01*
X66545714Y-65050952D01*
X66640952Y-65003333D01*
X66688571Y-64955714D01*
X66736190Y-64860476D01*
X66736190Y-64479523D01*
X66307619Y-65431904D02*
X66260000Y-65479523D01*
X66212380Y-65574761D01*
X66212380Y-65812857D01*
X66260000Y-65908095D01*
X66307619Y-65955714D01*
X66402857Y-66003333D01*
X66498095Y-66003333D01*
X66640952Y-65955714D01*
X67212380Y-65384285D01*
X67212380Y-66003333D01*
X66212380Y-66622380D02*
X66212380Y-66717619D01*
X66260000Y-66812857D01*
X66307619Y-66860476D01*
X66402857Y-66908095D01*
X66593333Y-66955714D01*
X66831428Y-66955714D01*
X67021904Y-66908095D01*
X67117142Y-66860476D01*
X67164761Y-66812857D01*
X67212380Y-66717619D01*
X67212380Y-66622380D01*
X67164761Y-66527142D01*
X67117142Y-66479523D01*
X67021904Y-66431904D01*
X66831428Y-66384285D01*
X66593333Y-66384285D01*
X66402857Y-66431904D01*
X66307619Y-66479523D01*
X66260000Y-66527142D01*
X66212380Y-66622380D01*
X66212380Y-67812857D02*
X66212380Y-67622380D01*
X66260000Y-67527142D01*
X66307619Y-67479523D01*
X66450476Y-67384285D01*
X66640952Y-67336666D01*
X67021904Y-67336666D01*
X67117142Y-67384285D01*
X67164761Y-67431904D01*
X67212380Y-67527142D01*
X67212380Y-67717619D01*
X67164761Y-67812857D01*
X67117142Y-67860476D01*
X67021904Y-67908095D01*
X66783809Y-67908095D01*
X66688571Y-67860476D01*
X66640952Y-67812857D01*
X66593333Y-67717619D01*
X66593333Y-67527142D01*
X66640952Y-67431904D01*
X66688571Y-67384285D01*
X66783809Y-67336666D01*
X57442380Y-69518452D02*
X56966190Y-69185119D01*
X57442380Y-68947023D02*
X56442380Y-68947023D01*
X56442380Y-69327976D01*
X56490000Y-69423214D01*
X56537619Y-69470833D01*
X56632857Y-69518452D01*
X56775714Y-69518452D01*
X56870952Y-69470833D01*
X56918571Y-69423214D01*
X56966190Y-69327976D01*
X56966190Y-68947023D01*
X56537619Y-69899404D02*
X56490000Y-69947023D01*
X56442380Y-70042261D01*
X56442380Y-70280357D01*
X56490000Y-70375595D01*
X56537619Y-70423214D01*
X56632857Y-70470833D01*
X56728095Y-70470833D01*
X56870952Y-70423214D01*
X57442380Y-69851785D01*
X57442380Y-70470833D01*
X56442380Y-71089880D02*
X56442380Y-71185119D01*
X56490000Y-71280357D01*
X56537619Y-71327976D01*
X56632857Y-71375595D01*
X56823333Y-71423214D01*
X57061428Y-71423214D01*
X57251904Y-71375595D01*
X57347142Y-71327976D01*
X57394761Y-71280357D01*
X57442380Y-71185119D01*
X57442380Y-71089880D01*
X57394761Y-70994642D01*
X57347142Y-70947023D01*
X57251904Y-70899404D01*
X57061428Y-70851785D01*
X56823333Y-70851785D01*
X56632857Y-70899404D01*
X56537619Y-70947023D01*
X56490000Y-70994642D01*
X56442380Y-71089880D01*
X56442380Y-71756547D02*
X56442380Y-72423214D01*
X57442380Y-71994642D01*
X86972380Y-72540952D02*
X86496190Y-72207619D01*
X86972380Y-71969523D02*
X85972380Y-71969523D01*
X85972380Y-72350476D01*
X86020000Y-72445714D01*
X86067619Y-72493333D01*
X86162857Y-72540952D01*
X86305714Y-72540952D01*
X86400952Y-72493333D01*
X86448571Y-72445714D01*
X86496190Y-72350476D01*
X86496190Y-71969523D01*
X85972380Y-72874285D02*
X85972380Y-73493333D01*
X86353333Y-73160000D01*
X86353333Y-73302857D01*
X86400952Y-73398095D01*
X86448571Y-73445714D01*
X86543809Y-73493333D01*
X86781904Y-73493333D01*
X86877142Y-73445714D01*
X86924761Y-73398095D01*
X86972380Y-73302857D01*
X86972380Y-73017142D01*
X86924761Y-72921904D01*
X86877142Y-72874285D01*
X85972380Y-74112380D02*
X85972380Y-74207619D01*
X86020000Y-74302857D01*
X86067619Y-74350476D01*
X86162857Y-74398095D01*
X86353333Y-74445714D01*
X86591428Y-74445714D01*
X86781904Y-74398095D01*
X86877142Y-74350476D01*
X86924761Y-74302857D01*
X86972380Y-74207619D01*
X86972380Y-74112380D01*
X86924761Y-74017142D01*
X86877142Y-73969523D01*
X86781904Y-73921904D01*
X86591428Y-73874285D01*
X86353333Y-73874285D01*
X86162857Y-73921904D01*
X86067619Y-73969523D01*
X86020000Y-74017142D01*
X85972380Y-74112380D01*
X86972380Y-75398095D02*
X86972380Y-74826666D01*
X86972380Y-75112380D02*
X85972380Y-75112380D01*
X86115238Y-75017142D01*
X86210476Y-74921904D01*
X86258095Y-74826666D01*
X95099047Y-71412380D02*
X95432380Y-70936190D01*
X95670476Y-71412380D02*
X95670476Y-70412380D01*
X95289523Y-70412380D01*
X95194285Y-70460000D01*
X95146666Y-70507619D01*
X95099047Y-70602857D01*
X95099047Y-70745714D01*
X95146666Y-70840952D01*
X95194285Y-70888571D01*
X95289523Y-70936190D01*
X95670476Y-70936190D01*
X94765714Y-70412380D02*
X94146666Y-70412380D01*
X94480000Y-70793333D01*
X94337142Y-70793333D01*
X94241904Y-70840952D01*
X94194285Y-70888571D01*
X94146666Y-70983809D01*
X94146666Y-71221904D01*
X94194285Y-71317142D01*
X94241904Y-71364761D01*
X94337142Y-71412380D01*
X94622857Y-71412380D01*
X94718095Y-71364761D01*
X94765714Y-71317142D01*
X93527619Y-70412380D02*
X93432380Y-70412380D01*
X93337142Y-70460000D01*
X93289523Y-70507619D01*
X93241904Y-70602857D01*
X93194285Y-70793333D01*
X93194285Y-71031428D01*
X93241904Y-71221904D01*
X93289523Y-71317142D01*
X93337142Y-71364761D01*
X93432380Y-71412380D01*
X93527619Y-71412380D01*
X93622857Y-71364761D01*
X93670476Y-71317142D01*
X93718095Y-71221904D01*
X93765714Y-71031428D01*
X93765714Y-70793333D01*
X93718095Y-70602857D01*
X93670476Y-70507619D01*
X93622857Y-70460000D01*
X93527619Y-70412380D01*
X92860952Y-70412380D02*
X92241904Y-70412380D01*
X92575238Y-70793333D01*
X92432380Y-70793333D01*
X92337142Y-70840952D01*
X92289523Y-70888571D01*
X92241904Y-70983809D01*
X92241904Y-71221904D01*
X92289523Y-71317142D01*
X92337142Y-71364761D01*
X92432380Y-71412380D01*
X92718095Y-71412380D01*
X92813333Y-71364761D01*
X92860952Y-71317142D01*
X56999047Y-100942380D02*
X57332380Y-100466190D01*
X57570476Y-100942380D02*
X57570476Y-99942380D01*
X57189523Y-99942380D01*
X57094285Y-99990000D01*
X57046666Y-100037619D01*
X56999047Y-100132857D01*
X56999047Y-100275714D01*
X57046666Y-100370952D01*
X57094285Y-100418571D01*
X57189523Y-100466190D01*
X57570476Y-100466190D01*
X56141904Y-100275714D02*
X56141904Y-100942380D01*
X56380000Y-99894761D02*
X56618095Y-100609047D01*
X55999047Y-100609047D01*
X55427619Y-99942380D02*
X55332380Y-99942380D01*
X55237142Y-99990000D01*
X55189523Y-100037619D01*
X55141904Y-100132857D01*
X55094285Y-100323333D01*
X55094285Y-100561428D01*
X55141904Y-100751904D01*
X55189523Y-100847142D01*
X55237142Y-100894761D01*
X55332380Y-100942380D01*
X55427619Y-100942380D01*
X55522857Y-100894761D01*
X55570476Y-100847142D01*
X55618095Y-100751904D01*
X55665714Y-100561428D01*
X55665714Y-100323333D01*
X55618095Y-100132857D01*
X55570476Y-100037619D01*
X55522857Y-99990000D01*
X55427619Y-99942380D01*
X54760952Y-99942380D02*
X54141904Y-99942380D01*
X54475238Y-100323333D01*
X54332380Y-100323333D01*
X54237142Y-100370952D01*
X54189523Y-100418571D01*
X54141904Y-100513809D01*
X54141904Y-100751904D01*
X54189523Y-100847142D01*
X54237142Y-100894761D01*
X54332380Y-100942380D01*
X54618095Y-100942380D01*
X54713333Y-100894761D01*
X54760952Y-100847142D01*
X106529047Y-102212380D02*
X106862380Y-101736190D01*
X107100476Y-102212380D02*
X107100476Y-101212380D01*
X106719523Y-101212380D01*
X106624285Y-101260000D01*
X106576666Y-101307619D01*
X106529047Y-101402857D01*
X106529047Y-101545714D01*
X106576666Y-101640952D01*
X106624285Y-101688571D01*
X106719523Y-101736190D01*
X107100476Y-101736190D01*
X105671904Y-101545714D02*
X105671904Y-102212380D01*
X105910000Y-101164761D02*
X106148095Y-101879047D01*
X105529047Y-101879047D01*
X104957619Y-101212380D02*
X104862380Y-101212380D01*
X104767142Y-101260000D01*
X104719523Y-101307619D01*
X104671904Y-101402857D01*
X104624285Y-101593333D01*
X104624285Y-101831428D01*
X104671904Y-102021904D01*
X104719523Y-102117142D01*
X104767142Y-102164761D01*
X104862380Y-102212380D01*
X104957619Y-102212380D01*
X105052857Y-102164761D01*
X105100476Y-102117142D01*
X105148095Y-102021904D01*
X105195714Y-101831428D01*
X105195714Y-101593333D01*
X105148095Y-101402857D01*
X105100476Y-101307619D01*
X105052857Y-101260000D01*
X104957619Y-101212380D01*
X103767142Y-101545714D02*
X103767142Y-102212380D01*
X104005238Y-101164761D02*
X104243333Y-101879047D01*
X103624285Y-101879047D01*
X107799047Y-57762380D02*
X108132380Y-57286190D01*
X108370476Y-57762380D02*
X108370476Y-56762380D01*
X107989523Y-56762380D01*
X107894285Y-56810000D01*
X107846666Y-56857619D01*
X107799047Y-56952857D01*
X107799047Y-57095714D01*
X107846666Y-57190952D01*
X107894285Y-57238571D01*
X107989523Y-57286190D01*
X108370476Y-57286190D01*
X106941904Y-57095714D02*
X106941904Y-57762380D01*
X107180000Y-56714761D02*
X107418095Y-57429047D01*
X106799047Y-57429047D01*
X106227619Y-56762380D02*
X106132380Y-56762380D01*
X106037142Y-56810000D01*
X105989523Y-56857619D01*
X105941904Y-56952857D01*
X105894285Y-57143333D01*
X105894285Y-57381428D01*
X105941904Y-57571904D01*
X105989523Y-57667142D01*
X106037142Y-57714761D01*
X106132380Y-57762380D01*
X106227619Y-57762380D01*
X106322857Y-57714761D01*
X106370476Y-57667142D01*
X106418095Y-57571904D01*
X106465714Y-57381428D01*
X106465714Y-57143333D01*
X106418095Y-56952857D01*
X106370476Y-56857619D01*
X106322857Y-56810000D01*
X106227619Y-56762380D01*
X105037142Y-56762380D02*
X105227619Y-56762380D01*
X105322857Y-56810000D01*
X105370476Y-56857619D01*
X105465714Y-57000476D01*
X105513333Y-57190952D01*
X105513333Y-57571904D01*
X105465714Y-57667142D01*
X105418095Y-57714761D01*
X105322857Y-57762380D01*
X105132380Y-57762380D01*
X105037142Y-57714761D01*
X104989523Y-57667142D01*
X104941904Y-57571904D01*
X104941904Y-57333809D01*
X104989523Y-57238571D01*
X105037142Y-57190952D01*
X105132380Y-57143333D01*
X105322857Y-57143333D01*
X105418095Y-57190952D01*
X105465714Y-57238571D01*
X105513333Y-57333809D01*
X86804285Y-70272380D02*
X86804285Y-71081904D01*
X86756666Y-71177142D01*
X86709047Y-71224761D01*
X86613809Y-71272380D01*
X86423333Y-71272380D01*
X86328095Y-71224761D01*
X86280476Y-71177142D01*
X86232857Y-71081904D01*
X86232857Y-70272380D01*
X85851904Y-70272380D02*
X85232857Y-70272380D01*
X85566190Y-70653333D01*
X85423333Y-70653333D01*
X85328095Y-70700952D01*
X85280476Y-70748571D01*
X85232857Y-70843809D01*
X85232857Y-71081904D01*
X85280476Y-71177142D01*
X85328095Y-71224761D01*
X85423333Y-71272380D01*
X85709047Y-71272380D01*
X85804285Y-71224761D01*
X85851904Y-71177142D01*
X84613809Y-70272380D02*
X84518571Y-70272380D01*
X84423333Y-70320000D01*
X84375714Y-70367619D01*
X84328095Y-70462857D01*
X84280476Y-70653333D01*
X84280476Y-70891428D01*
X84328095Y-71081904D01*
X84375714Y-71177142D01*
X84423333Y-71224761D01*
X84518571Y-71272380D01*
X84613809Y-71272380D01*
X84709047Y-71224761D01*
X84756666Y-71177142D01*
X84804285Y-71081904D01*
X84851904Y-70891428D01*
X84851904Y-70653333D01*
X84804285Y-70462857D01*
X84756666Y-70367619D01*
X84709047Y-70320000D01*
X84613809Y-70272380D01*
X83899523Y-70367619D02*
X83851904Y-70320000D01*
X83756666Y-70272380D01*
X83518571Y-70272380D01*
X83423333Y-70320000D01*
X83375714Y-70367619D01*
X83328095Y-70462857D01*
X83328095Y-70558095D01*
X83375714Y-70700952D01*
X83947142Y-71272380D01*
X83328095Y-71272380D01*
X80246190Y-63341428D02*
X80722380Y-63341428D01*
X79722380Y-63008095D02*
X80246190Y-63341428D01*
X79722380Y-63674761D01*
X79722380Y-63912857D02*
X79722380Y-64531904D01*
X80103333Y-64198571D01*
X80103333Y-64341428D01*
X80150952Y-64436666D01*
X80198571Y-64484285D01*
X80293809Y-64531904D01*
X80531904Y-64531904D01*
X80627142Y-64484285D01*
X80674761Y-64436666D01*
X80722380Y-64341428D01*
X80722380Y-64055714D01*
X80674761Y-63960476D01*
X80627142Y-63912857D01*
X79722380Y-65150952D02*
X79722380Y-65246190D01*
X79770000Y-65341428D01*
X79817619Y-65389047D01*
X79912857Y-65436666D01*
X80103333Y-65484285D01*
X80341428Y-65484285D01*
X80531904Y-65436666D01*
X80627142Y-65389047D01*
X80674761Y-65341428D01*
X80722380Y-65246190D01*
X80722380Y-65150952D01*
X80674761Y-65055714D01*
X80627142Y-65008095D01*
X80531904Y-64960476D01*
X80341428Y-64912857D01*
X80103333Y-64912857D01*
X79912857Y-64960476D01*
X79817619Y-65008095D01*
X79770000Y-65055714D01*
X79722380Y-65150952D01*
X80722380Y-66436666D02*
X80722380Y-65865238D01*
X80722380Y-66150952D02*
X79722380Y-66150952D01*
X79865238Y-66055714D01*
X79960476Y-65960476D01*
X80008095Y-65865238D01*
M02*
