M48
; DRILL file {KiCad (5.1.6)-1} date 09/09/20 15:05:34
; FORMAT={-:-/ absolute / inch / decimal}
; #@! TF.CreationDate,2020-09-09T15:05:34-04:00
; #@! TF.GenerationSoftware,Kicad,Pcbnew,(5.1.6)-1
; #@! TF.FileFunction,Plated,1,4,PTH
FMAT,2
INCH
T1C0.0157
T2C0.0394
T3C0.1535
T4C0.1575
%
G90
G05
T1
X1.85Y-3.5
X1.9Y-3.25
X1.9Y-3.75
X2.0Y-2.8
X2.05Y-3.35
X2.15Y-3.7
X2.2Y-2.75
X2.25Y-2.7
X2.3Y-2.25
X2.3Y-3.8
X2.3Y-3.95
X2.35Y-3.3
X2.35Y-3.6
X2.4Y-2.1
X2.4Y-3.45
X2.4Y-3.9
X2.45Y-2.45
X2.45Y-2.6
X2.45Y-2.95
X2.5Y-2.3
X2.5Y-2.35
X2.55Y-2.7
X2.55Y-3.45
X2.6Y-2.85
X2.65Y-2.3343
X2.65Y-3.35
X2.75Y-2.3
X2.75Y-2.45
X2.75Y-2.6
X2.85Y-2.4
X2.9Y-3.4715
X3.05Y-3.45
X3.1Y-2.7278
X3.1095Y-3.3517
X3.15Y-2.7278
X3.15Y-2.85
X3.15Y-3.7
X3.1996Y-3.6655
X3.2Y-2.4
X3.2Y-2.9
X3.2Y-3.8
X3.2017Y-3.2517
X3.25Y-2.45
X3.25Y-2.65
X3.2517Y-3.2017
X3.2683Y-2.99
X3.3Y-2.65
X3.3Y-3.05
X3.3485Y-2.3015
X3.35Y-2.25
X3.35Y-2.45
X3.35Y-2.4978
X3.35Y-2.5372
X3.35Y-2.6
X3.35Y-2.8
X3.4Y-2.6
X3.4Y-3.2
X3.4Y-3.7035
X3.4071Y-2.8
X3.45Y-2.45
X3.45Y-2.9
X3.45Y-3.2
X3.45Y-3.85
X3.463Y-2.7515
X3.5Y-2.25
X3.5Y-2.7
X3.5Y-3.2
X3.55Y-2.7
X3.55Y-3.15
X3.55Y-3.3
X3.55Y-3.45
X3.5958Y-3.3426
X3.6Y-2.7
X3.6Y-3.15
X3.6148Y-2.8444
X3.7Y-2.8843
X3.7Y-3.05
X3.7Y-3.2
X3.7Y-3.45
X3.75Y-2.2
X3.75Y-2.95
X3.75Y-3.6
X3.75Y-3.7
X3.75Y-3.8
X3.8Y-3.3929
X3.8Y-3.95
X3.925Y-3.0378
X3.95Y-3.15
X4.0Y-2.5
X4.0Y-2.6
X4.0Y-3.05
X4.0Y-3.25
X4.0Y-2.89
X4.1Y-2.2
X4.1Y-2.85
X4.1Y-3.15
X4.15Y-2.85
X4.15Y-2.95
X4.2Y-3.55
X4.2Y-3.85
X4.25Y-3.3
X4.25Y-3.9
X4.35Y-2.85
X4.45Y-3.45
T2
X3.1Y-3.0
X3.1Y-3.1
X3.1Y-3.2
X4.45Y-2.25
X4.45Y-2.35
X4.45Y-2.45
X4.45Y-2.55
X4.45Y-2.65
X4.45Y-2.75
X4.45Y-2.85
X4.45Y-2.95
X1.95Y-2.95
X1.95Y-3.05
X1.95Y-3.15
X2.05Y-2.95
X2.05Y-3.05
X2.05Y-3.15
X4.35Y-4.0
X4.45Y-4.0
X2.85Y-3.0
X2.85Y-3.1
X2.85Y-3.2
X2.7Y-3.45
X2.7Y-3.55
X2.7Y-3.65
X2.7Y-3.75
X2.8Y-3.45
X2.8Y-3.55
X2.8Y-3.65
X2.8Y-3.75
X2.25Y-3.05
X2.25Y-3.15
X1.9Y-4.0
X2.0Y-4.0
X4.35Y-2.1
X4.45Y-2.1
X1.95Y-2.3
X1.95Y-2.4
X1.9Y-2.1
X2.0Y-2.1
X2.15Y-2.6
X2.25Y-2.6
X2.35Y-2.6
X2.45Y-3.05
X2.45Y-3.15
T3
X3.75Y-2.45
T4
X2.4508Y-3.7492
T0
M30
