G04 #@! TF.GenerationSoftware,KiCad,Pcbnew,(5.1.6)-1*
G04 #@! TF.CreationDate,2020-09-09T15:03:48-04:00*
G04 #@! TF.ProjectId,electronique_drone,656c6563-7472-46f6-9e69-7175655f6472,2*
G04 #@! TF.SameCoordinates,Original*
G04 #@! TF.FileFunction,Copper,L3,Inr*
G04 #@! TF.FilePolarity,Positive*
%FSLAX46Y46*%
G04 Gerber Fmt 4.6, Leading zero omitted, Abs format (unit mm)*
G04 Created by KiCad (PCBNEW (5.1.6)-1) date 2020-09-09 15:03:48*
%MOMM*%
%LPD*%
G01*
G04 APERTURE LIST*
G04 #@! TA.AperFunction,ViaPad*
%ADD10R,1.700000X1.700000*%
G04 #@! TD*
G04 #@! TA.AperFunction,ViaPad*
%ADD11O,1.700000X1.700000*%
G04 #@! TD*
G04 #@! TA.AperFunction,ViaPad*
%ADD12C,5.000000*%
G04 #@! TD*
G04 #@! TA.AperFunction,ViaPad*
%ADD13C,4.000000*%
G04 #@! TD*
G04 #@! TA.AperFunction,ViaPad*
%ADD14C,0.800000*%
G04 #@! TD*
G04 #@! TA.AperFunction,Conductor*
%ADD15C,0.250000*%
G04 #@! TD*
G04 APERTURE END LIST*
D10*
X49530000Y-58420000D03*
D11*
X49530000Y-60960000D03*
D10*
X49530000Y-74930000D03*
D11*
X52070000Y-74930000D03*
X49530000Y-77470000D03*
X52070000Y-77470000D03*
X49530000Y-80010000D03*
X52070000Y-80010000D03*
D10*
X54610000Y-66040000D03*
D11*
X57150000Y-66040000D03*
X59690000Y-66040000D03*
D10*
X72390000Y-76200000D03*
D11*
X72390000Y-78740000D03*
X72390000Y-81280000D03*
X78740000Y-81280000D03*
X78740000Y-78740000D03*
D10*
X78740000Y-76200000D03*
D11*
X57150000Y-80010000D03*
D10*
X57150000Y-77470000D03*
X62230000Y-77470000D03*
D11*
X62230000Y-80010000D03*
X50800000Y-53340000D03*
D10*
X48260000Y-53340000D03*
X110490000Y-53340000D03*
D11*
X113030000Y-53340000D03*
X50800000Y-101600000D03*
D10*
X48260000Y-101600000D03*
X110490000Y-101600000D03*
D11*
X113030000Y-101600000D03*
D10*
X113030000Y-74930000D03*
D11*
X113030000Y-72390000D03*
X113030000Y-69850000D03*
X113030000Y-67310000D03*
X113030000Y-64770000D03*
X113030000Y-62230000D03*
X113030000Y-59690000D03*
X113030000Y-57150000D03*
D10*
X71120000Y-87630000D03*
D11*
X68580000Y-87630000D03*
X71120000Y-90170000D03*
X68580000Y-90170000D03*
X71120000Y-92710000D03*
X68580000Y-92710000D03*
X71120000Y-95250000D03*
X68580000Y-95250000D03*
D12*
X62250000Y-95229000D03*
D13*
X95250000Y-62230000D03*
D14*
X62230000Y-62230000D03*
X72390000Y-60960000D03*
X69850000Y-66040016D03*
X67310000Y-85090000D03*
X96520000Y-86179999D03*
X95250000Y-91440000D03*
X107950000Y-83820000D03*
X106680000Y-90170000D03*
X110490000Y-72390000D03*
X104140000Y-72390000D03*
X63500000Y-59690000D03*
X63500000Y-58420000D03*
X87630000Y-73660000D03*
X95250000Y-74930000D03*
X101600001Y-73405097D03*
X105410000Y-74930000D03*
X85090000Y-66040000D03*
X85090000Y-64445000D03*
X62230000Y-74930000D03*
X66040000Y-72390000D03*
X77470000Y-87630000D03*
X59690000Y-83820000D03*
X85090000Y-71120000D03*
X83820000Y-67310000D03*
X101600000Y-66040000D03*
X58420000Y-57150000D03*
X69850000Y-58420000D03*
X81270769Y-93102500D03*
X58420000Y-96520000D03*
X104140000Y-55880000D03*
X113030000Y-87630000D03*
X90170000Y-87630000D03*
X58420000Y-100330000D03*
X81280000Y-96520000D03*
X60960000Y-99060000D03*
X96520000Y-100330000D03*
X99695842Y-77160000D03*
X101600000Y-63500000D03*
X101600000Y-77470000D03*
X95250000Y-55880000D03*
X87630000Y-62230000D03*
X91440000Y-80010000D03*
X91440000Y-68580000D03*
X83820000Y-77470000D03*
X83015000Y-75946770D03*
X90170000Y-80010000D03*
X93980000Y-73260000D03*
X78982500Y-85133903D03*
X48260000Y-82550000D03*
X60960000Y-53340000D03*
X95250000Y-93980000D03*
X73660000Y-88174990D03*
X69850000Y-62230000D03*
X62230000Y-66040000D03*
X67310000Y-59290000D03*
X91816174Y-72247664D03*
X86360000Y-66040000D03*
X86540001Y-71120000D03*
X59690000Y-91440000D03*
X54610000Y-93980000D03*
X64770000Y-87630014D03*
X60960000Y-87630000D03*
X52070000Y-85090000D03*
X48260000Y-95250000D03*
X81323903Y-82593903D03*
X80010000Y-69285000D03*
X86360000Y-94070000D03*
X80010000Y-72390000D03*
X78740000Y-69285000D03*
X82550000Y-67310000D03*
X87630000Y-97790000D03*
X82593903Y-81323903D03*
X81280000Y-73660000D03*
X81280000Y-60960000D03*
X101600000Y-82550000D03*
X104140000Y-80010000D03*
X85052347Y-58457653D03*
X95250000Y-96520000D03*
X87630000Y-81280000D03*
X82550000Y-62230000D03*
X93980000Y-87630000D03*
X106680002Y-97790000D03*
X91333995Y-84903096D03*
X93980000Y-81280000D03*
X93980000Y-77470000D03*
X105410000Y-72390000D03*
X88900000Y-57150000D03*
X85090000Y-63444997D03*
X107950000Y-99060000D03*
X86360000Y-81280000D03*
X85090000Y-62230000D03*
X80010000Y-93980000D03*
X85090000Y-57150000D03*
X64770000Y-68580000D03*
X46990000Y-88900000D03*
X50800000Y-71120000D03*
X57150000Y-68580000D03*
X55880000Y-69850000D03*
X90170000Y-83820000D03*
X90170000Y-68580000D03*
X88900000Y-81280000D03*
X88900000Y-68580000D03*
X100330000Y-80010000D03*
X87961194Y-69887493D03*
D15*
X99420852Y-60050852D02*
X95649999Y-56279999D01*
X95649999Y-56279999D02*
X95250000Y-55880000D01*
X101600000Y-77470000D02*
X99420852Y-75290852D01*
X99420852Y-75290852D02*
X99420852Y-60050852D01*
X91440000Y-80010000D02*
X91440000Y-78740000D01*
X91440000Y-78740000D02*
X93980000Y-76200000D01*
X94705001Y-73608001D02*
X94705001Y-71845001D01*
X94705001Y-71845001D02*
X91440000Y-68580000D01*
X93980000Y-76200000D02*
X93980000Y-74333002D01*
X93980000Y-74333002D02*
X94705001Y-73608001D01*
X90170000Y-80010000D02*
X90170000Y-77070000D01*
X90170000Y-77070000D02*
X93980000Y-73260000D01*
X48260000Y-82550000D02*
X48260000Y-53340000D01*
X59784999Y-54515001D02*
X60960000Y-53340000D01*
X48260000Y-53340000D02*
X49435001Y-54515001D01*
X49435001Y-54515001D02*
X59784999Y-54515001D01*
X71120000Y-92710000D02*
X69850000Y-91440000D01*
X69850000Y-91440000D02*
X59690000Y-91440000D01*
X59690000Y-91440000D02*
X57150000Y-91440000D01*
X57150000Y-91440000D02*
X54610000Y-93980000D01*
X80358001Y-81628001D02*
X80358001Y-73115001D01*
X81323903Y-82593903D02*
X80358001Y-81628001D01*
X80358001Y-73115001D02*
X80735001Y-72738001D01*
X80735001Y-72738001D02*
X80735001Y-70010001D01*
X80735001Y-70010001D02*
X80010000Y-69285000D01*
X81280000Y-73660000D02*
X81280000Y-60960000D01*
X93529991Y-66935297D02*
X85052347Y-58457653D01*
X98970841Y-72376147D02*
X93529991Y-66935297D01*
X101472840Y-80010000D02*
X98970841Y-77508001D01*
X104140000Y-80010000D02*
X101472840Y-80010000D01*
X98970841Y-77508001D02*
X98970841Y-72376147D01*
X83820000Y-70923002D02*
X84545001Y-70198001D01*
X87630000Y-81280000D02*
X86904999Y-82005001D01*
X84545001Y-80538003D02*
X84545001Y-71648003D01*
X83820000Y-63500000D02*
X82550000Y-62230000D01*
X83820000Y-65843002D02*
X83820000Y-63500000D01*
X84545001Y-70198001D02*
X84545001Y-66568003D01*
X86011999Y-82005001D02*
X84545001Y-80538003D01*
X84545001Y-71648003D02*
X83820000Y-70923002D01*
X84545001Y-66568003D02*
X83820000Y-65843002D01*
X86904999Y-82005001D02*
X86011999Y-82005001D01*
X93980000Y-81280000D02*
X93980000Y-77470000D01*
X87085001Y-66388001D02*
X87085001Y-64225001D01*
X85815000Y-80735000D02*
X85815000Y-67658002D01*
X86360000Y-81280000D02*
X85815000Y-80735000D01*
X85815000Y-67658002D02*
X87085001Y-66388001D01*
X87085001Y-64225001D02*
X85090000Y-62230000D01*
X80010000Y-89096998D02*
X77470000Y-86556998D01*
X80010000Y-93980000D02*
X80010000Y-89096998D01*
X84016998Y-57150000D02*
X85090000Y-57150000D01*
X77470000Y-86556998D02*
X77470000Y-63696998D01*
X77470000Y-63696998D02*
X84016998Y-57150000D01*
X50705001Y-71214999D02*
X50800000Y-71120000D01*
X46990000Y-88900000D02*
X50705001Y-85184999D01*
X50705001Y-85184999D02*
X50705001Y-71214999D01*
X89444999Y-80358001D02*
X89444999Y-69305001D01*
X89444999Y-69305001D02*
X90170000Y-68580000D01*
X90170000Y-83820000D02*
X90170000Y-81083002D01*
X90170000Y-81083002D02*
X89444999Y-80358001D01*
X88900000Y-81280000D02*
X88900000Y-68580000D01*
M02*
