G04 #@! TF.GenerationSoftware,KiCad,Pcbnew,(5.1.6)-1*
G04 #@! TF.CreationDate,2020-09-09T15:03:48-04:00*
G04 #@! TF.ProjectId,electronique_drone,656c6563-7472-46f6-9e69-7175655f6472,2*
G04 #@! TF.SameCoordinates,Original*
G04 #@! TF.FileFunction,Copper,L2,Inr*
G04 #@! TF.FilePolarity,Positive*
%FSLAX46Y46*%
G04 Gerber Fmt 4.6, Leading zero omitted, Abs format (unit mm)*
G04 Created by KiCad (PCBNEW (5.1.6)-1) date 2020-09-09 15:03:48*
%MOMM*%
%LPD*%
G01*
G04 APERTURE LIST*
G04 #@! TA.AperFunction,ViaPad*
%ADD10R,1.700000X1.700000*%
G04 #@! TD*
G04 #@! TA.AperFunction,ViaPad*
%ADD11O,1.700000X1.700000*%
G04 #@! TD*
G04 #@! TA.AperFunction,ViaPad*
%ADD12C,5.000000*%
G04 #@! TD*
G04 #@! TA.AperFunction,ViaPad*
%ADD13C,4.000000*%
G04 #@! TD*
G04 #@! TA.AperFunction,ViaPad*
%ADD14C,0.800000*%
G04 #@! TD*
G04 #@! TA.AperFunction,Conductor*
%ADD15C,0.250000*%
G04 #@! TD*
G04 APERTURE END LIST*
D10*
X49530000Y-58420000D03*
D11*
X49530000Y-60960000D03*
D10*
X49530000Y-74930000D03*
D11*
X52070000Y-74930000D03*
X49530000Y-77470000D03*
X52070000Y-77470000D03*
X49530000Y-80010000D03*
X52070000Y-80010000D03*
D10*
X54610000Y-66040000D03*
D11*
X57150000Y-66040000D03*
X59690000Y-66040000D03*
D10*
X72390000Y-76200000D03*
D11*
X72390000Y-78740000D03*
X72390000Y-81280000D03*
X78740000Y-81280000D03*
X78740000Y-78740000D03*
D10*
X78740000Y-76200000D03*
D11*
X57150000Y-80010000D03*
D10*
X57150000Y-77470000D03*
X62230000Y-77470000D03*
D11*
X62230000Y-80010000D03*
X50800000Y-53340000D03*
D10*
X48260000Y-53340000D03*
X110490000Y-53340000D03*
D11*
X113030000Y-53340000D03*
X50800000Y-101600000D03*
D10*
X48260000Y-101600000D03*
X110490000Y-101600000D03*
D11*
X113030000Y-101600000D03*
D10*
X113030000Y-74930000D03*
D11*
X113030000Y-72390000D03*
X113030000Y-69850000D03*
X113030000Y-67310000D03*
X113030000Y-64770000D03*
X113030000Y-62230000D03*
X113030000Y-59690000D03*
X113030000Y-57150000D03*
D10*
X71120000Y-87630000D03*
D11*
X68580000Y-87630000D03*
X71120000Y-90170000D03*
X68580000Y-90170000D03*
X71120000Y-92710000D03*
X68580000Y-92710000D03*
X71120000Y-95250000D03*
X68580000Y-95250000D03*
D12*
X62250000Y-95229000D03*
D13*
X95250000Y-62230000D03*
D14*
X62230000Y-62230000D03*
X72390000Y-60960000D03*
X69850000Y-66040016D03*
X67310000Y-85090000D03*
X96520000Y-86179999D03*
X95250000Y-91440000D03*
X107950000Y-83820000D03*
X106680000Y-90170000D03*
X110490000Y-72390000D03*
X104140000Y-72390000D03*
X63500000Y-59690000D03*
X63500000Y-58420000D03*
X87630000Y-73660000D03*
X95250000Y-74930000D03*
X101600001Y-73405097D03*
X105410000Y-74930000D03*
X85090000Y-66040000D03*
X85090000Y-64445000D03*
X62230000Y-74930000D03*
X66040000Y-72390000D03*
X77470000Y-87630000D03*
X59690000Y-83820000D03*
X85090000Y-71120000D03*
X83820000Y-67310000D03*
X101600000Y-66040000D03*
X58420000Y-57150000D03*
X69850000Y-58420000D03*
X81270769Y-93102500D03*
X58420000Y-96520000D03*
X104140000Y-55880000D03*
X113030000Y-87630000D03*
X90170000Y-87630000D03*
X58420000Y-100330000D03*
X81280000Y-96520000D03*
X60960000Y-99060000D03*
X96520000Y-100330000D03*
X99695842Y-77160000D03*
X101600000Y-63500000D03*
X101600000Y-77470000D03*
X95250000Y-55880000D03*
X87630000Y-62230000D03*
X91440000Y-80010000D03*
X91440000Y-68580000D03*
X83820000Y-77470000D03*
X83015000Y-75946770D03*
X90170000Y-80010000D03*
X93980000Y-73260000D03*
X78982500Y-85133903D03*
X48260000Y-82550000D03*
X60960000Y-53340000D03*
X95250000Y-93980000D03*
X73660000Y-88174990D03*
X69850000Y-62230000D03*
X62230000Y-66040000D03*
X67310000Y-59290000D03*
X91816174Y-72247664D03*
X86360000Y-66040000D03*
X86540001Y-71120000D03*
X59690000Y-91440000D03*
X54610000Y-93980000D03*
X64770000Y-87630014D03*
X60960000Y-87630000D03*
X52070000Y-85090000D03*
X48260000Y-95250000D03*
X81323903Y-82593903D03*
X80010000Y-69285000D03*
X86360000Y-94070000D03*
X80010000Y-72390000D03*
X78740000Y-69285000D03*
X82550000Y-67310000D03*
X87630000Y-97790000D03*
X82593903Y-81323903D03*
X81280000Y-73660000D03*
X81280000Y-60960000D03*
X101600000Y-82550000D03*
X104140000Y-80010000D03*
X85052347Y-58457653D03*
X95250000Y-96520000D03*
X87630000Y-81280000D03*
X82550000Y-62230000D03*
X93980000Y-87630000D03*
X106680002Y-97790000D03*
X91333995Y-84903096D03*
X93980000Y-81280000D03*
X93980000Y-77470000D03*
X105410000Y-72390000D03*
X88900000Y-57150000D03*
X85090000Y-63444997D03*
X107950000Y-99060000D03*
X86360000Y-81280000D03*
X85090000Y-62230000D03*
X80010000Y-93980000D03*
X85090000Y-57150000D03*
X64770000Y-68580000D03*
X46990000Y-88900000D03*
X50800000Y-71120000D03*
X57150000Y-68580000D03*
X55880000Y-69850000D03*
X90170000Y-83820000D03*
X90170000Y-68580000D03*
X88900000Y-81280000D03*
X88900000Y-68580000D03*
X100330000Y-80010000D03*
X87961194Y-69887493D03*
D15*
X48354999Y-78034001D02*
X48354999Y-62135001D01*
X48354999Y-62135001D02*
X49530000Y-60960000D01*
X49155997Y-78834999D02*
X48354999Y-78034001D01*
X50894999Y-78834999D02*
X49155997Y-78834999D01*
X52070000Y-80010000D02*
X50894999Y-78834999D01*
X72390000Y-66040000D02*
X85090000Y-66040000D01*
X66040000Y-72390000D02*
X72390000Y-66040000D01*
X50705001Y-81185001D02*
X68205997Y-81185001D01*
X49530000Y-80010000D02*
X50705001Y-81185001D01*
X68205997Y-81185001D02*
X72015997Y-77375001D01*
X73754999Y-77375001D02*
X83820000Y-67310000D01*
X72015997Y-77375001D02*
X73754999Y-77375001D01*
X100330000Y-67310000D02*
X83820000Y-67310000D01*
X101600000Y-66040000D02*
X100330000Y-67310000D01*
X58420000Y-57150000D02*
X68580000Y-57150000D01*
X68580000Y-57150000D02*
X69850000Y-58420000D01*
X90895001Y-86904999D02*
X90170000Y-87630000D01*
X113030000Y-87630000D02*
X112304999Y-86904999D01*
X112304999Y-86904999D02*
X90895001Y-86904999D01*
X49530000Y-77470000D02*
X50705001Y-76294999D01*
X50705001Y-76294999D02*
X54984003Y-76294999D01*
X85400736Y-65170001D02*
X87630000Y-62940737D01*
X87630000Y-62940737D02*
X87630000Y-62230000D01*
X66109001Y-65170001D02*
X85400736Y-65170001D01*
X54984003Y-76294999D02*
X66109001Y-65170001D01*
X69850000Y-62230000D02*
X66040000Y-62230000D01*
X66040000Y-62230000D02*
X62230000Y-66040000D01*
X86360000Y-66040000D02*
X87630000Y-64770000D01*
X87630000Y-64770000D02*
X110490000Y-64770000D01*
X114205001Y-68674999D02*
X113030000Y-69850000D01*
X114205001Y-66745999D02*
X114205001Y-68674999D01*
X113594001Y-66134999D02*
X114205001Y-66745999D01*
X111854999Y-66134999D02*
X113594001Y-66134999D01*
X110490000Y-64770000D02*
X111854999Y-66134999D01*
X109220000Y-71120000D02*
X113030000Y-67310000D01*
X86540001Y-71120000D02*
X109220000Y-71120000D01*
X86360000Y-94070000D02*
X80010000Y-87720000D01*
X80010000Y-87720000D02*
X80010000Y-72390000D01*
X82593903Y-81323903D02*
X81280000Y-80010000D01*
X81280000Y-80010000D02*
X81280000Y-73660000D01*
X105410000Y-72518844D02*
X105410000Y-72390000D01*
X100043843Y-77885001D02*
X105410000Y-72518844D01*
X93980000Y-77470000D02*
X94395001Y-77885001D01*
X94395001Y-77885001D02*
X100043843Y-77885001D01*
X88900000Y-57150000D02*
X88900000Y-59634997D01*
X88900000Y-59634997D02*
X85090000Y-63444997D01*
X85815000Y-70771999D02*
X86699506Y-69887493D01*
X86699506Y-69887493D02*
X87961194Y-69887493D01*
X85815000Y-71468001D02*
X85815000Y-70771999D01*
X95053001Y-80010000D02*
X86888002Y-71845001D01*
X86888002Y-71845001D02*
X86192000Y-71845001D01*
X100330000Y-80010000D02*
X95053001Y-80010000D01*
X86192000Y-71845001D02*
X85815000Y-71468001D01*
M02*
